<svg xmlns="http://www.w3.org/2000/svg" xmlns:xlink="http://www.w3.org/1999/xlink" width="44" height="44" viewBox="0 0 44 44"><defs><style>.a{opacity:0.154;}.a,.b,.c{fill:url(#a);}.b{opacity:0.499;}</style><linearGradient id="a" x1="0.5" x2="0.5" y2="1" gradientUnits="objectBoundingBox"><stop offset="0" stop-color="#90e3b1"/><stop offset="1" stop-color="#58aa6c"/></linearGradient></defs><g transform="translate(-34 -438)"><rect class="a" width="44" height="44" rx="14" transform="translate(34 438)"/><g transform="translate(41.656 447.262)"><path class="b" d="M363.825,7.861c-.673,2.187,2.265,2.049,3.438,1.716,1.609-.458,2.67-3.2,4.1-2.906,1.2.726,6.164,5.324,8.54,7.547a10.6,10.6,0,0,0,2.033-5.355c0-6.591-4.882-13.018-14.1-5.424C367.816,3.42,364.166,6.755,363.825,7.861Z" transform="translate(-353.592 0)"/><path class="c" d="M25.767,16.139l-2.521-1.8a61.89,61.89,0,0,0-5.669-5.255c-.581.689-1,2.378-3.931,2.808-4.763-.182-6.1-2.149-5.941-3.428-.026-.8,4.014-4.42,4.014-4.42l1.206-1.456C5.544-3.244-.13,4.213.376,9.773c0,1.793,1.1,3.858,2.686,5.911l-.8.575a1.377,1.377,0,0,0-.318,1.915l.235.328a1.377,1.377,0,0,0,1.915.318l1.036-.741q.344.365.7.723L4.6,19.676a1.377,1.377,0,0,0-.318,1.915l.235.328a1.377,1.377,0,0,0,1.915.318l1.708-1.221q.353.318.7.625L7.281,22.757a1.377,1.377,0,0,0-.318,1.914L7.2,25a1.377,1.377,0,0,0,1.915.319l2.219-1.587c.278.224.548.439.8.64-.013.04-.028.08-.037.121l-1.6,1.146a1.377,1.377,0,0,0-.319,1.915l.235.328a1.377,1.377,0,0,0,1.915.318l1.765-1.263,1.6,1.144a1.377,1.377,0,0,0,1.915-.318l.235-.328a1.377,1.377,0,0,0-.319-1.915l-.834-.6q.382-.331.821-.722l1.4,1a1.377,1.377,0,0,0,1.915-.318l.235-.328a1.377,1.377,0,0,0-.318-1.915l-.872-.624q.33-.319.665-.651l1.053.755A1.377,1.377,0,0,0,23.5,21.8l.235-.328a1.377,1.377,0,0,0-.318-1.915l-.679-.486q.336-.369.664-.749l.529.378a1.377,1.377,0,0,0,1.915-.318l.235-.328a1.377,1.377,0,0,0-.318-1.913Z" transform="translate(0 -0.452)"/></g></g></svg>