<svg xmlns="http://www.w3.org/2000/svg" xmlns:xlink="http://www.w3.org/1999/xlink" width="44" height="44" viewBox="0 0 44 44"><defs><style>.a{opacity:0.154;}.a,.b,.c{fill:url(#a);}.c{opacity:0.499;}</style><linearGradient id="a" x1="0.5" x2="0.5" y2="1" gradientUnits="objectBoundingBox"><stop offset="0" stop-color="#90e3b1"/><stop offset="1" stop-color="#58aa6c"/></linearGradient></defs><g transform="translate(-122 -438)"><rect class="a" width="44" height="44" rx="14" transform="translate(122 438)"/><g transform="translate(-43 12.491)"><path class="b" d="M-6328.25,173.037a3.182,3.182,0,0,1-1.818-.8l-2.614-2.157h-6.119a4.2,4.2,0,0,1-4.193-3.954l-.006-.247V154.709a4.2,4.2,0,0,1,3.954-4.193l.245-.006h19.6a4.2,4.2,0,0,1,4.193,3.953l.006.247v11.172l-.006.248a4.2,4.2,0,0,1-3.946,3.945l-.247.008h-4.76l-2.343,1.971A3.132,3.132,0,0,1-6328.25,173.037Zm-.812-8.787a1.269,1.269,0,0,0-.906.385,1.232,1.232,0,0,0-.377.95,1.3,1.3,0,0,0,.377.971,1.338,1.338,0,0,0,.955.385,1.335,1.335,0,0,0,.957-.385,1.253,1.253,0,0,0,.4-.971,1.315,1.315,0,0,0-.379-.95,1.315,1.315,0,0,0-.978-.384h-.05Zm.106-7.583a.832.832,0,0,1,.7.264,1.34,1.34,0,0,1,.252.884,1.205,1.205,0,0,1-.151.583l-.111.181-.118.151-.234.283a6.466,6.466,0,0,0-1.371,1.915l-.158.414a2.438,2.438,0,0,0-.114.669l0,.288a1.229,1.229,0,0,0,1.168,1.278,1.229,1.229,0,0,0,1.17-1.278l.153-.522a2.293,2.293,0,0,1,.449-.626l.379-.406.307-.341.232-.272.158-.205a3.941,3.941,0,0,0,.606-2.171,3.728,3.728,0,0,0-.887-2.6,3.08,3.08,0,0,0-2.381-1,3.1,3.1,0,0,0-2.6,1.238,4.083,4.083,0,0,0-.812,1.947l-.046.369a1.246,1.246,0,0,0,.885,1.339l.182.027.066,0a1.215,1.215,0,0,0,1.164-1.011l.03-.226a1.8,1.8,0,0,1,.25-.764A.85.85,0,0,1-6328.956,156.667Z" transform="translate(6516 285.999)"/><path class="c" d="M99.186,184.257a1.262,1.262,0,0,0-.957.385,1.225,1.225,0,0,0-.378.95,1.308,1.308,0,0,0,.378.971,1.38,1.38,0,0,0,1.912,0,1.254,1.254,0,0,0,.4-.971,1.3,1.3,0,0,0-1.356-1.335Zm.1-10.09a3.11,3.11,0,0,0-2.6,1.238,4.089,4.089,0,0,0-.811,1.947l-.046.37a1.241,1.241,0,0,0,.885,1.339l.182.027.067,0a1.22,1.22,0,0,0,1.162-1.01l.031-.226a1.8,1.8,0,0,1,.25-.764.852.852,0,0,1,.825-.416.828.828,0,0,1,.7.265,1.33,1.33,0,0,1,.252.884,1.2,1.2,0,0,1-.151.581l-.112.182-.117.152-.234.283a6.471,6.471,0,0,0-1.371,1.916l-.157.413a2.438,2.438,0,0,0-.114.67l0,.288a1.174,1.174,0,1,0,2.338,0l.153-.523a2.264,2.264,0,0,1,.449-.624l.379-.406.307-.34.233-.273.156-.2a3.951,3.951,0,0,0,.608-2.171,3.737,3.737,0,0,0-.888-2.6,3.07,3.07,0,0,0-2.381-1Z" transform="translate(87.803 265.993)"/></g></g></svg>