<svg xmlns="http://www.w3.org/2000/svg" xmlns:xlink="http://www.w3.org/1999/xlink" width="44" height="44" viewBox="0 0 44 44"><defs><style>.a{opacity:0.154;}.a,.b,.c{fill:url(#a);}.b{opacity:0.499;}</style><linearGradient id="a" x1="0.5" x2="0.5" y2="1" gradientUnits="objectBoundingBox"><stop offset="0" stop-color="#90e3b1"/><stop offset="1" stop-color="#58aa6c"/></linearGradient></defs><g transform="translate(-298 -353)"><rect class="a" width="44" height="44" rx="14" transform="translate(298 353)"/><g transform="translate(46.008 19.078)"><path class="b" d="M87.288,157.1c-2.919-.961-1.748-2.791-3.5-3.5a16.728,16.728,0,0,0-5.836-1.167,17.019,17.019,0,0,0-5.836,1.167c-1.757.7-.582,2.541-3.5,3.5-3.086,1.015-4.7-.473-4.664-2.311a4.329,4.329,0,0,1,2.33-3.525c3.962-2.311,11.671-2.334,11.671-2.334s7.709.023,11.671,2.334a4.338,4.338,0,0,1,2.328,3.5c.049,1.851-1.561,3.358-4.663,2.338Zm-13.32-.829h1.986v2h4v-2h2v2c.711,3.048-8.462,3.095-7.994,0v-2Z" transform="matrix(1, -0.017, 0.017, 1, 193.453, 196.616)"/><path class="c" d="M75.954,158.277h6.007l8.02,7v4.668a2.669,2.669,0,0,1-2.693,2.334H68.614a2.637,2.637,0,0,1-2.661-2.334v-4.668l8.015-7Zm2.021,11.036a4,4,0,1,0-4-4,4,4,0,0,0,4,4Z" transform="matrix(1, -0.017, 0.017, 1, 193.453, 196.616)"/></g></g></svg>