<svg xmlns="http://www.w3.org/2000/svg" xmlns:xlink="http://www.w3.org/1999/xlink" width="44" height="44" viewBox="0 0 44 44"><defs><style>.a{fill:#58aa6c;}.b{opacity:0.154;}.b,.d,.e{fill:url(#a);}.c{clip-path:url(#b);}.d{opacity:0.499;}</style><linearGradient id="a" x1="0.5" x2="0.5" y2="1" gradientUnits="objectBoundingBox"><stop offset="0" stop-color="#90e3b1"/><stop offset="1" stop-color="#58aa6c"/></linearGradient><clipPath id="b"><rect class="a" width="28" height="28" transform="translate(177 376)"/></clipPath></defs><g transform="translate(-122 -353)"><rect class="b" width="44" height="44" rx="14" transform="translate(122 353)"/><g class="c" transform="translate(-47 -15)"><g transform="translate(51.293 -47.613)"><path class="d" d="M103.465,112.751a13.1,13.1,0,0,1,0-10.351l2.156.863a10.917,10.917,0,0,0,0,8.625Zm23.713-9.488a10.917,10.917,0,0,1,0,8.625l2.155.863a13.1,13.1,0,0,0,0-10.351Zm-5.391,2.158a5.43,5.43,0,0,1,0,4.31l2.157.865a7.64,7.64,0,0,0,0-6.039Zm-10.775,4.31a5.429,5.429,0,0,1,0-4.31l-2.158-.864a7.639,7.639,0,0,0,0,6.04Z" transform="translate(23.307 322.213)"/><path class="e" d="M4.666,24.206H2.333v-.023a2.3,2.3,0,0,1-1.648-.7A2.371,2.371,0,0,1,0,21.813V14.7A2.372,2.372,0,0,1,.685,13.03a2.3,2.3,0,0,1,1.648-.7h10.5V6.893A3.541,3.541,0,0,1,10.5,3.555a3.56,3.56,0,0,1,1.025-2.513,3.461,3.461,0,0,1,4.95,0,3.583,3.583,0,0,1,.367,4.579,3.519,3.519,0,0,1-1.675,1.272v5.441h10.5a2.3,2.3,0,0,1,1.648.7A2.372,2.372,0,0,1,28,14.7v7.11a2.371,2.371,0,0,1-.686,1.673,2.3,2.3,0,0,1-1.648.7v.023H23.333V17.073H21v7.11H18.666v-7.11H16.333v7.11H14v-7.11H11.666v7.11h-7v.023Zm0-7.133v2.37H9.333v-2.37H4.666Z" transform="translate(125.707 426.407)"/></g></g></g></svg>