<svg xmlns="http://www.w3.org/2000/svg" xmlns:xlink="http://www.w3.org/1999/xlink" width="44" height="44" viewBox="0 0 44 44"><defs><style>.a{fill:#58aa6c;}.b{opacity:0.154;}.b,.d{fill:url(#a);}.c{clip-path:url(#b);}.e{opacity:0.5;fill:url(#d);}</style><linearGradient id="a" x1="0.5" x2="0.5" y2="1" gradientUnits="objectBoundingBox"><stop offset="0" stop-color="#90e3b1"/><stop offset="1" stop-color="#58aa6c"/></linearGradient><clipPath id="b"><rect class="a" width="28" height="28" transform="translate(89 387)"/></clipPath><linearGradient id="d" x1="0.627" x2="0.616" xlink:href="#a"/></defs><g transform="translate(-34 -353)"><rect class="b" width="44" height="44" rx="14" transform="translate(34 353)"/><g class="c" transform="translate(-47 -26)"><g transform="translate(8 35.661)"><path class="d" d="M-6360.944,179h-22.12a2.839,2.839,0,0,1-2.937-2.723v-2.258a2.074,2.074,0,0,1,.747-1.574,3.4,3.4,0,0,0,1.229-2.737,3.39,3.39,0,0,0-1.229-2.736,2.079,2.079,0,0,1-.747-1.577v-1.856l0-.423a2.847,2.847,0,0,1,2.936-2.7h.84a.872.872,0,0,1,.346-.218l11.493-3.907a5.385,5.385,0,0,1,1.735-.286,5.115,5.115,0,0,1,4.45,2.469l1.13,1.942h2.131a3.054,3.054,0,0,1,1.99.722,2.653,2.653,0,0,1,.935,1.769l.01.237v2.255a2.084,2.084,0,0,1-.747,1.577,3.389,3.389,0,0,0-1.229,2.736,3.4,3.4,0,0,0,1.229,2.737,2.071,2.071,0,0,1,.747,1.574v1.563l-.01.707A2.841,2.841,0,0,1-6360.944,179Zm-12.042-8.19a.961.961,0,0,0-.981.938.96.96,0,0,0,.981.936h1.723V173.9a.96.96,0,0,0,.981.936.959.959,0,0,0,.979-.936V172.68h1.725a.959.959,0,0,0,.979-.936.959.959,0,0,0-.979-.936h-1.725v-1.082h1.725a.96.96,0,0,0,.979-.938.959.959,0,0,0-.979-.936h-1.306l1.851-1.768a.908.908,0,0,0,.287-.661.908.908,0,0,0-.287-.661,1,1,0,0,0-.692-.274,1,1,0,0,0-.692.274l-1.84,1.758-1.808-1.726a1,1,0,0,0-.692-.274,1,1,0,0,0-.692.274.908.908,0,0,0-.288.661.908.908,0,0,0,.288.661l1.819,1.739h-1.354a.96.96,0,0,0-.981.936.96.96,0,0,0,.981.936h1.723v1.082Zm-5.794-4.364,0,0a.7.7,0,0,0-.718.671v6.7a.7.7,0,0,0,.721.638.7.7,0,0,0,.721-.638v-6.706A.7.7,0,0,0-6378.78,166.446Zm10.136-9.1h0a3.834,3.834,0,0,0-1.239.205l-8.433,2.861h13.608l-.758-1.3a3.654,3.654,0,0,0-3.177-1.763Z" transform="translate(6467 198.339)"/><path class="e" d="M359.288,292.536a.937.937,0,1,0,0-1.873h-1.305l1.85-1.768a.905.905,0,0,0,0-1.322,1.011,1.011,0,0,0-1.384,0l-1.841,1.758-1.807-1.726a1.011,1.011,0,0,0-1.384,0,.905.905,0,0,0,0,1.322l1.819,1.738H353.88a.937.937,0,1,0,0,1.873H355.6v1.082H353.88a.937.937,0,1,0,0,1.873H355.6v1.213a.981.981,0,0,0,1.96,0v-1.215h1.724a.937.937,0,1,0,0-1.873h-1.724v-1.082Z" transform="translate(-259.868 75.529)"/></g></g></g></svg>