<svg xmlns="http://www.w3.org/2000/svg" xmlns:xlink="http://www.w3.org/1999/xlink" width="44" height="44" viewBox="0 0 44 44"><defs><style>.a{opacity:0.154;}.a,.b,.c{fill:url(#a);}.c{opacity:0.507;}</style><linearGradient id="a" x1="0.5" x2="0.5" y2="1" gradientUnits="objectBoundingBox"><stop offset="0" stop-color="#90e3b1"/><stop offset="1" stop-color="#58aa6c"/></linearGradient></defs><g transform="translate(-210 -353)"><rect class="a" width="44" height="44" rx="14" transform="translate(210 353)"/><g transform="translate(10 -57.532)"><path class="b" d="M87.042,125.207a3.793,3.793,0,0,1-3.519-2.339,3.76,3.76,0,0,1-6.962,0,3.793,3.793,0,0,1-3.519,2.339,3.753,3.753,0,0,1-3.481-2.339,3.8,3.8,0,0,1-4.6,2.18V132.8a1.787,1.787,0,0,0,1.52,1.6H86.6a1.787,1.787,0,0,0,1.52-1.6v-7.751a3.842,3.842,0,0,1-1.08.156m1.02-12.273H64.942l-2.4,6.289a3.5,3.5,0,0,0,7,0,3.5,3.5,0,0,0,7,0,3.48,3.48,0,0,0,6.96,0,3.521,3.521,0,0,0,7.04,0l-2.48-6.289m-1.12-.04.08.04-.08-.04" transform="translate(145.458 310.628)"/><path class="c" d="M66.594,111.84h19.9a1.234,1.234,0,0,0,0-2.468h-19.9a1.234,1.234,0,0,0,0,2.468M65.48,111.29Z" transform="translate(145.458 310.16)"/></g></g></svg>