<svg xmlns="http://www.w3.org/2000/svg" xmlns:xlink="http://www.w3.org/1999/xlink" width="24" height="24" viewBox="0 0 24 24"><defs><style>.a,.c{fill:url(#a);}.b{clip-path:url(#b);}.c{stroke:rgba(0,0,0,0);stroke-miterlimit:10;}</style><linearGradient id="a" x1="0.5" x2="0.5" y2="1" gradientUnits="objectBoundingBox"><stop offset="0" stop-color="#90e3b1"/><stop offset="1" stop-color="#58aa6c"/></linearGradient><clipPath id="b"><rect class="a" width="24" height="24" transform="translate(340 1093)"/></clipPath></defs><g class="b" transform="translate(-340 -1093)"><path class="c" d="M110.932,13.374h-5a7.081,7.081,0,0,0-7.074,7.074,3.328,3.328,0,0,0,3.328,3.321h12.49a3.328,3.328,0,0,0,3.355-3.321,7.081,7.081,0,0,0-7.1-7.074Zm-2.486-.788a6.293,6.293,0,1,0-6.3-6.286,6.293,6.293,0,0,0,6.3,6.286Zm-1.37-5.081h2.958a.493.493,0,0,1,.486.623,2.191,2.191,0,0,1-4.2,0c-.089-.315.158-.623.76-.623Z" transform="translate(243.141 1093)"/></g></svg>