<svg xmlns="http://www.w3.org/2000/svg" xmlns:xlink="http://www.w3.org/1999/xlink" width="24" height="24" viewBox="0 0 24 24"><defs><style>.a{fill:#666;}.b{clip-path:url(#a);}</style><clipPath id="a"><rect class="a" width="24" height="24" transform="translate(316 1093)"/></clipPath></defs><g class="b" transform="translate(-316 -1093)"><g transform="translate(-25.801 -1.122)"><g transform="translate(347.695 1094.122)"><path class="a" d="M6.193,2a4.193,4.193,0,1,0,4.193,4.193A4.2,4.2,0,0,0,6.193,2m0-2A6.193,6.193,0,1,1,0,6.193,6.193,6.193,0,0,1,6.193,0Z" transform="translate(0)"/></g><path class="a" d="M107.039,7.505h2.819a.47.47,0,0,1,.463.594,2.088,2.088,0,0,1-4.006,0c-.085-.3.15-.594.724-.594Z" transform="translate(245.396 1093.728)"/><path class="a" d="M110.334,12.374a7.7,7.7,0,0,1,7.7,7.692,4.153,4.153,0,0,1-1.223,2.925,4.1,4.1,0,0,1-2.9,1.193H101.982a4.13,4.13,0,0,1-4.124-4.115,7.7,7.7,0,0,1,7.692-7.694Zm3.575,9.9a2.2,2.2,0,0,0,1.56-.642,2.233,2.233,0,0,0,.658-1.572,5.793,5.793,0,0,0-5.793-5.785h-4.782a5.8,5.8,0,0,0-5.787,5.788,2.221,2.221,0,0,0,2.218,2.211Z" transform="translate(245.942 1093.938)"/></g></g></svg>