<svg width="30" height="31" viewBox="0 0 30 31" fill="none" xmlns="http://www.w3.org/2000/svg">
<g id="Group 321">
<path id="Vector" d="M12.8329 16C12.3214 16.0002 11.8208 16.1474 11.3907 16.4242C10.9607 16.701 10.6192 17.0955 10.4071 17.5609C9.79009 18.9088 8.98677 20.1632 8.0207 21.2875L13 21.5C13.1119 21.5 12.9209 21.0791 13 21C13.0791 20.9209 13 20.6119 13 20.5V19C12.9976 18.2946 13.4988 17.4988 13 17C12.5012 16.5012 13.5383 16.0025 12.8329 16ZM1 26.0051C1.00223 26.7597 1.30296 27.4827 1.83652 28.0163C2.37008 28.5498 3.0931 28.8505 3.84766 28.8528H10.0039C10.7584 28.8505 11.4814 28.5498 12.015 28.0163C12.5486 27.4827 12.8493 26.7597 12.8515 26.0051V21.3163H7.99785C6.13127 23.4823 3.71311 25.1026 1 26.0051Z" fill="#4298FF" fill-opacity="0.2"/>
<path id="Vector_2" d="M11.8564 0H1.77997C0.814561 0 0 0.784392 0 1.77997V11.8564C0 12.8218 0.784392 13.6364 1.77997 13.6364H11.8564C12.8218 13.6364 13.6364 12.852 13.6364 11.8564V1.77997C13.6364 0.784392 12.8218 0 11.8564 0ZM11.5245 11.4944H2.142V2.11183H11.5245V11.4944Z" fill="#4298FF"/>
<path id="Vector_3" d="M11.8564 15.4546H1.77997C0.814561 15.4546 0 16.2913 0 17.3532V28.1014C0 29.1312 0.784392 30 1.77997 30H11.8564C12.8218 30 13.6364 29.1634 13.6364 28.1014V17.3532C13.6364 16.2913 12.8218 15.4546 11.8564 15.4546V15.4546ZM11.5245 27.7152H2.142V17.7072H11.5245V27.7152Z" fill="#4298FF"/>
<path id="Vector_4" d="M28.9441 9.2317C28.3709 9.2317 27.8882 9.7144 27.8882 10.2876V11.4944H18.5056V2.11183H19.6822C20.2554 2.11183 20.7381 1.62912 20.7381 1.05591C20.7381 0.482703 20.2554 0 19.6822 0H18.1436C17.1782 0 16.3636 0.784392 16.3636 1.77997V11.8564C16.3636 12.8218 17.148 13.6364 18.1436 13.6364H28.22C29.1855 13.6364 30 12.852 30 11.8564V10.2876C30 9.7144 29.5173 9.2317 28.9441 9.2317V9.2317Z" fill="#4298FF"/>
<path id="Vector_5" d="M28.1818 5.90905C28.1818 6.2707 28.2776 6.61755 28.4481 6.87328C28.6186 7.12901 28.8498 7.27268 29.0909 7.27268C29.332 7.27268 29.5633 7.12901 29.7337 6.87328C29.9042 6.61755 30 6.2707 30 5.90905C30 5.54739 29.9042 5.20054 29.7337 4.94481C29.5633 4.68908 29.332 4.54541 29.0909 4.54541C28.8498 4.54541 28.6186 4.68908 28.4481 4.94481C28.2776 5.20054 28.1818 5.54739 28.1818 5.90905Z" fill="#4298FF"/>
<path id="Vector_6" d="M28.1818 1.36364C28.1818 1.7253 28.2776 2.07214 28.4481 2.32787C28.6186 2.5836 28.8498 2.72727 29.0909 2.72727C29.332 2.72727 29.5633 2.5836 29.7337 2.32787C29.9042 2.07214 30 1.7253 30 1.36364C30 1.00198 29.9042 0.655131 29.7337 0.3994C29.5633 0.143668 29.332 0 29.0909 0C28.8498 0 28.6186 0.143668 28.4481 0.3994C28.2776 0.655131 28.1818 1.00198 28.1818 1.36364Z" fill="#4298FF"/>
<path id="Vector_7" d="M23.6364 1.36364C23.6364 1.72529 23.7321 2.07214 23.9026 2.32787C24.0731 2.5836 24.3043 2.72727 24.5454 2.72727C24.7865 2.72727 25.0178 2.5836 25.1883 2.32787C25.3588 2.07214 25.4545 1.72529 25.4545 1.36364C25.4545 1.00198 25.3588 0.655131 25.1883 0.3994C25.0178 0.143668 24.7865 0 24.5454 0C24.3043 0 24.0731 0.143668 23.9026 0.3994C23.7321 0.655131 23.6364 1.00198 23.6364 1.36364V1.36364Z" fill="#4298FF"/>
<path id="Vector_8" d="M28.9299 15.4546H17.4338C16.8528 15.4546 16.3636 15.9826 16.3636 16.6097C16.3636 17.2368 16.8528 17.7648 17.4338 17.7648H27.8598V24.2995C27.8598 24.9265 28.349 25.4546 28.9299 25.4546C29.5108 25.4546 30 24.9265 30 24.2995V16.6097C30 15.9826 29.5108 15.4546 28.9299 15.4546Z" fill="#4298FF"/>
<path id="Vector_9" d="M28.9299 28.0221H18.5039V22.0198C18.5039 21.4662 18.0147 21 17.4338 21C16.8528 21 16.3636 21.4662 16.3636 22.0198V29.0711C16.3636 29.6247 16.8528 30.0909 17.4338 30.0909H28.9299C29.5108 30.0909 30 29.6247 30 29.0711C30 28.5175 29.5108 28.0221 28.9299 28.0221V28.0221Z" fill="#4298FF"/>
<path id="Vector_10" d="M24.4348 25.4545C24.9884 25.4545 25.4546 24.8727 25.4546 24.1818V21.2727C25.4546 20.5818 24.9884 20 24.4348 20C23.8811 20 23.4149 20.5818 23.4149 21.2727V22.9091H21.9289C21.3753 22.9091 20.9091 23.4909 20.9091 24.1818C20.9091 24.8727 21.3753 25.4545 21.9289 25.4545H24.4348Z" fill="#ED8C53"/>
</g>
</svg>
