<svg width="88" height="88" viewBox="0 0 88 88" fill="none" xmlns="http://www.w3.org/2000/svg">
<path d="M24.8 72C23.2536 72 22 70.7464 22 69.2V18.8C22 17.2536 23.2536 16 24.8 16H64C65.5464 16 66.8 17.2536 66.8 18.8V69.2C66.8 70.7464 65.5464 72 64 72H24.8Z" stroke="#4298FF" stroke-width="4" stroke-linejoin="round"/>
<path fill-rule="evenodd" clip-rule="evenodd" d="M31.1641 35.3455V16H43.3822V35.3455L37.2732 28.6039L31.1641 35.3455Z" stroke="#4298FF" stroke-width="4" stroke-linecap="round" stroke-linejoin="round"/>
<path d="M51.2059 43.7536H60.6259V46.6936H39.7759V61.0936L38.3059 64.3636H34.1659L35.6359 61.0936V59.1436L34.1659 59.8036V54.9136L35.6359 54.2536V51.5836L34.1659 50.9236V46.0336L35.6359 46.6636V43.7536H46.3159L45.8659 42.7036H50.7559L51.2059 43.7536ZM58.1959 52.2136C58.1959 52.3736 58.2559 52.5236 58.3759 52.6636C58.5159 52.7836 58.6759 52.8436 58.8559 52.8436H60.7459L59.8459 54.8536H56.9659C56.3259 54.8536 55.7859 54.6436 55.3459 54.2236C54.9259 53.7836 54.7159 53.2436 54.7159 52.6036V50.4136H44.9959V52.0336L43.9159 54.5236H40.1059L41.2159 52.0336V47.6236H42.8659H44.9959H54.7159H56.2759H58.1959V52.2136ZM60.0259 57.3436C59.0659 58.2236 58.0959 58.9936 57.1159 59.6536C56.1559 60.3136 55.1759 60.8936 54.1759 61.3936C55.2559 61.5736 56.2859 61.7136 57.2659 61.8136C58.2459 61.8936 59.1559 61.9536 59.9959 61.9936V64.3936C58.6759 64.3936 57.1559 64.3336 55.4359 64.2136C53.7159 64.0936 51.8559 63.7236 49.8559 63.1036C48.8359 63.4236 47.8559 63.6736 46.9159 63.8536C45.9759 64.0136 45.1059 64.1336 44.3059 64.2136C43.5259 64.2936 42.8259 64.3436 42.2059 64.3636C41.6059 64.3836 41.1159 64.3936 40.7359 64.3936V61.9936C41.4759 61.9536 42.2659 61.8936 43.1059 61.8136C43.9659 61.7136 44.8459 61.5736 45.7459 61.3936C44.8659 60.9336 43.9859 60.4036 43.1059 59.8036C42.2459 59.2036 41.3659 58.5136 40.4659 57.7336H44.6959C45.4959 58.3136 46.3259 58.8136 47.1859 59.2336C48.0659 59.6536 48.9559 60.0136 49.8559 60.3136C50.8759 59.9736 51.8759 59.5536 52.8559 59.0536C53.8359 58.5336 54.7559 57.9236 55.6159 57.2236H40.4359V55.2136H60.0259V56.2036V57.2236V57.3436Z" fill="#FFA143"/>
<path d="M24.8008 16H64.0008" stroke="#4298FF" stroke-width="4" stroke-linecap="round" stroke-linejoin="round"/>
<path d="M64.2781 21.0909C64.6825 23.115 64.8859 25.1715 64.8854 27.2325C64.8854 45.8949 48.4056 61.0239 28.0766 61.0239C26.7271 61.0239 25.3784 60.9564 24.0361 60.8217V68.3002C24.0361 70.3351 25.8497 72 28.0664 72H60.3802C61.2232 72 62.058 71.8405 62.8368 71.5306C63.6157 71.2207 64.3234 70.7665 64.9195 70.1939C65.5156 69.6213 65.9885 68.9415 66.3111 68.1934C66.6337 67.4453 66.7998 66.6434 66.7998 65.8337V24.5194C66.7998 22.9735 65.7527 21.6421 64.2781 21.0909Z" fill="#4298FF" fill-opacity="0.2"/>
</svg>
