<svg width="50" height="50" viewBox="0 0 50 50" fill="none" xmlns="http://www.w3.org/2000/svg">
<path d="M50 47.5C50 48.8806 48.8806 50 47.5 50H2.5C1.11924 50 0 48.8806 0 47.5V2.5C0 1.11924 1.11924 0 2.5 0H47.5C48.8806 0 50 1.11924 50 2.5V47.5ZM47.5 5C47.5 3.61929 46.3806 2.5 45 2.5H5C3.61938 2.5 2.5 3.61929 2.5 5V45C2.5 46.3806 3.61938 47.5 5 47.5H45C46.3806 47.5 47.5 46.3806 47.5 45V5Z" fill="url(#paint0_linear_58_2885)"/>
<path d="M37.5 25C37.5 25.6904 36.9404 26.25 36.25 26.25H26.25V36.4637C26.25 37.0359 25.6904 37.5 25 37.5C24.3096 37.5 23.75 37.0359 23.75 36.4637V26.25H13.75C13.0596 26.25 12.5 25.6904 12.5 25C12.5 24.3096 13.0596 23.75 13.75 23.75H23.75V13.5364C23.75 12.9639 24.3096 12.5 25 12.5C25.6904 12.5 26.25 12.9639 26.25 13.5364V23.75H36.25C36.9404 23.75 37.5 24.3096 37.5 25Z" fill="url(#paint1_linear_58_2885)"/>
<defs>
<linearGradient id="paint0_linear_58_2885" x1="25" y1="0" x2="25" y2="50" gradientUnits="userSpaceOnUse">
<stop stop-color="#66ACFF"/>
<stop offset="0.9999" stop-color="#3683FF"/>
<stop offset="1" stop-color="#4298FF"/>
</linearGradient>
<linearGradient id="paint1_linear_58_2885" x1="25" y1="12.5" x2="25" y2="37.5" gradientUnits="userSpaceOnUse">
<stop stop-color="#66ACFF"/>
<stop offset="0.9999" stop-color="#3683FF"/>
<stop offset="1" stop-color="#4298FF"/>
</linearGradient>
</defs>
</svg>
