<svg width="36" height="36" viewBox="0 0 36 36" fill="none" xmlns="http://www.w3.org/2000/svg">
<path d="M0 18C0 8.05888 8.05888 0 18 0C27.9411 0 36 8.05888 36 18C36 27.9411 27.9411 36 18 36C8.05888 36 0 27.9411 0 18Z" fill="white"/>
<path d="M0 18C0 8.05888 8.05888 0 18 0C27.9411 0 36 8.05888 36 18C36 27.9411 27.9411 36 18 36C8.05888 36 0 27.9411 0 18Z" fill="#E6F1FF"/>
<path d="M27 9.81836H9C8.56601 9.81836 8.14979 9.99076 7.84291 10.2976C7.53604 10.6045 7.36363 11.0207 7.36363 11.4547V24.5456C7.36363 24.9796 7.53604 25.3958 7.84291 25.7027C8.14979 26.0096 8.56601 26.182 9 26.182H27C27.434 26.182 27.8502 26.0096 28.1571 25.7027C28.464 25.3958 28.6364 24.9796 28.6364 24.5456V11.4547C28.6364 11.0207 28.464 10.6045 28.1571 10.2976C27.8502 9.99076 27.434 9.81836 27 9.81836ZM9 11.4547H27V24.5456H9V11.4547Z" fill="#4298FF"/>
<path d="M20.5838 13.8974C22.2218 13.8974 23.3374 14.5695 23.888 15.7158C24.2521 16.4739 24.3225 17.3317 24.2206 18.075C24.1265 18.7685 23.8688 19.4504 23.4638 20.0109L23.4421 20.0395L25.5232 21.8452C25.6471 21.9527 25.7484 22.0837 25.8215 22.2306C25.8945 22.3775 25.9377 22.5374 25.9486 22.701L25.9519 22.7837V24.5338C25.9529 24.7461 25.8712 24.9504 25.7243 25.1037C25.5774 25.2569 25.3766 25.3471 25.1644 25.355C24.9523 25.363 24.7453 25.2882 24.5873 25.1464C24.4293 25.0046 24.3326 24.8069 24.3176 24.5951L24.3155 24.5338L24.3151 22.9637L21.7195 20.7112C21.6315 20.635 21.5609 20.5408 21.5122 20.4351C21.4636 20.3293 21.4381 20.2144 21.4374 20.098C21.4367 19.9816 21.4608 19.8664 21.5082 19.7601C21.5556 19.6538 21.6251 19.5588 21.7121 19.4815L21.764 19.4389C22.2026 19.1096 22.5127 18.4923 22.5994 17.8541C22.6616 17.3996 22.6162 16.8478 22.4129 16.424C22.1404 15.8565 21.6045 15.5338 20.5838 15.5338C19.5848 15.5338 19.0735 15.8643 18.8125 16.4579C18.6218 16.8907 18.5846 17.4074 18.6333 17.8807C18.682 18.35 18.999 19.0274 19.375 19.3649L19.4416 19.4205C19.5329 19.491 19.6082 19.5801 19.6627 19.6817C19.7171 19.7834 19.7494 19.8954 19.7575 20.0104C19.7657 20.1255 19.7494 20.2409 19.7097 20.3492C19.6701 20.4575 19.608 20.5562 19.5275 20.6388L19.4789 20.6846L16.8664 22.9625V24.5338C16.8665 24.7402 16.7885 24.939 16.6482 25.0904C16.5078 25.2417 16.3154 25.3344 16.1096 25.3499L16.0482 25.352C15.8419 25.3519 15.6432 25.2739 15.4919 25.1336C15.3406 24.9932 15.248 24.8009 15.2325 24.5951L15.2305 24.5338V22.7829C15.2305 22.4515 15.363 22.1353 15.5962 21.9029L15.6567 21.8464L17.7717 20.0023L17.7635 19.9908C17.37 19.432 17.1029 18.7554 17.019 18.1593L17.0055 18.0484C16.9302 17.3182 16.9859 16.5455 17.3144 15.7989C17.838 14.6084 18.9389 13.8974 20.5838 13.8974Z" fill="#4298FF"/>
<path d="M15.5455 13.5002V14.3184C15.5455 14.5354 15.4593 14.7435 15.3058 14.8969C15.1524 15.0503 14.9443 15.1365 14.7273 15.1365H10.6364C10.4194 15.1365 10.2113 15.0503 10.0578 14.8969C9.90438 14.7435 9.81818 14.5354 9.81818 14.3184V13.5002H15.5455Z" fill="#4298FF"/>
</svg>
