<svg width="36" height="36" viewBox="0 0 36 36" fill="none" xmlns="http://www.w3.org/2000/svg">
<path d="M0 18C0 8.05888 8.05888 0 18 0C27.9411 0 36 8.05888 36 18C36 27.9411 27.9411 36 18 36C8.05888 36 0 27.9411 0 18Z" fill="white"/>
<path d="M0 18C0 8.05888 8.05888 0 18 0C27.9411 0 36 8.05888 36 18C36 27.9411 27.9411 36 18 36C8.05888 36 0 27.9411 0 18Z" fill="#E6F1FF"/>
<path d="M18 9C13.0339 9 9 13.0339 9 18C9 22.9661 13.0339 27 18 27C22.9661 27 27 22.9661 27 18C27 13.0339 22.9661 9 18 9ZM18 25.7143C13.7411 25.7143 10.2857 22.2589 10.2857 18C10.2857 13.7411 13.7411 10.2857 18 10.2857C22.2589 10.2857 25.7143 13.7411 25.7143 18C25.7143 22.2589 22.2589 25.7143 18 25.7143ZM12.8571 23.1429C13.0018 22.9982 20.0089 20.0089 20.0089 20.0089C20.0089 20.0089 22.9821 13.0018 23.1268 12.8571C23.2714 12.7125 15.975 15.975 15.975 15.975C15.975 15.975 12.7768 23.1429 12.8571 23.1429ZM18.8036 19.0125C18.2732 19.2375 15.5732 20.475 15.4768 20.5232C15.75 19.9286 16.6018 17.7589 16.8911 17.1L18.8036 19.0125Z" fill="#4298FF"/>
</svg>
