<svg width="25" height="24" viewBox="0 0 25 24" fill="none" xmlns="http://www.w3.org/2000/svg">
<path d="M8.82074 12.9991C8.80825 13.0151 8.79575 13.0318 8.79019 13.0519L7.82681 16.5839C7.77054 16.7896 7.8282 17.0111 7.98033 17.1674C8.09425 17.2785 8.24427 17.3396 8.40403 17.3396C8.45681 17.3396 8.5096 17.3334 8.56169 17.3195L12.0687 16.363C12.0743 16.363 12.077 16.3679 12.0812 16.3679C12.1215 16.3679 12.1611 16.3533 12.191 16.3227L21.5686 6.94643C21.8472 6.66757 22 6.28762 22 5.87434C22 5.40584 21.8013 4.9377 21.4533 4.59073L20.5677 3.70374C20.2204 3.35573 19.7515 3.15674 19.2834 3.15674C18.8701 3.15674 18.4902 3.30956 18.2109 3.58773L8.83463 12.9665C8.82494 12.9755 8.8277 12.9887 8.82074 12.9991ZM20.651 6.02819L19.7196 6.95898L18.2095 5.42495L19.1278 4.50669C19.273 4.36084 19.5543 4.38204 19.721 4.5494L20.6072 5.43642C20.6997 5.5288 20.7524 5.65172 20.7524 5.77327C20.7518 5.87297 20.7163 5.96327 20.651 6.02819ZM10.4885 13.1464L17.2552 6.37931L18.7659 7.91437L12.0117 14.6682L10.4885 13.1464ZM9.25557 15.89L9.74455 14.0952L11.049 15.3997L9.25557 15.89Z" fill="#4298FF"/>
<path d="M21.245 9.74373C20.89 9.74373 20.599 10.0323 20.5977 10.3921V19.1339C20.5977 19.5923 20.2253 19.9646 19.7662 19.9646H4.97834C4.51991 19.9646 4.1462 19.5924 4.1462 19.1339V4.86561C4.1462 4.4068 4.51991 4.03416 4.97834 4.03416H14.5026C14.8596 4.03416 15.1493 3.7442 15.1493 3.38713C15.1493 3.03083 14.8596 2.74048 14.5026 2.74048H4.87972C3.76212 2.74048 2.85254 3.64937 2.85254 4.76766V19.2326C2.85254 20.3508 3.76212 21.2594 4.87972 21.2594H19.8641C20.9824 21.2594 21.8917 20.3508 21.8917 19.2326V10.388C21.8902 10.0323 21.5999 9.74373 21.245 9.74373Z" fill="#4298FF"/>
</svg>
