<svg width="36" height="36" viewBox="0 0 36 36" fill="none" xmlns="http://www.w3.org/2000/svg">
<path d="M0 18C0 8.05888 8.05888 0 18 0C27.9411 0 36 8.05888 36 18C36 27.9411 27.9411 36 18 36C8.05888 36 0 27.9411 0 18Z" fill="white"/>
<path d="M0 18C0 8.05888 8.05888 0 18 0C27.9411 0 36 8.05888 36 18C36 27.9411 27.9411 36 18 36C8.05888 36 0 27.9411 0 18Z" fill="#E6F1FF"/>
<path fill-rule="evenodd" clip-rule="evenodd" d="M18 18.0002C15.7406 18.0002 13.9091 16.1686 13.9091 13.9093C13.9091 11.6499 15.7406 9.81836 18 9.81836C20.2593 9.81836 22.0909 11.6499 22.0909 13.9093C22.0909 16.1686 20.2593 18.0002 18 18.0002ZM25.3636 25.3638V23.7275C25.3636 21.4681 23.5321 19.6365 21.2727 19.6365H14.7273C12.4679 19.6365 10.6364 21.4681 10.6364 23.7275V25.3638C10.6364 25.8157 11.0027 26.182 11.4545 26.182C11.9064 26.182 12.2727 25.8157 12.2727 25.3638V23.7275C12.2727 22.3718 13.3717 21.2729 14.7273 21.2729H21.2727C22.6283 21.2729 23.7273 22.3718 23.7273 23.7275V25.3638C23.7273 25.8157 24.0936 26.182 24.5455 26.182C24.9973 26.182 25.3636 25.8157 25.3636 25.3638ZM20.4545 13.9093C20.4545 15.2649 19.3556 16.3638 18 16.3638C16.6444 16.3638 15.5455 15.2649 15.5455 13.9093C15.5455 12.5537 16.6444 11.4547 18 11.4547C19.3556 11.4547 20.4545 12.5537 20.4545 13.9093Z" fill="#4298FF"/>
</svg>
