<svg xmlns="http://www.w3.org/2000/svg" xmlns:xlink="http://www.w3.org/1999/xlink" width="25" height="25" viewBox="0 0 25 25"><defs><style>.a{stroke:rgba(0,0,0,0);stroke-miterlimit:10;fill:url(#a);}</style><linearGradient id="a" x1="0.5" x2="0.5" y2="1" gradientUnits="objectBoundingBox"><stop offset="0" stop-color="#90e3b1"/><stop offset="1" stop-color="#58aa6c"/></linearGradient></defs><path class="a" d="M103.374,102.641a1.734,1.734,0,0,0,1.492-1.9V98.6a1.536,1.536,0,1,0-2.984,0v2.137A1.736,1.736,0,0,0,103.374,102.641Zm12.768,0a1.734,1.734,0,0,0,1.492-1.9V98.6a1.777,1.777,0,0,0-1.55-1.9c-.824,0-1.437.85-1.437,1.9v2.137A1.74,1.74,0,0,0,116.142,102.641Zm4.96-1.923a1.541,1.541,0,0,0-1.622-1.743h-.824s0,1.743,0,3.039a1.238,1.238,0,0,1-1.223,1.31s-1.191,0-2.53,0a1.213,1.213,0,0,1-1.275-1.3V98.975h-7.664V102a1.239,1.239,0,0,1-1.27,1.327s-1.27,0-2.51,0S100.922,102,100.922,102V98.975h-.836c-1.591,0-1.686,1.738-1.686,1.738s0,2.316,0,5.233h22.7Zm-3.467,8.688a5.947,5.947,0,0,1,3.476,1.125l0-3.293H98.4v10.267a1.686,1.686,0,0,0,1.689,1.743h12.432a6.483,6.483,0,0,1-1.015-3.49A6.252,6.252,0,0,1,117.634,109.407Zm-8.644,6.352h-7.606v-1.587h7.606Zm0-3.97h-7.606V110.2h7.606Zm8.644-.971a4.944,4.944,0,1,0,4.766,4.941A4.861,4.861,0,0,0,117.634,110.818Zm2.574,5.609h-3.219V113.09h1.287v2h1.929v1.336Z" transform="translate(-97.9 -96.2)"/></svg>