<svg width="66" height="66" viewBox="0 0 66 66" fill="none" xmlns="http://www.w3.org/2000/svg">
<path d="M0 33C0 14.7746 14.7746 0 33 0V0C51.2254 0 66 14.7746 66 33V33C66 51.2254 51.2254 66 33 66V66C14.7746 66 0 51.2254 0 33V33Z" fill="white"/>
<path d="M0 33C0 14.7746 14.7746 0 33 0V0C51.2254 0 66 14.7746 66 33V33C66 51.2254 51.2254 66 33 66V66C14.7746 66 0 51.2254 0 33V33Z" fill="#4298FF" fill-opacity="0.02"/>
<path d="M42.1 27.9301C41.216 27.9301 40.514 27.2281 40.514 26.3441C40.514 25.4601 41.216 24.7581 42.1 24.7581C42.984 24.7581 43.686 25.4601 43.686 26.3441C43.686 27.2281 42.984 27.9301 42.1 27.9301V27.9301Z" fill="#F68282"/>
<path d="M34.924 44.154H13.578C12.824 44.154 12.2 43.53 12.2 42.776C12.2 42.022 12.824 41.3979 13.578 41.3979H34.924C35.678 41.3979 36.302 42.022 36.302 42.776C36.302 43.53 35.678 44.154 34.924 44.154V44.154Z" fill="#E3EEFF"/>
<path d="M34.326 49.016H34.04C32.038 49.016 30.426 47.9239 30.426 46.5979C30.426 45.2459 32.038 44.1799 34.04 44.1799H34.326V41.45H15.58V44.1799H22.418C24.42 44.1799 26.032 45.272 26.032 46.5979C26.032 47.95 24.42 49.016 22.418 49.016H15.58V51.7459H34.326V49.016V49.016Z" fill="#E3EEFF"/>
<path d="M35.444 37.264C35.444 36.77 34.846 36.354 34.118 36.354H20.702C19.948 36.354 19.35 36.77 19.35 37.264C19.35 37.758 19.948 38.174 20.702 38.174H26.162C27.488 38.174 28.58 38.902 28.58 39.786C28.58 40.67 27.514 41.398 26.162 41.398H21.612V43.218H34.118V41.398H33.91C32.584 41.398 31.492 40.67 31.492 39.786C31.492 38.902 32.558 38.174 33.91 38.174H34.118C34.872 38.148 35.444 37.758 35.444 37.264ZM42.958 49.016H14.228C13.11 49.016 12.2 49.64 12.2 50.394C12.2 51.148 13.11 51.772 14.228 51.772H42.958V49.016V49.016ZM43.686 49.016H45.402V51.746H43.686V49.016ZM47.508 49.016H48.626V51.746H47.508V49.016ZM51.772 49.016H49.198V51.746H51.772C52.89 51.746 53.8 51.122 53.8 50.368C53.8 49.614 52.89 49.016 51.772 49.016Z" fill="#E3EEFF"/>
<path d="M39.994 14.2539C39.994 15.0599 39.448 15.7359 38.746 15.7359C39.422 15.7359 39.994 16.3859 39.994 17.2179C39.994 16.4119 40.54 15.7359 41.242 15.7359C40.566 15.7099 39.994 15.0599 39.994 14.2539Z" fill="#76A6EF"/>
<path d="M19.61 23.3539C19.298 23.3539 18.986 23.2499 18.752 23.0419C18.492 22.8079 18.31 22.4959 18.284 22.1319C18.232 21.4039 18.752 20.7539 19.506 20.7019C19.87 20.6759 20.208 20.7799 20.468 21.0139C20.728 21.2479 20.91 21.5599 20.936 21.9239C20.962 22.2879 20.858 22.6259 20.624 22.8859C20.39 23.1459 20.078 23.3279 19.714 23.3539H19.61V23.3539ZM19.61 21.0139H19.532C18.986 21.0659 18.57 21.5599 18.622 22.1059C18.674 22.6519 19.168 23.0679 19.714 23.0159C19.974 22.9899 20.234 22.8599 20.39 22.6519C20.572 22.4439 20.65 22.1839 20.624 21.9239C20.572 21.4299 20.13 21.0139 19.61 21.0139V21.0139ZM35.314 27.0199C35.106 27.0199 34.898 26.9419 34.716 26.8119C34.534 26.6559 34.404 26.4219 34.378 26.1879C34.352 25.9539 34.43 25.6939 34.586 25.5119C34.742 25.3299 34.976 25.1999 35.21 25.1739C35.444 25.1479 35.704 25.2259 35.886 25.3819C36.068 25.5379 36.198 25.7719 36.224 26.0059C36.276 26.5259 35.886 26.9679 35.392 26.9939C35.366 27.0199 35.34 27.0199 35.314 27.0199V27.0199ZM35.314 25.4859H35.262C35.106 25.5119 34.95 25.5639 34.872 25.6939C34.768 25.8239 34.716 25.9799 34.742 26.1359C34.768 26.2919 34.82 26.4479 34.95 26.5259C35.08 26.6299 35.236 26.6819 35.392 26.6559C35.704 26.6299 35.964 26.3439 35.938 26.0059C35.912 25.8499 35.86 25.6939 35.73 25.6159C35.574 25.5379 35.444 25.4859 35.314 25.4859Z" fill="#82A0F6"/>
<path d="M28.32 21.4299C28.216 21.4299 28.164 21.3519 28.164 21.2739V20.2599L27.436 20.9879C27.384 21.0399 27.254 21.0399 27.202 20.9879C27.15 20.9359 27.15 20.8059 27.202 20.7539L27.93 20.0259H26.916C26.812 20.0259 26.76 19.9479 26.76 19.8699C26.76 19.7659 26.838 19.7139 26.916 19.7139H27.93L27.202 18.9599C27.15 18.9079 27.15 18.7779 27.202 18.7259C27.254 18.6739 27.384 18.6739 27.436 18.7259L28.164 19.4539V18.4399C28.164 18.3359 28.242 18.2839 28.32 18.2839C28.424 18.2839 28.476 18.3619 28.476 18.4399V19.4539L29.204 18.7259C29.256 18.6739 29.386 18.6739 29.438 18.7259C29.49 18.7779 29.49 18.9079 29.438 18.9599L28.71 19.6879H29.724C29.828 19.6879 29.88 19.7659 29.88 19.8439C29.88 19.9479 29.802 19.9999 29.724 19.9999H28.71L29.438 20.7279C29.49 20.7799 29.49 20.9099 29.438 20.9619C29.386 21.0139 29.256 21.0139 29.204 20.9619L28.502 20.2599V21.2739C28.502 21.3519 28.424 21.4299 28.32 21.4299Z" fill="#82A0F6"/>
<path d="M31.7 28.398C31.622 28.398 31.57 28.346 31.57 28.268V27.514L31.05 28.034C30.998 28.086 30.92 28.086 30.868 28.034C30.816 27.982 30.816 27.904 30.868 27.852L31.388 27.306H30.66C30.582 27.306 30.53 27.254 30.53 27.176C30.53 27.098 30.582 27.046 30.66 27.046H31.414L30.894 26.526C30.842 26.474 30.842 26.396 30.894 26.344C30.946 26.292 31.024 26.292 31.076 26.344L31.596 26.864V26.11C31.596 26.032 31.648 25.98 31.726 25.98C31.804 25.98 31.856 26.032 31.856 26.11V26.864L32.376 26.344C32.428 26.292 32.506 26.292 32.558 26.344C32.61 26.396 32.61 26.474 32.558 26.526L32.038 27.046H32.792C32.87 27.046 32.922 27.098 32.922 27.176C32.922 27.254 32.87 27.306 32.792 27.306H32.038L32.558 27.852C32.61 27.904 32.61 27.982 32.558 28.034C32.506 28.086 32.428 28.086 32.376 28.034L31.856 27.514V28.268C31.83 28.32 31.778 28.398 31.7 28.398V28.398Z" fill="#82A0F6"/>
<path d="M19.844 16.2041H18.44C18.336 16.2041 18.284 16.1261 18.284 16.0481C18.284 15.9441 18.362 15.8921 18.44 15.8921H19.818C19.922 15.8921 19.974 15.9701 19.974 16.0481C20 16.1261 19.922 16.2041 19.844 16.2041Z" fill="#2B77EF"/>
<path d="M19.142 16.8799C19.038 16.8799 18.986 16.8019 18.986 16.7239V15.3459C18.986 15.2419 19.064 15.1899 19.142 15.1899C19.246 15.1899 19.298 15.2679 19.298 15.3459V16.7239C19.298 16.8019 19.22 16.8799 19.142 16.8799ZM51.044 37.5239H49.666C49.562 37.5239 49.51 37.4459 49.51 37.3679C49.51 37.2639 49.588 37.2119 49.666 37.2119H51.044C51.148 37.2119 51.2 37.2899 51.2 37.3679C51.226 37.4459 51.148 37.5239 51.044 37.5239Z" fill="#2B77EF"/>
<path d="M50.368 38.2259C50.264 38.2259 50.212 38.1479 50.212 38.0699V36.6919C50.212 36.5879 50.29 36.5359 50.368 36.5359C50.472 36.5359 50.524 36.6139 50.524 36.6919V38.0699C50.524 38.1479 50.446 38.2259 50.368 38.2259Z" fill="#2B77EF"/>
<path d="M14.618 29.386C14.618 30.192 14.072 30.868 13.37 30.868C14.046 30.868 14.618 31.518 14.618 32.35C14.618 31.544 15.164 30.868 15.866 30.868C15.164 30.842 14.618 30.192 14.618 29.386Z" fill="#76A6EF"/>
<path d="M14.176 45.2459C13.76 45.2459 13.422 44.9079 13.422 44.4919C13.422 44.0759 13.76 43.7379 14.176 43.7379C14.592 43.7379 14.93 44.0759 14.93 44.4919C14.93 44.9079 14.592 45.2459 14.176 45.2459ZM14.176 44.0759C13.942 44.0759 13.76 44.2579 13.76 44.4919C13.76 44.7259 13.942 44.9079 14.176 44.9079C14.41 44.9079 14.592 44.7259 14.592 44.4919C14.592 44.2579 14.41 44.0759 14.176 44.0759ZM50.368 45.2459C49.952 45.2459 49.614 44.9079 49.614 44.4919C49.614 44.0759 49.952 43.7379 50.368 43.7379C50.784 43.7379 51.122 44.0759 51.122 44.4919C51.122 44.9079 50.784 45.2459 50.368 45.2459ZM50.368 44.0759C50.134 44.0759 49.952 44.2579 49.952 44.4919C49.952 44.7259 50.134 44.9079 50.368 44.9079C50.602 44.9079 50.784 44.7259 50.784 44.4919C50.784 44.2579 50.602 44.0759 50.368 44.0759ZM47.924 32.7919C47.352 32.7919 46.91 32.3239 46.91 31.7779C46.91 31.2059 47.378 30.7639 47.924 30.7639C48.496 30.7639 48.938 31.2319 48.938 31.7779C48.938 32.3499 48.47 32.7919 47.924 32.7919ZM47.924 31.1019C47.534 31.1019 47.248 31.4139 47.248 31.7779C47.248 32.1419 47.56 32.4539 47.924 32.4539C48.314 32.4539 48.6 32.1419 48.6 31.7779C48.6 31.4139 48.288 31.1019 47.924 31.1019Z" fill="#82A0F6"/>
<path d="M26.578 28.7621V35.3401C26.058 35.4441 25.616 35.3401 25.252 34.2741C24.732 32.7401 22.132 30.9721 20.416 29.9321L26.11 28.3981C26.344 28.3461 26.578 28.5281 26.578 28.7621V28.7621Z" fill="white"/>
<path d="M26.318 35.704C25.694 35.704 25.278 35.288 24.966 34.378C24.576 33.286 22.912 31.804 20.26 30.218C20.156 30.14 20.078 30.01 20.104 29.88C20.13 29.75 20.208 29.646 20.338 29.594L26.032 28.06C26.24 28.008 26.474 28.034 26.656 28.19C26.838 28.32 26.942 28.528 26.942 28.762V35.34C26.942 35.496 26.838 35.626 26.682 35.678C26.526 35.678 26.422 35.704 26.318 35.704V35.704ZM21.248 30.062C23.068 31.206 25.07 32.74 25.564 34.17C25.798 34.846 26.032 35.028 26.24 35.054V28.762C26.24 28.736 26.24 28.736 26.214 28.736H26.162L21.248 30.062Z" fill="#2B77EF"/>
<path d="M46.39 29.0741V45.2721C41.814 44.6741 37.446 36.8221 37.03 36.4321C36.978 36.3801 36.9 36.3541 36.822 36.3801V31.6221C36.822 31.4661 36.926 31.3101 37.108 31.2581L39.656 30.5301L42.1 34.6901L45.532 28.8401L45.922 28.7361C46.156 28.6581 46.39 28.8401 46.39 29.0741Z" fill="white"/>
<path d="M46.39 45.61H46.338C42.36 45.09 38.668 39.474 37.264 37.368C37.082 37.108 36.9 36.822 36.822 36.718C36.744 36.718 36.666 36.692 36.588 36.614C36.51 36.562 36.484 36.458 36.484 36.38V31.622C36.484 31.31 36.692 31.024 37.004 30.946L39.552 30.218C39.708 30.166 39.864 30.244 39.942 30.374L42.1 34.04L45.246 28.684C45.298 28.606 45.35 28.554 45.428 28.528L45.818 28.424C46.026 28.372 46.26 28.398 46.442 28.528C46.624 28.658 46.728 28.866 46.728 29.1V45.298C46.728 45.402 46.676 45.48 46.624 45.558C46.546 45.584 46.468 45.61 46.39 45.61ZM37.186 36.146C37.212 36.172 37.264 36.198 37.29 36.224C37.394 36.302 37.498 36.484 37.862 37.03C39.162 39.006 42.542 44.128 46.078 44.908V29.074C46.078 29.048 46.078 29.048 46.052 29.048H46L45.74 29.126L42.386 34.872C42.256 35.08 41.944 35.08 41.814 34.872L39.5 30.894L37.212 31.544C37.186 31.544 37.186 31.57 37.186 31.596V36.146Z" fill="#2B77EF"/>
<path d="M36.848 31.596V36.38C36.094 36.406 34.118 38.174 32.948 38.278C31.622 38.382 30.764 36.25 28.996 35.288C28.008 34.768 27.254 35.21 26.604 35.34V28.788C26.604 28.528 26.838 28.346 27.098 28.424L36.614 31.258C36.744 31.284 36.848 31.44 36.848 31.596V31.596Z" fill="white"/>
<path d="M32.844 38.6159C32.012 38.6159 31.362 37.9139 30.66 37.1859C30.14 36.6139 29.542 35.9899 28.814 35.5739C28.164 35.2099 27.618 35.3919 27.098 35.5479C26.942 35.5999 26.786 35.6259 26.656 35.6779C26.552 35.7039 26.448 35.6779 26.37 35.5999C26.292 35.5479 26.24 35.4439 26.24 35.3399V28.7879C26.24 28.5539 26.344 28.3459 26.526 28.2159C26.708 28.0859 26.942 28.0339 27.15 28.1119L36.666 30.9199C36.952 30.9979 37.186 31.2839 37.186 31.5959V36.3799C37.186 36.5619 37.03 36.7179 36.874 36.7179C36.614 36.7179 35.99 37.1079 35.444 37.4719C34.638 37.9919 33.702 38.5639 32.974 38.6159H32.844V38.6159ZM28.008 34.7159C28.346 34.7159 28.736 34.7939 29.126 35.0019C29.958 35.4439 30.582 36.1459 31.154 36.7439C31.778 37.4199 32.35 38.0179 32.922 37.9659C33.494 37.9139 34.352 37.3939 35.106 36.9259C35.73 36.5359 36.172 36.2499 36.536 36.1459V31.5959C36.536 31.5699 36.51 31.5699 36.51 31.5439L26.968 28.7359H26.916L26.89 28.7619V34.8719C27.228 34.8199 27.592 34.7159 28.008 34.7159ZM42.1 28.2679C41.034 28.2679 40.176 27.4099 40.176 26.3439C40.176 25.2779 41.034 24.4199 42.1 24.4199C43.166 24.4199 44.024 25.2779 44.024 26.3439C44.05 27.4099 43.166 28.2679 42.1 28.2679ZM42.1 25.0699C41.398 25.0699 40.826 25.6419 40.826 26.3439C40.826 27.0459 41.398 27.6179 42.1 27.6179C42.802 27.6179 43.374 27.0459 43.374 26.3439C43.374 25.6419 42.802 25.0699 42.1 25.0699ZM45.636 28.9699C45.584 28.9699 45.506 28.9439 45.454 28.9179C45.298 28.8139 45.246 28.6319 45.35 28.4759L45.558 28.1119C45.636 27.9559 45.844 27.9039 46 27.9819C46.156 28.0599 46.208 28.2679 46.13 28.4239C46.052 28.5539 46 28.6839 45.896 28.8139C45.844 28.9179 45.74 28.9699 45.636 28.9699ZM38.564 28.9699C38.46 28.9699 38.356 28.9179 38.278 28.8139C38.2 28.6839 38.122 28.5799 38.07 28.4499C37.992 28.2939 38.044 28.0859 38.2 28.0079C38.356 27.9299 38.564 27.9819 38.642 28.1379L38.85 28.4759C38.928 28.6319 38.902 28.8399 38.746 28.9179C38.694 28.9699 38.642 28.9699 38.564 28.9699Z" fill="#2B77EF"/>
<path d="M42.074 22.1321C39.864 22.1581 38.018 23.9001 37.888 26.0841C37.836 26.8641 38.018 27.6181 38.356 28.2681C38.356 28.2681 38.356 28.2941 38.382 28.2941L38.59 28.6321L39.682 30.5041L42.126 34.6641L45.532 28.8401L45.636 28.6581L45.844 28.2941V28.2681C46.156 27.6961 46.312 27.0461 46.312 26.3441C46.312 24.0041 44.414 22.1061 42.074 22.1321ZM41.84 24.7581C42.932 24.5761 43.868 25.5121 43.686 26.6041C43.582 27.2801 43.036 27.8001 42.386 27.9041C41.294 28.0861 40.358 27.1501 40.54 26.0581C40.644 25.4081 41.164 24.8881 41.84 24.7581Z" fill="#C7DDFF"/>
<path d="M40.8 30.5821L39.708 28.7101L39.5 28.3721C39.5 28.3721 39.5 28.3461 39.474 28.3461C39.136 27.6961 38.98 26.9421 39.006 26.1621C39.136 24.0561 40.826 22.3661 42.906 22.2101C42.62 22.1581 42.334 22.1321 42.048 22.1321C39.838 22.1581 37.992 23.9001 37.862 26.0841C37.81 26.8641 37.992 27.6181 38.33 28.2681C38.33 28.2681 38.33 28.2941 38.356 28.2941L38.564 28.6321L39.656 30.5041L42.1 34.6641L42.646 33.7281L40.8 30.5821Z" fill="white"/>
<path d="M42.074 22.1321C41.866 22.1321 41.684 22.1581 41.502 22.1841C43.556 22.4701 45.116 24.2381 45.116 26.3441C45.116 27.0461 44.96 27.6961 44.648 28.2681V28.2941L44.44 28.6581L44.336 28.8401L41.502 33.6501L42.1 34.6901L45.532 28.8401L45.636 28.6581L45.844 28.2941V28.2681C46.156 27.6961 46.312 27.0461 46.312 26.3441C46.312 24.0041 44.414 22.1061 42.074 22.1321Z" fill="#76A6EF"/>
<path d="M42.1 35.0019C41.97 35.0019 41.866 34.9499 41.814 34.8459L38.07 28.4759C38.07 28.4499 38.044 28.4499 38.044 28.4239C37.68 27.6959 37.498 26.8899 37.55 26.0579C37.68 23.6659 39.682 21.7939 42.074 21.7939H42.1C43.322 21.7939 44.44 22.2619 45.298 23.1199C46.156 23.9779 46.65 25.1219 46.65 26.3439C46.65 27.0719 46.468 27.7739 46.156 28.4239C46.156 28.4499 46.13 28.4499 46.13 28.4759L42.386 34.8459C42.334 34.9499 42.23 35.0019 42.1 35.0019ZM38.668 28.1379L39.968 30.3479L42.126 34.0139L45.584 28.1379V28.1119C45.87 27.5659 46.026 26.9679 46.026 26.3439C46.026 25.3039 45.61 24.3159 44.882 23.5879C44.154 22.8599 43.166 22.4699 42.152 22.4699H42.126C40.072 22.4699 38.382 24.0819 38.278 26.1099C38.2 26.8119 38.33 27.5139 38.668 28.1379ZM42.1 28.2679C41.58 28.2679 41.112 28.0599 40.748 27.6959C40.306 27.2539 40.098 26.6299 40.202 26.0059C40.332 25.1999 40.982 24.5499 41.788 24.4199C42.412 24.3159 43.036 24.5239 43.478 24.9659C43.92 25.4079 44.128 26.0319 44.024 26.6559C43.894 27.4619 43.244 28.1119 42.438 28.2419C42.334 28.2679 42.204 28.2679 42.1 28.2679ZM42.1 25.0699C42.022 25.0699 41.944 25.0699 41.892 25.0959C41.372 25.1739 40.956 25.6159 40.852 26.1359C40.774 26.5519 40.904 26.9679 41.216 27.2539C41.502 27.5399 41.918 27.6699 42.334 27.6179C42.854 27.5399 43.27 27.0979 43.374 26.5779C43.452 26.1619 43.322 25.7459 43.01 25.4599C42.776 25.1999 42.438 25.0699 42.1 25.0699Z" fill="#2B77EF"/>
<path d="M38.356 28.6319C38.278 28.6319 38.174 28.6059 38.122 28.5279C38.122 28.5279 38.096 28.5019 38.096 28.4759V28.4499C38.07 28.4239 38.07 28.3979 38.07 28.3719C38.044 28.2939 38.044 28.1899 38.096 28.1119C38.148 28.0079 38.252 27.9299 38.382 27.9299C38.512 27.9299 38.642 28.0339 38.694 28.1639C38.746 28.2939 38.694 28.4759 38.59 28.5539C38.486 28.6059 38.434 28.6319 38.356 28.6319V28.6319ZM45.844 28.6319C45.792 28.6319 45.74 28.6059 45.688 28.5799C45.532 28.5019 45.48 28.2939 45.558 28.1379C45.61 28.0079 45.74 27.9299 45.87 27.9299C46 27.9299 46.104 27.9819 46.156 28.0859C46.208 28.1899 46.208 28.3199 46.156 28.4239C46.078 28.5799 45.948 28.6319 45.844 28.6319Z" fill="#2B77EF"/>
<path d="M26.578 35.34V45.792C26.578 45.948 26.474 46.104 26.318 46.156L17.79 48.964C17.556 49.042 17.296 48.86 17.296 48.6L17.036 31.154C17.036 30.972 17.14 30.842 17.322 30.79L20.416 29.958C22.106 30.972 24.732 32.74 25.252 34.3C25.642 35.34 26.058 35.444 26.578 35.34Z" fill="#C7DDFF"/>
<path d="M25.278 34.2739C24.732 32.7399 22.132 30.9719 20.416 29.9319L19.298 30.2439C20.988 31.2839 23.38 32.9479 23.874 34.4039C24.238 35.4699 24.68 35.5739 25.2 35.4699V45.9219C25.2 46.0779 25.096 46.2339 24.94 46.2859L17.348 48.7819C17.426 48.9379 17.608 49.0159 17.79 48.9379L26.318 46.1299C26.474 46.0779 26.578 45.9219 26.578 45.7659V35.3399C26.058 35.4439 25.642 35.3399 25.278 34.2739V34.2739Z" fill="#76A6EF"/>
<path d="M18.96 31.3359C18.96 31.1539 18.934 30.9199 19.116 30.7899L19.922 30.3479C19.714 30.1919 19.896 30.2699 19.714 30.1399L17.27 30.9719C17.14 31.0239 17.036 31.1799 17.062 31.3359L17.27 48.7819C17.27 49.0419 17.478 49.2239 17.66 49.1459L19.194 48.5219L18.96 31.3359V31.3359Z" fill="white"/>
<path d="M17.686 49.3019C17.53 49.3019 17.4 49.2499 17.27 49.1719C17.088 49.0419 16.984 48.8339 16.984 48.5999L16.724 31.1539C16.724 30.8419 16.932 30.5299 17.244 30.4519L20.338 29.6199C20.416 29.5939 20.52 29.6199 20.598 29.6459C22.574 30.8159 25.018 32.5579 25.59 34.1439C25.928 35.1059 26.24 35.0539 26.526 35.0019C26.63 34.9759 26.734 35.0019 26.812 35.0799C26.89 35.1319 26.942 35.2359 26.942 35.3399V45.7919C26.942 46.1039 26.734 46.3639 26.448 46.4679L17.92 49.2759C17.816 49.2759 17.738 49.3019 17.686 49.3019V49.3019ZM20.364 30.2959L17.4 31.1019C17.374 31.1019 17.374 31.1279 17.374 31.1539L17.634 48.5999C17.634 48.6259 17.634 48.6259 17.66 48.6259H17.712L26.24 45.8179C26.266 45.8179 26.266 45.7919 26.266 45.7659V35.6779C25.668 35.6519 25.278 35.2359 24.966 34.3519C24.576 33.3119 22.964 31.8559 20.364 30.2959V30.2959Z" fill="#2B77EF"/>
<path d="M36.848 36.4061V48.6001C36.848 48.8601 36.614 49.0421 36.354 48.9641L26.838 46.1301C26.682 46.0781 26.578 45.9481 26.578 45.7661V35.3401C27.202 35.2101 27.982 34.7681 28.97 35.2881C30.738 36.2501 31.622 38.3821 32.922 38.2781C34.118 38.2001 36.094 36.4061 36.848 36.4061Z" fill="#C7DDFF"/>
<path d="M35.444 37.056V48.678L36.354 48.964C36.588 49.042 36.848 48.86 36.848 48.6V36.406C36.536 36.406 36.042 36.718 35.444 37.056V37.056Z" fill="#76A6EF"/>
<path d="M28.892 46.4681C28.736 46.4161 28.632 46.2861 28.632 46.1041V35.6521C28.84 35.6001 29.074 35.5221 29.308 35.4701C29.204 35.3921 29.1 35.3401 28.996 35.2881C28.008 34.7681 27.254 35.2101 26.604 35.3401V45.7921C26.604 45.9481 26.708 46.1041 26.864 46.1561L36.38 48.9901C36.536 49.0421 36.718 48.9641 36.796 48.8341L28.892 46.4681V46.4681Z" fill="white"/>
<path d="M46.39 45.298V45.402C46.39 45.558 46.286 45.714 46.13 45.766L37.342 48.938C37.108 49.016 36.848 48.834 36.848 48.574V36.406C36.926 36.406 37.004 36.432 37.056 36.458C37.472 36.822 41.814 44.7 46.39 45.298Z" fill="#C7DDFF"/>
<path d="M38.512 38.6159C37.706 37.4719 37.186 36.588 37.056 36.458C37.004 36.406 36.926 36.38 36.848 36.406V48.574C36.848 48.834 37.108 49.016 37.342 48.938L38.512 48.522V38.6159V38.6159Z" fill="white"/>
<path d="M37.056 36.458C37.004 36.406 36.926 36.38 36.848 36.406V39.292C38.356 41.528 41.268 45.48 44.388 46.416L46.156 45.792C46.312 45.74 46.416 45.584 46.416 45.428V45.324C41.814 44.7 37.472 36.822 37.056 36.458V36.458Z" fill="#76A6EF"/>
<path d="M36.484 49.302C36.406 49.302 36.354 49.302 36.276 49.276L26.76 46.468C26.474 46.39 26.24 46.104 26.24 45.792V35.34C26.24 35.184 26.344 35.054 26.5 35.002C26.63 34.976 26.76 34.95 26.89 34.898C27.462 34.742 28.216 34.508 29.1 35.002C29.932 35.444 30.556 36.146 31.128 36.744C31.752 37.42 32.324 38.018 32.896 37.966C33.468 37.914 34.326 37.394 35.08 36.926C35.912 36.406 36.432 36.094 36.848 36.094C36.952 36.094 37.03 36.12 37.082 36.198C37.134 36.25 37.186 36.354 37.186 36.432V48.6C37.186 48.834 37.082 49.042 36.9 49.172C36.77 49.276 36.614 49.302 36.484 49.302V49.302ZM26.916 35.6V45.792C26.916 45.818 26.942 45.818 26.942 45.844L36.458 48.678H36.51L36.536 48.652V36.9C36.224 37.03 35.834 37.29 35.444 37.524C34.638 38.044 33.702 38.616 32.974 38.668C32.064 38.746 31.388 38.018 30.686 37.238C30.166 36.666 29.568 36.042 28.84 35.626C28.19 35.262 27.644 35.444 27.124 35.6C27.046 35.574 26.968 35.574 26.916 35.6Z" fill="#2B77EF"/>
<path d="M37.238 49.2761C37.082 49.2761 36.952 49.2241 36.822 49.1461C36.64 49.0161 36.51 48.8081 36.51 48.5741V36.4061C36.51 36.2241 36.64 36.0941 36.822 36.0681C37.03 36.0681 37.186 36.1461 37.264 36.2241C37.368 36.3021 37.472 36.4841 37.836 37.0301C39.188 39.0841 42.776 44.4921 46.442 44.9861C46.598 45.0121 46.728 45.1421 46.728 45.3241V45.4281C46.728 45.7141 46.546 46.0001 46.26 46.1041L37.472 49.2761H37.238V49.2761ZM37.186 37.2121V48.5741C37.186 48.6001 37.186 48.6001 37.212 48.6001H37.264L45.844 45.5061C42.074 44.5961 38.642 39.3961 37.316 37.3681C37.264 37.3161 37.212 37.2641 37.186 37.2121Z" fill="#2B77EF"/>
<path d="M43.452 37.5239C43.452 38.5899 44.18 39.4479 45.064 39.4479C44.18 39.4479 43.452 40.3059 43.452 41.3719C43.452 40.3059 42.724 39.4479 41.84 39.4479C42.75 39.4479 43.452 38.5899 43.452 37.5239Z" fill="#76A6EF"/>
<path d="M33 65C15.3269 65 1 50.6731 1 33H-1C-1 51.7777 14.2223 67 33 67V65ZM65 33C65 50.6731 50.6731 65 33 65V67C51.7777 67 67 51.7777 67 33H65ZM33 1C50.6731 1 65 15.3269 65 33H67C67 14.2223 51.7777 -1 33 -1V1ZM33 -1C14.2223 -1 -1 14.2223 -1 33H1C1 15.3269 15.3269 1 33 1V-1Z" fill="#E5E7EB" fill-opacity="0.2"/>
</svg>
