<svg width="66" height="66" viewBox="0 0 66 66" fill="none" xmlns="http://www.w3.org/2000/svg">
<path d="M0 33C0 14.7746 14.7746 0 33 0V0C51.2254 0 66 14.7746 66 33V33C66 51.2254 51.2254 66 33 66V66C14.7746 66 0 51.2254 0 33V33Z" fill="white"/>
<path d="M0 33C0 14.7746 14.7746 0 33 0V0C51.2254 0 66 14.7746 66 33V33C66 51.2254 51.2254 66 33 66V66C14.7746 66 0 51.2254 0 33V33Z" fill="#4298FF" fill-opacity="0.02"/>
<path d="M34.608 41.472H16.416C15.432 41.472 14.64 40.68 14.64 39.696V39.576C14.64 38.592 15.432 37.8 16.416 37.8H34.608C35.592 37.8 36.384 38.592 36.384 39.576V39.696C36.384 40.68 35.592 41.472 34.608 41.472Z" fill="#E3EEFF"/>
<path d="M34.608 48H34.344C32.544 48 31.08 46.536 31.08 44.736C31.08 42.936 32.544 41.472 34.344 41.472H34.608V37.8H17.688V41.472H23.856C25.656 41.472 27.12 42.936 27.12 44.736C27.12 46.536 25.656 48 23.856 48H17.688V51.672H34.608V48Z" fill="#E3EEFF"/>
<path d="M35.64 32.2321C35.64 31.5601 35.112 31.0321 34.44 31.0081H22.32C21.648 31.0081 21.096 31.5601 21.096 32.2321C21.096 32.9041 21.648 33.4561 22.32 33.4561H27.264C28.464 33.4561 29.448 34.4401 29.448 35.6401C29.448 36.8401 28.464 37.8241 27.264 37.8241H23.136V40.2721H34.44V37.8241H34.272C33.072 37.8241 32.088 36.8401 32.088 35.6401C32.088 34.4401 33.072 33.4561 34.272 33.4561H34.464C35.112 33.4321 35.64 32.9041 35.64 32.2321V32.2321ZM42.408 48.0001H16.464C15.456 48.0001 14.616 48.8161 14.616 49.8481C14.616 50.8561 15.432 51.6961 16.464 51.6961H42.408V48.0001ZM43.08 48.0001H44.64V51.6721H43.08V48.0001ZM46.512 48.0001H47.52V51.6721H46.512V48.0001ZM50.352 48.0001H48.024V51.6721H50.352C51.36 51.6721 52.2 50.8561 52.2 49.8241C52.2 48.8161 51.384 48.0001 50.352 48.0001Z" fill="#E3EEFF"/>
<path d="M27.768 30.048H34.896C34.896 30.048 35.448 31.608 36.336 32.64C37.2 31.032 37.68 28.92 37.68 26.616C37.68 26.472 37.656 26.28 37.656 26.112C35.784 25.248 34.08 24.696 31.728 24.696C29.352 24.696 27.36 24.936 25.44 25.824C25.44 25.968 25.344 26.52 25.344 26.64C25.344 28.728 25.8 30.648 26.568 32.184C27.216 31.608 27.912 30.768 27.768 30.048V30.048Z" fill="#FFEFE9"/>
<path d="M36.408 33.1679L36.12 32.8319C35.376 31.9679 34.872 30.7919 34.704 30.3359H28.08C28.032 30.9599 27.6 31.6559 26.784 32.4239L26.52 32.6879L26.352 32.3279C25.536 30.6959 25.08 28.7279 25.08 26.6399C25.08 26.5439 25.104 26.3999 25.128 26.1599C25.152 26.0159 25.176 25.8719 25.176 25.8239V25.6559L25.344 25.5839C27.072 24.7679 28.992 24.4319 31.752 24.4319C34.176 24.4319 35.904 25.0079 37.8 25.8719L37.968 25.9439V26.3039C37.968 26.3999 37.992 26.5199 37.992 26.6159C37.992 28.9439 37.512 31.0799 36.624 32.7839L36.408 33.1679ZM27.432 29.7599H35.112L35.184 29.9519C35.184 29.9759 35.616 31.1519 36.312 32.1119C37.032 30.5759 37.416 28.6799 37.416 26.6159C37.416 26.5439 37.416 26.4479 37.392 26.3519V26.3279C35.64 25.5359 34.008 25.0079 31.752 25.0079C29.16 25.0079 27.36 25.3199 25.752 26.0399C25.752 26.1119 25.728 26.1839 25.728 26.2559C25.704 26.3999 25.68 26.6159 25.68 26.6639C25.68 28.5119 26.04 30.2399 26.712 31.7039C27.312 31.0559 27.6 30.5039 27.528 30.0719L27.432 29.7599V29.7599ZM18.768 33.4559H16.968C16.848 33.4559 16.752 33.3599 16.752 33.2399C16.752 33.1199 16.848 33.0239 16.968 33.0239H18.768C18.888 33.0239 18.984 33.1199 18.984 33.2399C18.984 33.3599 18.888 33.4559 18.768 33.4559Z" fill="#2B77EF"/>
<path d="M17.856 34.368C17.736 34.368 17.64 34.272 17.64 34.152V32.352C17.64 32.232 17.736 32.136 17.856 32.136C17.976 32.136 18.072 32.232 18.072 32.352V34.152C18.072 34.272 17.976 34.368 17.856 34.368Z" fill="#2B77EF"/>
<path d="M31.896 22.08C31.008 22.08 30.264 21.408 30.168 20.496C30.096 19.536 30.792 18.696 31.752 18.624C32.712 18.552 33.552 19.248 33.624 20.208C33.672 20.664 33.528 21.12 33.216 21.48C32.928 21.84 32.496 22.056 32.04 22.08H31.896V22.08ZM31.896 19.056H31.776C31.056 19.128 30.528 19.752 30.6 20.472C30.672 21.192 31.296 21.72 32.016 21.648C32.352 21.624 32.664 21.456 32.904 21.192C33.12 20.928 33.24 20.592 33.192 20.256C33.144 19.56 32.568 19.056 31.896 19.056V19.056Z" fill="#82A0F6"/>
<path d="M47.52 40.1519C47.4 40.1519 47.304 40.0559 47.304 39.9359V38.6159L46.368 39.5519C46.272 39.6479 46.152 39.6479 46.056 39.5519C45.96 39.4559 45.96 39.3359 46.056 39.2399L46.992 38.3039H45.672C45.552 38.3039 45.456 38.2079 45.456 38.0879C45.456 37.9679 45.552 37.8719 45.672 37.8719H46.992L46.056 36.9359C45.96 36.8399 45.96 36.7199 46.056 36.6239C46.152 36.5279 46.272 36.5279 46.368 36.6239L47.304 37.5599V36.2399C47.304 36.1199 47.4 36.0239 47.52 36.0239C47.64 36.0239 47.736 36.1199 47.736 36.2399V37.5599L48.672 36.6239C48.768 36.5279 48.888 36.5279 48.984 36.6239C49.08 36.7199 49.08 36.8399 48.984 36.9359L48.048 37.8719H49.368C49.488 37.8719 49.584 37.9679 49.584 38.0879C49.584 38.2079 49.488 38.3039 49.368 38.3039H48.048L48.984 39.2399C49.08 39.3359 49.08 39.4559 48.984 39.5519C48.888 39.6479 48.768 39.6479 48.672 39.5519L47.736 38.6159V39.9359C47.736 40.0559 47.64 40.1519 47.52 40.1519Z" fill="#82A0F6"/>
<path d="M15.84 30.6479C15.72 30.6479 15.624 30.5519 15.624 30.4319V29.1119L14.688 30.0479C14.592 30.1439 14.472 30.1439 14.376 30.0479C14.28 29.9519 14.28 29.8319 14.376 29.7359L15.312 28.7999H13.992C13.872 28.7999 13.776 28.7039 13.776 28.5839C13.776 28.4639 13.872 28.3679 13.992 28.3679H15.312L14.376 27.4319C14.28 27.3359 14.28 27.2159 14.376 27.1199C14.472 27.0239 14.592 27.0239 14.688 27.1199L15.624 28.0559V26.7599C15.624 26.6399 15.72 26.5439 15.84 26.5439C15.96 26.5439 16.056 26.6399 16.056 26.7599V28.0799L16.992 27.1439C17.088 27.0479 17.208 27.0479 17.304 27.1439C17.4 27.2399 17.4 27.3599 17.304 27.4559L16.368 28.3919H17.688C17.808 28.3919 17.904 28.4879 17.904 28.6079C17.904 28.7279 17.808 28.8239 17.688 28.8239H16.368L17.304 29.7599C17.4 29.8559 17.4 29.9759 17.304 30.0719C17.208 30.1679 17.088 30.1679 16.992 30.0719L16.056 29.1359V30.4559C16.056 30.5519 15.96 30.6479 15.84 30.6479V30.6479Z" fill="#82A0F6"/>
<path d="M43.968 22.0799H42.168C42.048 22.0799 41.952 21.9839 41.952 21.8639C41.952 21.7439 42.048 21.6479 42.168 21.6479H43.968C44.088 21.6479 44.184 21.7439 44.184 21.8639C44.184 21.9839 44.088 22.0799 43.968 22.0799Z" fill="#2B77EF"/>
<path d="M43.08 22.9681C42.96 22.9681 42.864 22.8721 42.864 22.7521V20.9521C42.864 20.8321 42.96 20.7361 43.08 20.7361C43.2 20.7361 43.296 20.8321 43.296 20.9521V22.7521C43.296 22.8721 43.2 22.9681 43.08 22.9681Z" fill="#2B77EF"/>
<path d="M18.768 18.072C18.768 18.936 18.168 19.656 17.448 19.656C18.168 19.656 18.768 20.352 18.768 21.24C18.768 20.376 19.368 19.656 20.088 19.656C19.368 19.656 18.768 18.96 18.768 18.072Z" fill="#76A6EF"/>
<path d="M15.84 45.2161C15.312 45.2161 14.856 44.7841 14.856 44.2321C14.856 43.7041 15.288 43.2481 15.84 43.2481C16.392 43.2481 16.824 43.6801 16.824 44.2321C16.8 44.7841 16.368 45.2161 15.84 45.2161ZM15.84 43.7041C15.552 43.7041 15.288 43.9441 15.288 44.2561C15.288 44.5441 15.528 44.8081 15.84 44.8081C16.128 44.8081 16.392 44.5681 16.392 44.2561C16.368 43.9441 16.128 43.7041 15.84 43.7041ZM46.488 43.9441C45.96 43.9441 45.504 43.5121 45.504 42.9601C45.504 42.4081 45.936 41.9761 46.488 41.9761C47.016 41.9761 47.472 42.4081 47.472 42.9601C47.472 43.5121 47.04 43.9441 46.488 43.9441ZM46.488 42.4321C46.2 42.4321 45.936 42.6721 45.936 42.9841C45.936 43.2721 46.176 43.5361 46.488 43.5361C46.776 43.5361 47.04 43.2961 47.04 42.9841C47.04 42.6721 46.8 42.4321 46.488 42.4321Z" fill="#82A0F6"/>
<path d="M45.576 24.384C45.456 26.136 46.56 27.648 48.048 27.744C46.56 27.648 45.288 28.992 45.168 30.744C45.288 28.992 44.184 27.48 42.696 27.384C44.16 27.48 45.456 26.136 45.576 24.384ZM40.104 33.192C40.104 34.248 39.384 35.112 38.496 35.112C39.384 35.112 40.104 35.976 40.104 37.032C40.104 35.976 40.824 35.112 41.712 35.112C40.824 35.112 40.104 34.248 40.104 33.192Z" fill="#76A6EF"/>
<path d="M29.04 31.4399H34.128V43.7039H29.04V31.4399Z" fill="#FFEFE9"/>
<path d="M34.416 43.9921H28.752V31.1521H34.416V43.9921V43.9921ZM29.328 43.4161H33.84V31.7281H29.328V43.4161Z" fill="#408CFF"/>
<path d="M33 35.88L34.032 35.376C34.056 35.376 34.08 35.376 34.08 35.4L33.912 36.912L32.256 40.44C32.232 40.464 32.184 40.464 32.184 40.416L32.952 37.416V35.904C32.976 35.88 32.976 35.88 33 35.88V35.88Z" fill="#FFD8C9"/>
<path d="M20.136 42.984C20.448 42.096 20.904 41.2319 21.528 40.5119C24.048 37.5839 29.04 36.6479 29.04 36.6479L31.488 42.12L34.128 36.6479C34.128 36.6479 39.168 37.584 42.072 40.464C44.928 43.296 44.4 49.344 44.4 49.344H19.44C19.44 49.344 19.248 47.568 19.536 45.432" fill="#C7DDFF"/>
<path d="M42.48 40.464C39.576 37.584 34.536 36.6479 34.536 36.6479L34.128 37.5119C35.736 38.1119 37.68 39.048 39.096 40.464C41.952 43.296 41.424 49.344 41.424 49.344H44.808C44.808 49.32 45.336 43.296 42.48 40.464V40.464Z" fill="#76A6EF"/>
<path d="M33.48 42.216L35.856 37.248C34.704 36.888 33.888 36.72 33.888 36.72L31.416 42.192H33.48V42.216Z" fill="#76A6EF"/>
<path d="M21.768 45.432L22.368 42.984C22.68 42.096 23.136 41.2319 23.76 40.5119C25.248 38.7839 27.624 37.728 29.304 37.176L29.064 36.6479C29.064 36.6479 24.072 37.5839 21.552 40.5119C20.928 41.2319 20.472 42.096 20.16 42.984L19.56 45.432C19.248 47.568 19.464 49.344 19.464 49.344H21.672C21.648 49.32 21.456 47.544 21.768 45.432Z" fill="white"/>
<path d="M44.4 49.728H19.44C19.248 49.728 19.08 49.584 19.056 49.368C19.056 49.296 18.84 47.52 19.152 45.36C19.176 45.144 19.392 45 19.608 45.024C19.824 45.048 19.968 45.264 19.944 45.48C19.728 46.992 19.776 48.312 19.824 48.936H44.04C44.088 47.616 44.112 43.032 41.808 40.752C39.408 38.376 35.472 37.344 34.368 37.104L31.872 42.288C31.8 42.432 31.656 42.504 31.512 42.504C31.368 42.504 31.224 42.408 31.152 42.264L28.8 37.08C27.696 37.344 23.856 38.376 21.816 40.752C21.264 41.376 20.832 42.168 20.496 43.104C20.424 43.32 20.184 43.416 19.992 43.344C19.776 43.272 19.68 43.032 19.752 42.84C20.112 41.808 20.616 40.944 21.216 40.248C23.808 37.248 28.752 36.288 28.944 36.24C29.112 36.216 29.304 36.288 29.376 36.456L31.488 41.16L33.744 36.456C33.816 36.288 34.008 36.216 34.176 36.24C34.392 36.288 39.36 37.248 42.336 40.176C45.288 43.104 44.808 49.104 44.784 49.368C44.784 49.56 44.592 49.728 44.4 49.728V49.728ZM27.888 30.336C27.816 30.336 27.72 30.312 27.672 30.24L25.176 27.504C25.056 27.384 25.08 27.192 25.2 27.096C25.32 26.976 25.512 27 25.608 27.12L28.104 29.856C28.224 29.976 28.2 30.168 28.08 30.264C28.032 30.312 27.96 30.336 27.888 30.336Z" fill="#2B77EF"/>
<path d="M27.672 25.2001C27.672 25.2001 36.144 25.3921 37.536 27.5281V25.8241C37.536 25.8241 30.816 24.1201 27.672 25.2001Z" fill="#FFE3D9"/>
<path d="M31.416 24.7439C33.504 24.7439 35.472 25.1519 37.152 25.8959C37.512 26.0639 37.944 25.7759 37.944 25.3919V24.1919C37.944 20.6639 36.096 18.0959 31.512 18.0959C26.76 18.0959 25.08 20.6639 25.08 24.1919V25.3199C25.08 25.7279 25.488 25.9919 25.848 25.8239C27.48 25.1279 29.4 24.7439 31.416 24.7439Z" fill="#C7DDFF"/>
<path d="M26.64 25.296V24.168C26.64 20.832 28.128 18.384 32.256 18.096C32.016 18.072 31.752 18.072 31.488 18.072C26.736 18.072 25.056 20.64 25.056 24.168V25.296C25.056 25.704 25.464 25.968 25.824 25.8C26.088 25.68 26.376 25.584 26.664 25.488C26.664 25.44 26.64 25.368 26.64 25.296ZM33 24.744C32.736 24.744 32.472 24.744 32.208 24.768C34.008 24.864 35.664 25.248 37.128 25.896C37.44 26.04 37.56 26.064 37.656 25.776C36.192 25.224 34.752 24.744 33 24.744Z" fill="white"/>
<path d="M37.368 26.3279C37.248 26.3279 37.104 26.3039 36.984 26.2559C35.304 25.5359 33.384 25.1519 31.416 25.1519C29.52 25.1519 27.624 25.5119 25.992 26.2079C25.704 26.3279 25.368 26.3039 25.104 26.1119C24.84 25.9439 24.672 25.6319 24.672 25.3199V24.1919C24.672 19.9439 27.024 17.7119 31.512 17.7119C35.928 17.7119 38.352 20.0159 38.352 24.1919V25.3919C38.352 25.7039 38.184 26.0159 37.92 26.1839C37.728 26.2799 37.56 26.3279 37.368 26.3279ZM31.416 24.3359C33.48 24.3359 35.52 24.7439 37.296 25.5119C37.368 25.5359 37.416 25.5119 37.44 25.4879C37.464 25.4639 37.512 25.4399 37.512 25.3439V24.1439C37.512 21.5519 36.456 18.4559 31.464 18.4559C27.408 18.4559 25.416 20.3279 25.416 24.1439V25.2719C25.416 25.3439 25.464 25.3919 25.488 25.4159C25.512 25.4399 25.584 25.4639 25.632 25.4399C27.432 24.7199 29.4 24.3359 31.416 24.3359V24.3359Z" fill="#2B77EF"/>
<path d="M36.312 24.264C36.312 24.264 36.288 24.264 36.312 24.264C36.12 24.264 36 24.12 36.024 23.952C36.096 22.992 35.928 22.152 35.52 21.48C35.448 21.336 35.472 21.168 35.616 21.072C35.76 21 35.928 21.024 36.024 21.168C36.48 21.936 36.672 22.896 36.6 23.976C36.6 24.144 36.456 24.264 36.312 24.264ZM35.232 20.952C35.16 20.952 35.088 20.928 35.04 20.88C34.944 20.784 34.872 20.712 34.776 20.64C34.608 20.52 34.488 20.472 34.488 20.472C34.344 20.4 34.272 20.232 34.344 20.088C34.416 19.944 34.584 19.872 34.728 19.944C34.752 19.944 34.896 20.016 35.112 20.184C35.232 20.28 35.328 20.376 35.448 20.472C35.568 20.592 35.568 20.76 35.448 20.88C35.4 20.928 35.328 20.952 35.232 20.952V20.952Z" fill="#408CFF"/>
<path d="M34.944 30.384C34.872 30.384 34.8 30.3601 34.728 30.2881C34.608 30.1681 34.608 30.0001 34.728 29.8801L37.464 27.1921C37.584 27.0721 37.752 27.0721 37.872 27.1921C37.992 27.3121 37.992 27.48 37.872 27.6L35.136 30.2881C35.088 30.3361 35.016 30.384 34.944 30.384Z" fill="#2B77EF"/>
<path d="M28.656 41.7359H24.912C24.648 41.7359 24.432 41.5199 24.432 41.2559C24.432 40.9919 24.648 40.7759 24.912 40.7759H28.656C28.92 40.7759 29.136 40.9919 29.136 41.2559C29.136 41.5199 28.92 41.7359 28.656 41.7359V41.7359Z" fill="#F68282"/>
<path d="M31.704 35.9041C33.672 35.9041 35.304 34.6561 36.36 32.6401C35.472 31.6081 34.92 30.0481 34.92 30.0481H27.768C27.912 30.7921 27.216 31.6321 26.592 32.2321C27.72 34.4641 29.568 35.9041 31.704 35.9041Z" fill="white"/>
<path d="M31.704 36.192C29.544 36.192 27.576 34.8 26.352 32.352L26.256 32.16L26.424 32.016C27.216 31.272 27.6 30.576 27.528 30.096L27.456 29.76H35.136L35.208 29.952C35.208 29.976 35.76 31.488 36.6 32.472L36.72 32.616L36.624 32.784C35.448 34.968 33.696 36.192 31.704 36.192V36.192ZM26.952 32.28C28.08 34.392 29.808 35.616 31.704 35.616C33.432 35.616 34.944 34.584 36 32.688C35.328 31.848 34.872 30.768 34.704 30.336H28.08C28.032 30.912 27.672 31.56 26.952 32.28Z" fill="#2B77EF"/>
<path d="M33 65C15.3269 65 1 50.6731 1 33H-1C-1 51.7777 14.2223 67 33 67V65ZM65 33C65 50.6731 50.6731 65 33 65V67C51.7777 67 67 51.7777 67 33H65ZM33 1C50.6731 1 65 15.3269 65 33H67C67 14.2223 51.7777 -1 33 -1V1ZM33 -1C14.2223 -1 -1 14.2223 -1 33H1C1 15.3269 15.3269 1 33 1V-1Z" fill="#E5E7EB" fill-opacity="0.2"/>
</svg>
