<svg width="16" height="13" viewBox="0 0 16 13" fill="none" xmlns="http://www.w3.org/2000/svg">
<path d="M10.7063 0.0377388C10.0334 0.115579 9.42229 0.351437 8.86803 0.731296C8.6329 0.892471 8.41636 1.08247 8.20126 1.27072C8.06258 1.39209 7.94197 1.53415 7.79218 1.68864C7.6089 1.49723 7.44927 1.31734 7.27592 1.15182C6.67952 0.582327 5.97329 0.210758 5.16087 0.0813633C4.73942 0.014248 4.30176 -0.0124337 3.87689 0.0182946C3.28408 0.0611957 2.72182 0.245927 2.20036 0.549295C1.8658 0.743929 1.5598 0.968338 1.28463 1.23983C0.67589 1.84034 0.288662 2.56108 0.103206 3.39235C0.0618844 3.57758 0.0340182 3.76579 0 3.95263C0 4.20487 0 4.45708 0 4.70932C0.0340182 4.89063 0.0634635 5.07293 0.10291 5.25302C0.243293 5.89401 0.511984 6.47988 0.92402 6.98782C1.40537 7.58126 1.98944 8.07131 2.5789 8.5545C2.9892 8.8909 3.38195 9.24855 3.78642 9.59212C4.4129 10.1243 5.04447 10.6506 5.67052 11.1832C6.08719 11.5378 6.4963 11.9012 6.91199 12.2569C7.16235 12.4711 7.41966 12.6772 7.67197 12.8893C7.70819 12.9197 7.73379 12.9628 7.76432 13C7.78626 13 7.8082 13 7.83012 13C8.25923 12.6297 8.6861 12.2567 9.11797 11.8897C9.74441 11.3573 10.3762 10.8311 11.0023 10.2984C11.419 9.94379 11.8272 9.5792 12.2439 9.2246C12.7916 8.75855 13.3545 8.3096 13.8915 7.83153C14.3912 7.38663 14.8453 6.89465 15.1447 6.28601C15.3565 5.85532 15.5106 5.40328 15.5609 4.92133C15.5627 4.90448 15.5828 4.88958 15.5944 4.87379C15.5944 4.50094 15.5944 4.12805 15.5944 3.7552C15.5401 3.5403 15.4851 3.32556 15.4317 3.11043C15.3024 2.58999 15.0513 2.12851 14.735 1.702C14.2039 0.985873 13.4994 0.498959 12.6635 0.211515C12.03 -0.00634688 11.3726 -0.0393451 10.7063 0.0377388Z" fill="#FF6262"/>
</svg>
