<svg width="16" height="13" viewBox="0 0 16 13" fill="none" xmlns="http://www.w3.org/2000/svg">
<path d="M10.7523 0.435088L10.7523 0.435089C10.1466 0.50516 9.59688 0.716711 9.09416 1.06124C8.88196 1.20671 8.68326 1.38043 8.46469 1.57172C8.38538 1.64114 8.32082 1.71045 8.23806 1.79931C8.19251 1.84822 8.14144 1.90305 8.07936 1.96708L7.79039 2.26513L7.50327 1.96529C7.4367 1.89576 7.37658 1.83149 7.31981 1.77081C7.20804 1.65134 7.10925 1.54573 6.99969 1.44112L6.99968 1.44111C6.45691 0.92283 5.82349 0.591941 5.09795 0.476384C4.70177 0.413293 4.29525 0.389084 3.90577 0.417251L10.7523 0.435088ZM10.7523 0.435088C11.376 0.362928 11.9705 0.39619 12.5334 0.589774C13.2999 0.853351 13.935 1.29476 14.4137 1.94027L14.4137 1.94028C14.7084 2.33761 14.9304 2.75154 15.0435 3.2069C15.0805 3.3557 15.1183 3.50498 15.1559 3.65309C15.1688 3.70388 15.1817 3.75454 15.1944 3.80499V3.80545V3.80763V3.80982V3.812V3.81419V3.81637V3.81856V3.82074V3.82293V3.82511V3.8273V3.82948V3.83166V3.83385V3.83603V3.83822V3.8404V3.84259V3.84477V3.84696V3.84914V3.85133V3.85351V3.8557V3.85788V3.86007V3.86225V3.86444V3.86662V3.8688V3.87099V3.87317V3.87536V3.87754V3.87973V3.88191V3.8841V3.88628V3.88847V3.89065V3.89284V3.89502V3.89721V3.89939V3.90158V3.90376V3.90595V3.90813V3.91031V3.9125V3.91468V3.91687V3.91905V3.92124V3.92342V3.92561V3.92779V3.92998V3.93216V3.93435V3.93653V3.93872V3.9409V3.94309V3.94527V3.94745V3.94964V3.95182V3.95401V3.95619V3.95838V3.96056V3.96275V3.96493V3.96712V3.9693V3.97149V3.97367V3.97586V3.97804V3.98023V3.98241V3.9846V3.98678V3.98896V3.99115V3.99333V3.99552V3.9977V3.99989V4.00207V4.00426V4.00644V4.00863V4.01081V4.013V4.01518V4.01737V4.01955V4.02174V4.02392V4.02611V4.02829V4.03048V4.03266V4.03484V4.03703V4.03921V4.0414V4.04358V4.04577V4.04795V4.05014V4.05232V4.05451V4.05669V4.05888V4.06106V4.06325V4.06543V4.06762V4.0698V4.07199V4.07417V4.07635V4.07854V4.08072V4.08291V4.08509V4.08728V4.08946V4.09165V4.09383V4.09602V4.0982V4.10039V4.10257V4.10476V4.10694V4.10913V4.11131V4.1135V4.11568V4.11787V4.12005V4.12223V4.12442V4.1266V4.12879V4.13097V4.13316V4.13534V4.13753V4.13971V4.1419V4.14408V4.14627V4.14845V4.15064V4.15282V4.15501V4.15719V4.15938V4.16156V4.16375V4.16593V4.16812V4.1703V4.17248V4.17467V4.17685V4.17904V4.18122V4.18341V4.18559V4.18778V4.18996V4.19215V4.19433V4.19652V4.1987V4.20089V4.20307V4.20526V4.20744V4.20963V4.21181V4.21399V4.21618V4.21836V4.22055V4.22273V4.22492V4.2271V4.22929V4.23147V4.23366V4.23584V4.23803V4.24021V4.2424V4.24458V4.24677V4.24895V4.25114V4.25332V4.25551V4.25769V4.25988V4.26206V4.26425V4.26643V4.26861V4.2708V4.27298V4.27517V4.27735V4.27954V4.28172V4.28391V4.28609V4.28828V4.29046V4.29265V4.29483V4.29702V4.2992V4.30139V4.30357V4.30576V4.30794V4.31013V4.31231V4.31449V4.31668V4.31886V4.32105V4.32323V4.32542V4.3276V4.32979V4.33197V4.33416V4.33634V4.33853V4.34071V4.3429V4.34508V4.34727V4.34945V4.35164V4.35382V4.35601V4.35819V4.36037V4.36256V4.36474V4.36693V4.36911V4.3713V4.37348V4.37567V4.37785V4.38004V4.38222V4.38441V4.38659V4.38878V4.39096V4.39315V4.39533V4.39752V4.3997V4.40189V4.40407V4.40626V4.40844V4.41062V4.41281V4.41499V4.41718V4.41936V4.42155V4.42373V4.42592V4.4281V4.43029V4.43247V4.43466V4.43684V4.43903V4.44121V4.4434V4.44558V4.44777V4.44995V4.45214V4.45432V4.45651V4.45869V4.46087V4.46306V4.46524V4.46743V4.46961V4.4718V4.47398V4.47617V4.47835V4.48054V4.48272V4.48491V4.48709V4.48928V4.49146V4.49365V4.49583V4.49802V4.5002V4.50239V4.50457V4.50675V4.50894V4.51112V4.51331V4.51549V4.51768V4.51986V4.52205V4.52423V4.52642V4.5286V4.53079V4.53297V4.53516V4.53734V4.53953V4.54171V4.5439V4.54608V4.54826V4.55045V4.55263V4.55482V4.557V4.55919V4.56137V4.56356V4.56574V4.56793V4.57011V4.5723V4.57448V4.57667V4.57885V4.58104V4.58322V4.58541V4.58759V4.58978V4.59196V4.59414V4.59633V4.59851V4.6007V4.60288V4.60507V4.60725V4.60944V4.61162V4.61381V4.61599V4.61818V4.62036V4.62255V4.62473V4.62692V4.6291V4.63129V4.63347V4.63566V4.63784V4.64002V4.64221V4.64439V4.64658V4.64876V4.65095V4.65313V4.65532V4.6575V4.65969V4.66187V4.66406V4.66624V4.66843V4.67061V4.6728V4.67498V4.67717V4.67935V4.68153V4.68372V4.6859V4.68809V4.69027V4.69246V4.69464V4.69683V4.69901V4.7012V4.70338V4.70557V4.70775V4.70994V4.71212V4.71431V4.71649V4.71868V4.72086V4.72304V4.72523V4.72741V4.7296V4.73178V4.73397V4.73615V4.73834V4.74052V4.74271V4.74489V4.74708V4.74926V4.75145V4.75363V4.75582V4.758V4.75802C15.1807 4.79058 15.1681 4.83139 15.1631 4.87937L15.163 4.87983C15.1189 5.30292 14.9828 5.70888 14.7858 6.10944C14.5191 6.65152 14.1081 7.10313 13.6255 7.53277L13.8915 7.83153L13.6255 7.53277C13.2909 7.83067 12.9525 8.11173 12.6082 8.39774C12.4027 8.5685 12.195 8.74102 11.9847 8.91996L12.2439 9.2246L11.9847 8.91996C11.7744 9.09892 11.5665 9.28015 11.3607 9.45954L11.3602 9.45999C11.1537 9.64005 10.9493 9.81826 10.7431 9.99374C10.4134 10.2743 10.0967 10.5407 9.77905 10.808C9.47718 11.062 9.17446 11.3167 8.85893 11.5849L9.11797 11.8897M10.7523 0.435088L9.11797 11.8897M1.56556 1.52457L1.56554 1.52459C1.01394 2.06874 0.663072 2.71986 0.493609 3.47945C0.467424 3.59682 0.448191 3.70921 0.427173 3.83203C0.418609 3.88208 0.409748 3.93385 0.4 3.98841V3.98958V3.99106V3.99254V3.99401V3.99549V3.99697V3.99845V3.99993V4.0014V4.00288V4.00436V4.00584V4.00732V4.00879V4.01027V4.01175V4.01323V4.01471V4.01618V4.01766V4.01914V4.02062V4.0221V4.02357V4.02505V4.02653V4.02801V4.02949V4.03096V4.03244V4.03392V4.0354V4.03688V4.03835V4.03983V4.04131V4.04279V4.04427V4.04574V4.04722V4.0487V4.05018V4.05165V4.05313V4.05461V4.05609V4.05757V4.05904V4.06052V4.062V4.06348V4.06496V4.06643V4.06791V4.06939V4.07087V4.07235V4.07382V4.0753V4.07678V4.07826V4.07974V4.08121V4.08269V4.08417V4.08565V4.08713V4.0886V4.09008V4.09156V4.09304V4.09451V4.09599V4.09747V4.09895V4.10043V4.1019V4.10338V4.10486V4.10634V4.10782V4.10929V4.11077V4.11225V4.11373V4.11521V4.11668V4.11816V4.11964V4.12112V4.1226V4.12407V4.12555V4.12703V4.12851V4.12998V4.13146V4.13294V4.13442V4.1359V4.13737V4.13885V4.14033V4.14181V4.14329V4.14476V4.14624V4.14772V4.1492V4.15068V4.15215V4.15363V4.15511V4.15659V4.15806V4.15954V4.16102V4.1625V4.16398V4.16545V4.16693V4.16841V4.16989V4.17137V4.17284V4.17432V4.1758V4.17728V4.17876V4.18023V4.18171V4.18319V4.18467V4.18614V4.18762V4.1891V4.19058V4.19206V4.19353V4.19501V4.19649V4.19797V4.19945V4.20092V4.2024V4.20388V4.20536V4.20684V4.20831V4.20979V4.21127V4.21275V4.21422V4.2157V4.21718V4.21866V4.22014V4.22161V4.22309V4.22457V4.22605V4.22753V4.229V4.23048V4.23196V4.23344V4.23492V4.23639V4.23787V4.23935V4.24083V4.2423V4.24378V4.24526V4.24674V4.24822V4.24969V4.25117V4.25265V4.25413V4.25561V4.25708V4.25856V4.26004V4.26152V4.263V4.26447V4.26595V4.26743V4.26891V4.27038V4.27186V4.27334V4.27482V4.2763V4.27777V4.27925V4.28073V4.28221V4.28369V4.28516V4.28664V4.28812V4.2896V4.29108V4.29255V4.29403V4.29551V4.29699V4.29846V4.29994V4.30142V4.3029V4.30438V4.30585V4.30733V4.30881V4.31029V4.31177V4.31324V4.31472V4.3162V4.31768V4.31915V4.32063V4.32211V4.32359V4.32507V4.32654V4.32802V4.3295V4.33098V4.33246V4.33393V4.33541V4.33689V4.33837V4.33985V4.34132V4.3428V4.34428V4.34576V4.34723V4.34871V4.35019V4.35167V4.35315V4.35462V4.3561V4.35758V4.35906V4.36054V4.36201V4.36349V4.36497V4.36645V4.36793V4.3694V4.37088V4.37236V4.37384V4.37531V4.37679V4.37827V4.37975V4.38123V4.3827V4.38418V4.38566V4.38714V4.38862V4.39009V4.39157V4.39305V4.39453V4.396V4.39748V4.39896V4.40044V4.40192V4.40339V4.40487V4.40635V4.40783V4.40931V4.41078V4.41226V4.41374V4.41522V4.4167V4.41817V4.41965V4.42113V4.42261V4.42408V4.42556V4.42704V4.42852V4.43V4.43147V4.43295V4.43443V4.43591V4.43739V4.43886V4.44034V4.44182V4.4433V4.44478V4.44625V4.44773V4.44921V4.45069V4.45216V4.45364V4.45512V4.4566V4.45808V4.45955V4.46103V4.46251V4.46399V4.46547V4.46694V4.46842V4.4699V4.47138V4.47286V4.47433V4.47581V4.47729V4.47877V4.48024V4.48172V4.4832V4.48468V4.48616V4.48763V4.48911V4.49059V4.49207V4.49355V4.49502V4.4965V4.49798V4.49946V4.50094V4.50241V4.50389V4.50537V4.50685V4.50832V4.5098V4.51128V4.51276V4.51424V4.51571V4.51719V4.51867V4.52015V4.52163V4.5231V4.52458V4.52606V4.52754V4.52902V4.53049V4.53197V4.53345V4.53493V4.5364V4.53788V4.53936V4.54084V4.54232V4.54379V4.54527V4.54675V4.54823V4.54971V4.55118V4.55266V4.55414V4.55562V4.5571V4.55857V4.56005V4.56153V4.56301V4.56449V4.56596V4.56744V4.56892V4.5704V4.57187V4.57335V4.57483V4.57631V4.57779V4.57926V4.58074V4.58222V4.5837V4.58518V4.58665V4.58813V4.58961V4.59109V4.59257V4.59404V4.59552V4.597V4.59848V4.59996V4.60143V4.60291V4.60439V4.60587V4.60735V4.60882V4.6103V4.61178V4.61326V4.61473V4.61621V4.61769V4.61917V4.62065V4.62212V4.6236V4.62508V4.62656V4.62804V4.62951V4.63099V4.63247V4.63395V4.63543V4.6369V4.63838V4.63986V4.64134V4.64282V4.64429V4.64577V4.64725V4.64873V4.65021V4.65168V4.65316V4.65464V4.65612V4.6576V4.65907V4.66055V4.66203V4.66351V4.66498V4.66646V4.66794V4.66942V4.6709V4.67237V4.67241C0.409327 4.72288 0.41802 4.77137 0.426489 4.8186C0.448078 4.93902 0.468206 5.05129 0.493647 5.16744L0.493649 5.16745C0.621821 5.75268 0.865168 6.28033 1.23466 6.73583L1.23467 6.73584C1.68717 7.2937 2.24117 7.76044 2.83249 8.24515L2.83252 8.24518C3.08138 8.44922 3.3326 8.66856 3.57809 8.88288C3.73699 9.02161 3.89349 9.15824 4.04538 9.28726L4.0454 9.28728C4.33872 9.53646 4.64276 9.79239 4.94764 10.049C5.27823 10.3273 5.60979 10.6064 5.92973 10.8786L5.92974 10.8786C6.1484 11.0647 6.37628 11.263 6.60206 11.4596C6.79599 11.6284 6.98837 11.7958 7.17203 11.953L1.56556 1.52457ZM1.56556 1.52457C1.81314 1.28031 2.09118 1.07558 2.40151 0.895042C2.8751 0.619523 3.37893 0.45538 3.90575 0.417252L1.56556 1.52457ZM9.11797 11.8897L8.85893 11.5849C8.559 11.8398 8.26056 12.0983 7.96379 12.3554C7.9135 12.399 7.86327 12.4425 7.81308 12.4859M9.11797 11.8897L7.81308 12.4859M7.81308 12.4859C7.74056 12.4257 7.66973 12.3674 7.59967 12.3097C7.45658 12.1919 7.31669 12.0768 7.17205 11.953L7.81308 12.4859ZM15.2888 4.61622C15.2897 4.61514 15.29 4.61484 15.2895 4.61547L15.2888 4.61622Z" stroke="#0F1419" stroke-opacity="0.5" stroke-width="0.8"/>
</svg>
