<svg width="16" height="16" viewBox="0 0 16 16" fill="none" xmlns="http://www.w3.org/2000/svg">
<g id="Vector">
<path d="M9.6 0H1.92C1.41078 0 0.922425 0.202285 0.562355 0.562355C0.202285 0.922425 0 1.41078 0 1.92V14.72C0 15.0595 0.134857 15.385 0.374903 15.6251C0.61495 15.8651 0.940523 16 1.28 16H10.88C10.964 16 11.0473 15.9834 11.1249 15.9513C11.2026 15.9191 11.2731 15.872 11.3325 15.8125C11.392 15.7531 11.4391 15.6826 11.4713 15.6049C11.5034 15.5273 11.52 15.444 11.52 15.36V1.92C11.52 1.41078 11.3177 0.922425 10.9576 0.562355C10.5976 0.202285 10.1092 0 9.6 0ZM9.648 1.2816C9.80901 1.29371 9.95949 1.36623 10.0693 1.48462C10.1791 1.60302 10.2401 1.75854 10.24 1.92V14.72H1.28V1.92C1.28 1.75026 1.34743 1.58747 1.46745 1.46745C1.58747 1.34743 1.75026 1.28 1.92 1.28H9.6L9.648 1.2816Z" fill="#4298FF"/>
<path d="M14.72 6.4H10.88C10.7103 6.4 10.5475 6.46743 10.4275 6.58745C10.3074 6.70747 10.24 6.87026 10.24 7.04V15.36C10.24 15.444 10.2566 15.5273 10.2887 15.6049C10.3209 15.6826 10.368 15.7531 10.4275 15.8125C10.4869 15.872 10.5574 15.9191 10.6351 15.9513C10.7127 15.9834 10.796 16 10.88 16L14.72 16C15.0595 16 15.385 15.8651 15.6251 15.6251C15.8651 15.385 16 15.0595 16 14.72V7.68C16 7.34052 15.8651 7.01495 15.6251 6.7749C15.385 6.53486 15.0595 6.4 14.72 6.4ZM11.52 14.72V7.68H14.72V14.72H11.52Z" fill="#4298FF"/>
<path d="M6.4 3.84V6.4H8.96V7.68H6.4V10.24H5.12V7.68H2.56V6.4H5.12V3.84H6.4Z" fill="#4298FF"/>
</g>
</svg>
