<svg width="22" height="22" viewBox="0 0 22 22" fill="none" xmlns="http://www.w3.org/2000/svg">
<path d="M15.4805 8.65609L13.6658 6.84146C13.5164 6.69201 13.261 6.79782 13.261 7.00903V8.41898C13.261 8.54994 13.1549 8.65609 13.0239 8.65609H6.0667C5.9358 8.65609 5.82959 8.76219 5.82959 8.8932V9.52874C5.82959 9.65964 5.93569 9.76585 6.0667 9.76585H16.0178C16.229 9.76585 16.3348 9.51041 16.1855 9.36108L15.4805 8.65609Z" fill="#4298FF"/>
<path d="M6.60249 13.3436L8.41723 15.1583C8.56658 15.3076 8.82202 15.2019 8.82202 14.9906V13.5807C8.82202 13.4498 8.92823 13.3436 9.05913 13.3436H16.0166C16.1476 13.3436 16.2538 13.2374 16.2538 13.1065V12.471C16.2538 12.34 16.1476 12.2339 16.0166 12.2339H6.0652C5.8539 12.2339 5.7482 12.4892 5.89761 12.6387L6.60249 13.3436Z" fill="#4298FF"/>
<path d="M11.0414 20.3479C5.88703 20.3479 1.69348 16.1544 1.69348 10.9998C1.69348 5.8454 5.88703 1.65186 11.0414 1.65186C16.1959 1.65186 20.3895 5.8454 20.3895 10.9998C20.3895 16.1544 16.1959 20.3479 11.0414 20.3479ZM11.0414 2.41911C6.31007 2.41911 2.46072 6.26835 2.46072 10.9998C2.46072 15.7312 6.30996 19.5806 11.0414 19.5806C15.7729 19.5806 19.6222 15.7312 19.6222 10.9998C19.6222 6.26844 15.7729 2.41911 11.0414 2.41911Z" fill="#4298FF"/>
</svg>
