<svg width="41" height="41" viewBox="0 0 41 41" fill="none" xmlns="http://www.w3.org/2000/svg">
<path d="M17.0013 36.9879C13.7319 36.981 10.5986 35.6779 8.2884 33.3645C5.9782 31.051 4.67959 27.9158 4.67728 24.6464C4.67728 13.9667 15.5931 2.20245 16.0479 1.70389C16.1653 1.56517 16.3112 1.45348 16.4758 1.37649C16.6404 1.29949 16.8196 1.259 17.0013 1.25781C17.1834 1.25947 17.363 1.29925 17.5287 1.37457C17.6944 1.4499 17.8425 1.5591 17.9635 1.69515C18.2521 2.02752 25.0658 9.8033 27.9959 17.9377C28.0684 18.1028 28.106 18.2811 28.1065 18.4615C28.107 18.6418 28.0703 18.8203 27.9987 18.9858C27.9271 19.1513 27.8222 19.3003 27.6904 19.4234C27.5587 19.5466 27.403 19.6413 27.233 19.7015C27.063 19.7618 26.8825 19.7864 26.7026 19.7737C26.5227 19.7611 26.3473 19.7115 26.1875 19.6281C26.0276 19.5447 25.8866 19.4292 25.7734 19.2888C25.6602 19.1485 25.5771 18.9863 25.5293 18.8124C23.4301 12.9434 18.9518 7.03936 17.0013 4.61653C14.3773 7.73035 7.30128 16.7744 7.30128 24.6464C7.30359 27.2199 8.32574 29.6876 10.1438 31.509C11.962 33.3304 14.4278 34.357 17.0013 34.3639C18.5739 34.3681 20.1236 33.9867 21.5146 33.2531C21.8231 33.0919 22.1831 33.0598 22.5152 33.164C22.8474 33.2682 23.1246 33.5 23.2858 33.8085C23.447 34.1171 23.4791 34.477 23.3749 34.8092C23.2708 35.1413 23.0389 35.4185 22.7304 35.5797C20.962 36.5038 18.9966 36.9869 17.0013 36.9879Z" fill="#4298FF"/>
<path d="M22.7654 25.9666C23.0898 26.0281 23.4066 26.1249 23.71 26.2552C24.0335 26.3904 24.3298 26.583 24.5847 26.8238C24.8419 27.0908 25.044 27.4058 25.1795 27.7509C25.343 28.1684 25.4204 28.6147 25.4069 29.0629C25.4344 29.509 25.3649 29.9558 25.2034 30.3725C25.0418 30.7892 24.792 31.166 24.471 31.477C23.7034 32.1071 22.724 32.42 21.7333 32.3517H18.1559C18.0305 32.3644 17.9038 32.3499 17.7846 32.3091C17.6653 32.2684 17.5563 32.2023 17.4649 32.1155C17.393 32.0483 17.3358 31.967 17.2966 31.8768C17.2575 31.7865 17.2374 31.6891 17.2375 31.5907V21.2347C17.2398 21.1346 17.2619 21.0359 17.3024 20.9444C17.3429 20.8528 17.4011 20.7701 17.4737 20.7011C17.5658 20.6181 17.6737 20.5545 17.7908 20.5139C17.908 20.4733 18.0322 20.4567 18.1559 20.465H21.2522C21.8445 20.4555 22.4346 20.5381 23.0015 20.7099C23.4334 20.8493 23.8323 21.0755 24.1736 21.3746C24.4437 21.6139 24.6535 21.9136 24.7859 22.2493C24.9077 22.6009 24.9698 22.9705 24.9695 23.3426C24.9759 23.6974 24.9166 24.0503 24.7946 24.3835C24.6896 24.6641 24.5323 24.9223 24.331 25.1444C24.1288 25.3526 23.892 25.5242 23.6313 25.6517C23.3592 25.7974 23.0676 25.9035 22.7654 25.9666ZM19.4504 25.0307H21.1997C21.4193 25.053 21.641 25.0303 21.8516 24.9642C22.0621 24.898 22.2569 24.7897 22.4243 24.6459C22.6558 24.38 22.7778 24.0361 22.7654 23.6837C22.7663 23.5201 22.7397 23.3575 22.6867 23.2027C22.6268 23.0452 22.5344 22.9021 22.4155 22.7828C22.2751 22.6501 22.1082 22.5488 21.9257 22.4854C21.693 22.4025 21.4467 22.3639 21.1997 22.3717H19.4504V25.0307ZM19.4504 30.4274H21.1123C21.6508 30.4566 22.1853 30.3192 22.6429 30.0338C22.8329 29.8876 22.9818 29.6949 23.0753 29.4742C23.1687 29.2535 23.2036 29.0124 23.1765 28.7743C23.1882 28.4756 23.1376 28.1777 23.0278 27.8996C22.9284 27.6855 22.7708 27.5037 22.573 27.3748C22.3492 27.2335 22.0994 27.1383 21.8382 27.0949C21.5081 27.0467 21.1748 27.0233 20.8411 27.025H19.4504V30.4274ZM26.6839 21.5933C26.6772 21.396 26.6978 21.1988 26.7451 21.0072C26.7806 20.8737 26.8609 20.7564 26.9725 20.6749C27.1277 20.5687 27.3095 20.5081 27.4973 20.4999C27.7595 20.4846 28.0224 20.4846 28.2845 20.4999H30.6899C31.328 20.4869 31.9654 20.5515 32.5879 20.6924C33.057 20.7919 33.4933 21.0086 33.8562 21.3221C34.2 21.6346 34.4487 22.0378 34.5734 22.4854C34.7303 23.0549 34.8039 23.6442 34.7921 24.2348C34.8052 24.8467 34.7256 25.4572 34.5559 26.0453C34.4199 26.5097 34.1669 26.9313 33.8212 27.2699C33.4613 27.6023 33.0261 27.8424 32.5529 27.9696C31.945 28.1281 31.318 28.2017 30.6899 28.1883H28.9405V31.6344C28.9396 31.8639 28.8485 32.0838 28.6869 32.2467C28.5676 32.3496 28.4283 32.4268 28.2778 32.4735C28.1273 32.5201 27.9688 32.5352 27.8122 32.5179C27.6542 32.5357 27.4943 32.5191 27.3433 32.4693C27.1923 32.4195 27.0539 32.3376 26.9375 32.2292C26.7801 32.0706 26.6894 31.8578 26.6839 31.6344V21.5933ZM28.8968 26.2727H30.6461C30.9133 26.305 31.1844 26.2795 31.4409 26.1981C31.6974 26.1166 31.9335 25.981 32.1331 25.8004C32.4418 25.343 32.5839 24.7933 32.5354 24.2435C32.5433 23.9308 32.4929 23.6194 32.3867 23.3251C32.3038 23.1063 32.1687 22.9112 31.9931 22.7566C31.8165 22.6158 31.6101 22.5171 31.3896 22.4679C31.1456 22.4135 30.8961 22.3871 30.6461 22.3892H28.8968V26.2727Z" fill="#A1CCFF"/>
<path d="M11.7533 30.1738C11.5207 30.1737 11.2923 30.1122 11.0911 29.9955C10.8899 29.8787 10.7231 29.711 10.6075 29.5091C7.42373 23.9374 10.1702 20.2551 10.2926 20.1064C10.3977 19.9697 10.5287 19.8551 10.6781 19.769C10.8275 19.6829 10.9924 19.6271 11.1634 19.6048C11.3344 19.5825 11.5081 19.594 11.6746 19.6388C11.8411 19.6836 11.9971 19.7608 12.1338 19.8659C12.2705 19.971 12.3851 20.102 12.4712 20.2514C12.5573 20.4008 12.6131 20.5657 12.6354 20.7366C12.6577 20.9076 12.6462 21.0813 12.6014 21.2478C12.5566 21.4143 12.4794 21.5704 12.3743 21.707C12.3131 21.7945 10.625 24.2173 12.8904 28.2058C13.0502 28.5043 13.0885 28.8529 12.9972 29.179C12.9059 29.505 12.6922 29.7831 12.4006 29.9551C12.2076 30.0832 11.9844 30.1585 11.7533 30.1738Z" fill="#4298FF"/>
</svg>
