<svg width="33" height="33" viewBox="0 0 33 33" fill="none" xmlns="http://www.w3.org/2000/svg">
<path d="M10.9947 29.77C8.36135 29.7663 5.83691 28.7185 3.97483 26.8565C2.11276 24.9944 1.065 22.4699 1.06128 19.8366C1.06128 11.2407 9.8472 1.77194 10.2133 1.37066C10.3128 1.26272 10.4337 1.17658 10.5682 1.11766C10.7026 1.05874 10.8479 1.02832 10.9947 1.02832C11.1416 1.02832 11.2868 1.05874 11.4213 1.11766C11.5558 1.17658 11.6766 1.26272 11.7762 1.37066C12.0085 1.63818 17.4926 7.89674 19.851 14.4439C19.9094 14.5769 19.9397 14.7204 19.9401 14.8655C19.9405 15.0107 19.9109 15.1543 19.8533 15.2875C19.7957 15.4208 19.7112 15.5407 19.6052 15.6398C19.4991 15.7389 19.3738 15.8151 19.237 15.8636C19.1002 15.9121 18.9549 15.9319 18.8101 15.9217C18.6653 15.9116 18.5242 15.8717 18.3955 15.8045C18.2668 15.7373 18.1534 15.6444 18.0622 15.5314C17.9711 15.4184 17.9042 15.2879 17.8658 15.1479C16.148 10.3889 12.5435 5.62986 10.9666 3.67978C8.85456 6.18602 3.16624 13.4654 3.16624 19.8014C3.16253 20.8318 3.36229 21.8528 3.75405 22.8059C4.1458 23.7589 4.72186 24.6252 5.44917 25.3552C6.17648 26.0851 7.04074 26.6643 7.99237 27.0594C8.94401 27.4546 9.9643 27.658 10.9947 27.658C12.2581 27.6602 13.5028 27.3533 14.6203 26.7639C14.8686 26.6342 15.1584 26.6084 15.4257 26.6922C15.6931 26.776 15.9162 26.9627 16.0459 27.211C16.1757 27.4593 16.2015 27.749 16.1177 28.0164C16.0338 28.2837 15.8472 28.5068 15.5989 28.6366C14.1778 29.3795 12.5983 29.7683 10.9947 29.77Z" fill="#4298FF"/>
<path d="M17.908 22.3007H16.5C16.2525 22.3197 16.0054 22.258 15.796 22.1247C15.7141 22.0484 15.6516 21.9537 15.6136 21.8484C15.5757 21.7431 15.5634 21.6303 15.5778 21.5193C15.5662 21.403 15.581 21.2855 15.6213 21.1758C15.6615 21.0661 15.7261 20.9669 15.8101 20.8857C16.0164 20.7584 16.2586 20.7016 16.5 20.7237H18.788C18.9276 20.7059 19.0695 20.7229 19.201 20.7732C19.3324 20.8236 19.4493 20.9058 19.5413 21.0124C19.6943 21.3221 19.76 21.6677 19.7314 22.0121C19.7341 22.5681 19.6631 23.1221 19.5202 23.6594C19.3899 24.1634 19.1495 24.6323 18.8162 25.0322C18.4798 25.4439 18.0502 25.7697 17.563 25.9826C16.9707 26.2301 16.3321 26.3477 15.6904 26.3276C15.0238 26.337 14.3616 26.2174 13.7403 25.9756C13.1844 25.7414 12.6851 25.391 12.276 24.9477C11.8584 24.495 11.5396 23.9604 11.3397 23.3778C11.1208 22.7125 11.0137 22.0155 11.0229 21.3151C11.0089 20.6384 11.1016 19.9636 11.2974 19.3157C11.4891 18.7244 11.7953 18.1766 12.1986 17.7036C12.5948 17.2413 13.0874 16.8712 13.6418 16.6194C14.2568 16.3436 14.925 16.2066 15.5989 16.2181C15.9932 16.2158 16.3869 16.2512 16.7746 16.3237C17.1869 16.4101 17.5819 16.5648 17.9432 16.7813C18.189 16.9317 18.4242 17.0987 18.6472 17.2812C18.8378 17.4377 19.0081 17.6174 19.1541 17.8162C19.2706 17.9674 19.3436 18.1475 19.3653 18.3372C19.3726 18.4228 19.3553 18.5087 19.3153 18.5848C19.2754 18.6609 19.2146 18.724 19.14 18.7666C18.961 18.9346 18.73 19.0365 18.4853 19.0553C18.3547 19.0689 18.2227 19.0545 18.0981 19.013C17.9627 18.9746 17.8407 18.899 17.7461 18.7948C17.4587 18.4603 17.1067 18.1873 16.7112 17.9922C16.3471 17.8442 15.9566 17.7724 15.5637 17.781C15.1883 17.7805 14.8177 17.8647 14.4795 18.0274C14.1412 18.1965 13.8435 18.4366 13.6066 18.7314C13.3345 19.0472 13.1222 19.4097 12.98 19.8015C12.8314 20.2559 12.7577 20.7314 12.7618 21.2095C12.7536 21.7132 12.8273 22.2149 12.98 22.6949C13.1047 23.0971 13.3081 23.4704 13.5784 23.7932C13.8254 24.095 14.1386 24.3358 14.4936 24.4972C14.8644 24.667 15.2686 24.7512 15.6763 24.7436C15.975 24.7483 16.271 24.6857 16.5422 24.5605C16.8054 24.4352 17.0439 24.2635 17.2462 24.0537C17.459 23.8325 17.6264 23.5718 17.739 23.2863C17.8552 22.9709 17.9125 22.6368 17.908 22.3007ZM20.9 16.3801C20.8957 16.288 20.9117 16.196 20.947 16.1108C20.9823 16.0257 21.036 15.9493 21.1042 15.8873C21.2986 15.7561 21.5324 15.6964 21.7659 15.7183C22.0141 15.6907 22.2639 15.7532 22.4699 15.8943C22.5354 15.9581 22.5867 16.0349 22.6207 16.1198C22.6546 16.2047 22.6704 16.2957 22.667 16.3871V25.5884C22.666 25.6705 22.6442 25.7511 22.6035 25.8225C22.5629 25.8939 22.5048 25.9538 22.4347 25.9967C22.2468 26.1188 22.0249 26.178 21.8011 26.1657C21.5796 26.178 21.3599 26.1187 21.1746 25.9967C21.1022 25.9558 21.042 25.8964 21 25.8247C20.9579 25.753 20.9356 25.6715 20.9352 25.5884L20.9 16.3801ZM25.7576 22.8357C25.7547 23.0971 25.7711 23.3583 25.8069 23.6172C25.8381 23.8185 25.9074 24.012 26.011 24.1874C26.1054 24.3449 26.2453 24.4701 26.4123 24.5465C26.6213 24.635 26.8473 24.6759 27.0741 24.6661C27.2786 24.6704 27.4826 24.6443 27.6795 24.5887C27.8614 24.5392 28.0267 24.442 28.1582 24.3071C28.3033 24.1526 28.4116 23.9672 28.475 23.765C28.5618 23.4848 28.6022 23.1923 28.5947 22.8991V19.2031C28.5971 19.1204 28.6203 19.0397 28.6622 18.9683C28.704 18.897 28.7631 18.8373 28.8341 18.7948C29.0172 18.682 29.228 18.6224 29.443 18.6224C29.6581 18.6224 29.8689 18.682 30.052 18.7948C30.1216 18.8371 30.1797 18.8958 30.2215 18.9657C30.2632 19.0357 30.2872 19.1147 30.2914 19.1961V25.5813C30.2889 25.6657 30.2641 25.7479 30.2196 25.8196C30.1751 25.8913 30.1124 25.95 30.0379 25.9897C29.8554 26.1063 29.6419 26.1652 29.4254 26.1586C29.2154 26.1663 29.0083 26.1072 28.8341 25.9897C28.7617 25.9487 28.7015 25.8894 28.6595 25.8177C28.6174 25.746 28.5951 25.6644 28.5947 25.5813V24.8773C28.5081 25.044 28.4092 25.204 28.299 25.3561C28.1811 25.5157 28.0413 25.6579 27.8837 25.7785C27.7183 25.9103 27.5329 26.0149 27.3346 26.0882C27.1089 26.1696 26.8705 26.2101 26.6306 26.2079C26.2977 26.2156 25.9662 26.1631 25.652 26.053C25.3478 25.9387 25.07 25.7639 24.8354 25.5391C24.594 25.2986 24.4047 25.011 24.2792 24.6943C24.132 24.3271 24.0556 23.9353 24.0539 23.5397V19.2031C24.0549 19.1208 24.0759 19.0399 24.1152 18.9676C24.1544 18.8952 24.2107 18.8335 24.2792 18.7877C24.4623 18.6732 24.6759 18.6167 24.8917 18.6258C25.1118 18.6178 25.3296 18.674 25.5182 18.7877C25.5897 18.8314 25.6491 18.8923 25.691 18.9648C25.7328 19.0374 25.7557 19.1194 25.7576 19.2031V22.8357Z" fill="#A1CCFF"/>
<path d="M6.7848 24.2862C6.59833 24.287 6.41505 24.2379 6.25407 24.1437C6.09309 24.0496 5.96031 23.914 5.8696 23.7511C3.30704 19.2666 5.5176 16.3028 5.60912 16.1831C5.69371 16.0731 5.79914 15.9808 5.9194 15.9116C6.03965 15.8423 6.17237 15.7974 6.30998 15.7794C6.44759 15.7614 6.58739 15.7707 6.72141 15.8068C6.85542 15.8428 6.98102 15.9049 7.09104 15.9895C7.20106 16.0741 7.29333 16.1796 7.3626 16.2998C7.43187 16.4201 7.47678 16.5528 7.49476 16.6904C7.51273 16.828 7.50343 16.9678 7.46738 17.1018C7.43133 17.2358 7.36923 17.3614 7.28464 17.4714C7.23536 17.5418 5.87664 19.4919 7.7 22.7022C7.82864 22.9424 7.85945 23.223 7.78598 23.4854C7.71251 23.7478 7.54044 23.9717 7.30576 24.1102C7.1504 24.2132 6.97082 24.2739 6.7848 24.2862Z" fill="#4298FF"/>
</svg>
