<svg width="33" height="33" viewBox="0 0 33 33" fill="none" xmlns="http://www.w3.org/2000/svg">
<path d="M4.73989 15.3017C4.50926 15.3019 4.28499 15.2261 4.10185 15.0859C3.91872 14.9457 3.78696 14.749 3.72699 14.5263C3.50283 13.6969 3.38315 12.8427 3.37073 11.9836C3.35967 10.892 3.56408 9.80896 3.97226 8.79651C4.38043 7.78406 4.98434 6.86209 5.74939 6.08341C6.51445 5.30472 7.42562 4.68463 8.43071 4.25865C9.43579 3.83267 10.515 3.60917 11.6066 3.60096H11.6695C13.3494 3.61348 14.986 4.13468 16.3638 5.09586C17.7512 4.09893 19.4126 3.55487 21.1209 3.53809H21.2536C23.4372 3.54903 25.5285 4.41937 27.0751 5.96075C28.6217 7.50213 29.4992 9.59054 29.5175 11.774C29.5233 12.6226 29.4295 13.469 29.2381 14.2958C29.2156 14.4373 29.1644 14.5728 29.0875 14.6938C29.0106 14.8147 28.9097 14.9186 28.791 14.9991C28.6724 15.0795 28.5385 15.1347 28.3976 15.1613C28.2568 15.1879 28.112 15.1853 27.9722 15.1537C27.8324 15.1221 27.7005 15.0622 27.5848 14.9776C27.4691 14.893 27.372 14.7855 27.2994 14.6619C27.2269 14.5383 27.1805 14.4011 27.1631 14.2588C27.1457 14.1165 27.1577 13.9722 27.1983 13.8347C27.3501 13.1655 27.4251 12.4812 27.4219 11.795C27.4072 10.1642 26.7525 8.60451 25.5987 7.45201C24.4449 6.29951 22.8844 5.6465 21.2536 5.63374H21.2047C19.7005 5.64756 18.2527 6.20878 17.1322 7.21247C16.9394 7.38287 16.691 7.47693 16.4336 7.47693C16.1763 7.47693 15.9279 7.38287 15.7351 7.21247C14.5944 6.23702 13.1424 5.70181 11.6416 5.70359C10.824 5.70996 10.0157 5.8779 9.26328 6.19775C8.51082 6.51759 7.82902 6.98303 7.25709 7.5673C6.68515 8.15158 6.23436 8.84315 5.93064 9.60226C5.62692 10.3614 5.47627 11.173 5.48734 11.9906C5.49382 12.6708 5.59012 13.3473 5.77375 14.0024C5.84438 14.271 5.80624 14.5566 5.66761 14.7972C5.52899 15.0378 5.30105 15.2141 5.03328 15.2877C4.93641 15.3042 4.83789 15.3089 4.73989 15.3017ZM16.5733 29.4264C16.3586 29.4262 16.149 29.3604 15.9726 29.2378C13.2218 27.2461 10.6905 24.9676 8.42126 22.4409C8.23599 22.2325 8.14111 21.959 8.15748 21.6806C8.17386 21.4022 8.30015 21.1417 8.50857 20.9565C8.717 20.7712 8.99049 20.6763 9.26887 20.6927C9.54725 20.7091 9.80773 20.8354 9.993 21.0438C11.9892 23.2636 14.1978 25.2827 16.5873 27.0723C19.033 25.2833 21.2707 23.226 23.2585 20.939C23.4382 20.7269 23.6948 20.5948 23.9719 20.5719C24.249 20.549 24.5238 20.637 24.7359 20.8168C24.9481 20.9965 25.0801 21.2531 25.103 21.5302C25.126 21.8072 25.0379 22.0821 24.8582 22.2942C22.5961 24.9178 20.0147 27.2481 17.1741 29.2308C16.9979 29.3547 16.7887 29.4228 16.5733 29.4264Z" fill="#4298FF"/>
<path d="M18.8786 22.7205C18.676 22.7204 18.4778 22.6617 18.308 22.5513C18.1381 22.441 18.0039 22.2838 17.9216 22.0988L15.9935 17.7608L14.1843 20.8554C14.0914 21.0197 13.9547 21.1551 13.7895 21.2463C13.6242 21.3376 13.4368 21.3812 13.2482 21.3723C13.0593 21.3676 12.8751 21.3119 12.7152 21.211C12.5554 21.1102 12.4258 20.968 12.3401 20.7995L9.32937 14.7919L7.47821 20.555C7.40665 20.7605 7.27247 20.9384 7.09454 21.0637C6.91661 21.189 6.70388 21.2554 6.48627 21.2535H3.59426C3.31746 21.2518 3.05229 21.142 2.85526 20.9475C2.65823 20.7531 2.54491 20.4894 2.53945 20.2127C2.55719 19.9489 2.67464 19.7018 2.86794 19.5215C3.06125 19.3411 3.31593 19.2411 3.58029 19.2417H5.71087L8.11389 11.7183C8.17917 11.5238 8.30123 11.3532 8.46434 11.2287C8.62745 11.1042 8.82412 11.0314 9.02899 11.0197C9.23668 11.003 9.44464 11.0486 9.62631 11.1506C9.80797 11.2526 9.9551 11.4065 10.0489 11.5926L13.346 18.1659L15.2182 14.9666C15.315 14.7994 15.4565 14.6625 15.6268 14.5713C15.797 14.48 15.9893 14.4378 16.1822 14.4496C16.3749 14.4609 16.5608 14.5248 16.7197 14.6344C16.8786 14.7441 17.0044 14.8952 17.0833 15.0713L18.7389 18.8226L21.3794 10.922C21.4498 10.7293 21.5742 10.561 21.7377 10.4371C21.9012 10.3133 22.0969 10.2391 22.3015 10.2234C22.507 10.2086 22.7123 10.2551 22.8914 10.3571C23.0705 10.459 23.2153 10.6119 23.3074 10.7962L26.5626 17.174H29.4057C29.6836 17.174 29.9501 17.2845 30.1465 17.481C30.343 17.6775 30.4534 17.9439 30.4534 18.2218C30.4534 18.4997 30.343 18.7662 30.1465 18.9627C29.9501 19.1592 29.6836 19.2696 29.4057 19.2696H25.913C25.7194 19.2692 25.5297 19.2156 25.3646 19.1145C25.1995 19.0135 25.0654 18.869 24.9769 18.6968L22.5809 13.9187L19.8565 22.008C19.787 22.2052 19.6601 22.3772 19.492 22.5016C19.3239 22.6261 19.1224 22.6975 18.9135 22.7065L18.8786 22.7205Z" fill="#A1CCFF"/>
</svg>
