<svg width="33" height="33" viewBox="0 0 33 33" fill="none" xmlns="http://www.w3.org/2000/svg">
<path d="M21.0732 10.4927C20.2563 10.4927 19.4578 10.2505 18.7786 9.79664C18.0994 9.34281 17.57 8.69777 17.2574 7.94309C16.9448 7.18841 16.863 6.35798 17.0224 5.55681C17.1818 4.75564 17.5751 4.01972 18.1527 3.44211C18.7303 2.8645 19.4663 2.47115 20.2674 2.31178C21.0686 2.15242 21.899 2.23421 22.6537 2.54681C23.4084 2.85941 24.0534 3.38878 24.5073 4.06798C24.9611 4.74717 25.2033 5.54569 25.2033 6.36256C25.2013 7.45733 24.7656 8.50669 23.9914 9.28081C23.2173 10.0549 22.168 10.4907 21.0732 10.4927ZM21.0732 4.48522C20.7019 4.48522 20.3389 4.59533 20.0302 4.80161C19.7215 5.0079 19.4808 5.3011 19.3388 5.64413C19.1967 5.98717 19.1595 6.36464 19.2319 6.72881C19.3044 7.09297 19.4832 7.42748 19.7457 7.69003C20.0083 7.95258 20.3428 8.13138 20.7069 8.20382C21.0711 8.27626 21.4486 8.23908 21.7916 8.09699C22.1346 7.9549 22.4278 7.71427 22.6341 7.40555C22.8404 7.09682 22.9505 6.73386 22.9505 6.36256C22.9505 5.86466 22.7527 5.38715 22.4007 5.03508C22.0486 4.68301 21.5711 4.48522 21.0732 4.48522Z" fill="#4298FF"/>
<path d="M26.3297 19.5033H15.8167C15.5179 19.5033 15.2314 19.3847 15.0202 19.1734C14.8089 18.9622 14.6903 18.6757 14.6903 18.3769V13.1204C14.6863 12.6781 14.77 12.2393 14.9365 11.8295C15.1031 11.4197 15.3491 11.0469 15.6605 10.7328C15.9719 10.4186 16.3425 10.1692 16.7508 9.99899C17.1591 9.82881 17.5971 9.74119 18.0394 9.74121H24.107C24.9952 9.74121 25.8471 10.0941 26.4752 10.7222C27.1033 11.3502 27.4561 12.2021 27.4561 13.0904V18.3469C27.4601 18.4973 27.434 18.647 27.3792 18.7872C27.3243 18.9273 27.242 19.0551 27.137 19.1629C27.032 19.2707 26.9065 19.3563 26.7678 19.4148C26.6292 19.4733 26.4802 19.5034 26.3297 19.5033ZM16.9431 17.2505H25.2033V13.0904C25.2033 12.7996 25.0878 12.5207 24.8822 12.3151C24.6766 12.1095 24.3977 11.994 24.107 11.994H18.0394C17.7492 11.996 17.4715 12.1121 17.2663 12.3173C17.0612 12.5225 16.945 12.8002 16.9431 13.0904V17.2505Z" fill="#4298FF"/>
<path d="M21.0732 30.7678C19.9784 30.7658 18.9291 30.33 18.1549 29.5559C17.3808 28.7818 16.945 27.7324 16.9431 26.6376V18.3774C16.9431 18.0786 17.0617 17.7921 17.273 17.5809C17.4842 17.3697 17.7707 17.251 18.0694 17.251H24.0769C24.3757 17.251 24.6622 17.3697 24.8734 17.5809C25.0846 17.7921 25.2033 18.0786 25.2033 18.3774V26.6376C25.2013 27.7324 24.7656 28.7818 23.9914 29.5559C23.2173 30.33 22.168 30.7658 21.0732 30.7678ZM19.1959 19.5038V26.6376C19.1959 27.1355 19.3936 27.6131 19.7457 27.9651C20.0978 28.3172 20.5753 28.515 21.0732 28.515C21.5711 28.515 22.0486 28.3172 22.4007 27.9651C22.7527 27.6131 22.9505 27.1355 22.9505 26.6376V19.5038H19.1959Z" fill="#4298FF"/>
<path d="M27.8316 30.7677H8.30732C8.15939 30.7677 8.01292 30.7386 7.87626 30.6819C7.7396 30.6253 7.61543 30.5424 7.51083 30.4378C7.40624 30.3332 7.32327 30.209 7.26666 30.0723C7.21005 29.9357 7.18092 29.7892 7.18092 29.6413V16.8754C7.18092 16.5767 7.29959 16.2902 7.51083 16.0789C7.72207 15.8677 8.00858 15.749 8.30732 15.749C8.60606 15.749 8.89256 15.8677 9.1038 16.0789C9.31504 16.2902 9.43372 16.5767 9.43372 16.8754V28.5149H27.8316C28.1303 28.5149 28.4168 28.6336 28.6281 28.8448C28.8393 29.056 28.958 29.3426 28.958 29.6413C28.958 29.94 28.8393 30.2265 28.6281 30.4378C28.4168 30.649 28.1303 30.7677 27.8316 30.7677Z" fill="#4298FF"/>
<path d="M11.8517 19.909C11.572 19.9025 11.3045 19.7929 11.1008 19.6011L4.41748 13.3534C4.24194 13.1446 4.1481 12.8793 4.15335 12.6066C4.15861 12.334 4.26262 12.0725 4.44608 11.8707C4.62953 11.6689 4.87997 11.5405 5.15091 11.5093C5.42185 11.4782 5.69489 11.5464 5.91935 11.7013L12.6027 17.9566C12.7115 18.0571 12.7993 18.1783 12.861 18.3131C12.9226 18.4478 12.9569 18.5935 12.9618 18.7416C12.9666 18.8897 12.9421 19.0373 12.8894 19.1758C12.8368 19.3143 12.7572 19.441 12.6552 19.5486C12.5532 19.6606 12.4292 19.7504 12.291 19.8124C12.1527 19.8744 12.0032 19.9073 11.8517 19.909Z" fill="#A1CCFF"/>
<path d="M8.30732 30.7674H5.30359C5.00485 30.7674 4.71834 30.6488 4.5071 30.4375C4.29586 30.2263 4.17719 29.9398 4.17719 29.641C4.17719 29.3423 4.29586 29.0558 4.5071 28.8446C4.71834 28.6333 5.00485 28.5146 5.30359 28.5146H8.30732C8.60606 28.5146 8.89256 28.6333 9.1038 28.8446C9.31504 29.0558 9.43372 29.3423 9.43372 29.641C9.43372 29.9398 9.31504 30.2263 9.1038 30.4375C8.89256 30.6488 8.60606 30.7674 8.30732 30.7674Z" fill="#4298FF"/>
</svg>
