<svg xmlns="http://www.w3.org/2000/svg" width="20" height="20" viewBox="0 0 20 20"><defs><style>.a{fill:#58aa6c;}</style></defs><g transform="translate(-115.678 -98.2)"><path class="a" d="M565.022,105.224a1.006,1.006,0,0,1,1,1c0,.277.028.912.306.912.372,0,.7-.635.7-.912a2.008,2.008,0,0,0-2.007-2.007c-.277,0-.822.581-.822.858S564.745,105.224,565.022,105.224Zm7.4-2.122a8.018,8.018,0,0,0-7.4-4.9c-.277,0-.822.581-.822.858s.545.146.822.146a7.034,7.034,0,0,1,7.024,7.024c0,.277,0,.912.275.912.447,0,.727-.635.727-.912A7.962,7.962,0,0,0,572.419,103.1Z" transform="translate(-437.371)"/><path class="a" d="M128.349,164.353a3.842,3.842,0,0,1,3.934,3.73c0,.258.028.848.3.848.365,0,.685-.59.685-.848a4.547,4.547,0,0,0-1.441-3.3,5.06,5.06,0,0,0-3.478-1.366,1.214,1.214,0,0,0-.806.8C127.543,164.475,128.077,164.353,128.349,164.353Zm6.007,11.652a1.942,1.942,0,0,1,.083,2.247l-.952.227a4.306,4.306,0,0,1-2.511,1.1,6.3,6.3,0,0,1-.766.045,9.013,9.013,0,0,1-2.4-.356,16.922,16.922,0,0,1-6.84-4.089,15.831,15.831,0,0,1-4.312-6.486,4.894,4.894,0,0,1-.2-3.219,5.751,5.751,0,0,1,1.164-2.185,6.669,6.669,0,0,1,.743-.8,1.279,1.279,0,0,1,1.738,0l3.821,3.621c1.151,1.111,1.123,1.731.481,2.4l-.882.874c-.375.346-.257,1.158.922,2.5,1.264,1.433,2.783,1.951,3.277,1.483l1.07-.989a1.279,1.279,0,0,1,1.738,0Z" transform="translate(-0.569 -62.307)"/><path class="a" d="M133.773,130.725a1.139,1.139,0,0,1,0,1.66l-.87.83a4.3,4.3,0,0,1-2.514,1.112,6.271,6.271,0,0,1-.767.046,8.969,8.969,0,0,1-2.4-.359,16.92,16.92,0,0,1-6.849-4.12,15.96,15.96,0,0,1-4.317-6.536,7.187,7.187,0,0,1-.33-3.025,3.923,3.923,0,0,1,1.165-2.4l.87-.83a1.275,1.275,0,0,1,1.74,0l3.828,3.653a1.139,1.139,0,0,1,0,1.66l-.87.83c-.492.469,0,1.992,1.392,3.323s2.988,1.8,3.482,1.328l.87-.83a1.275,1.275,0,0,1,1.74,0Zm-6.3-9.346a.966.966,0,0,1,.986.941.492.492,0,0,0,.983,0,1.927,1.927,0,0,0-1.969-1.879.47.47,0,1,0,0,.938Zm7.26-1.988a7.889,7.889,0,0,0-7.26-4.591.47.47,0,1,0,0,.938,6.751,6.751,0,0,1,6.894,6.579.492.492,0,0,0,.983,0A7.21,7.21,0,0,0,134.736,119.391Z" transform="translate(0 -16.174)"/><path class="a" d="M564.5,232.9a4.019,4.019,0,0,1,4.013,4.013.5.5,0,0,0,1,0A5.018,5.018,0,0,0,564.5,231.9a.5.5,0,1,0,0,1Z" transform="translate(-437.092 -130.553)"/></g></svg>