<svg xmlns="http://www.w3.org/2000/svg" width="14.804" height="14.804" viewBox="0 0 14.804 14.804"><path d="M70.971,73.294l.431.611.431-.611c.018-.024,1.774-2.506,2.327-3.126a3.7,3.7,0,1,0-5.517,0C69.2,70.788,70.953,73.269,70.971,73.294Zm.431-8.236a2.643,2.643,0,0,1,1.97,4.406c-.417.466-1.4,1.817-1.97,2.614-.571-.8-1.552-2.148-1.97-2.614a2.643,2.643,0,0,1,1.97-4.406Zm0,4.23A1.586,1.586,0,1,0,69.816,67.7,1.588,1.588,0,0,0,71.4,69.287Zm0-2.115a.529.529,0,1,1-.529.529A.53.53,0,0,1,71.4,67.172Zm7.4-2.1V76.692L74.178,78.8l-4.891-2.115L64,78.793V67.208l2.78-1.122a4.713,4.713,0,0,0-.136,1.086c0,.036.008.07.01.106l-1.6.644v9.313l3.172-1.263V70.808c.3.386.685.91,1.057,1.423v3.32l.017-.006.4.174,3.81,1.646V72.233c.38-.522.763-1.044,1.057-1.423v6.651l3.172-1.449V66.72l-1.612.736c.005-.1.025-.188.025-.283a4.821,4.821,0,0,0-.086-.852Z" transform="translate(-64 -64)"/></svg>