<svg xmlns="http://www.w3.org/2000/svg" width="24.511" height="22.3" viewBox="0 0 24.511 22.3"><defs><style>.a{fill:#666;stroke:#666;stroke-miterlimit:10;stroke-width:0.3px;}</style></defs><g transform="translate(-72.886 -133.789)"><path class="a" d="M96.554,140.515l-3.815-5.338a2.919,2.919,0,0,0-2.359-1.238h-10.4a2.917,2.917,0,0,0-2.353,1.229l-3.887,5.4a3.2,3.2,0,0,0,.177,3.945l9.072,10.416a2.893,2.893,0,0,0,2.177,1.007h.007a2.892,2.892,0,0,0,2.179-1.019l9.035-10.481a3.212,3.212,0,0,0,.171-3.925Zm-1.422,2.742L86.1,153.737a1.217,1.217,0,0,1-.934.436h0a1.221,1.221,0,0,1-.932-.431l-9.074-10.415a1.373,1.373,0,0,1-.076-1.69l3.888-5.4a1.252,1.252,0,0,1,1.008-.527h10.4a1.252,1.252,0,0,1,1.011.53l3.815,5.338A1.378,1.378,0,0,1,95.132,143.257Z" transform="translate(0 0)"/><path class="a" d="M311.865,438.5l-4.272,4.5-4.275-4.532a.843.843,0,0,0-1.226,1.156l4.886,5.18a.841.841,0,0,0,.612.264h0a.843.843,0,0,0,.611-.263l4.886-5.149a.842.842,0,1,0-1.223-1.159Z" transform="translate(-222.449 -295.325)"/></g></svg>