<svg xmlns="http://www.w3.org/2000/svg" xmlns:xlink="http://www.w3.org/1999/xlink" width="25.231" height="23" viewBox="0 0 25.231 23"><defs><style>.a{stroke:rgba(0,0,0,0);stroke-miterlimit:10;fill:url(#a);}</style><linearGradient id="a" x1="0.5" x2="0.5" y2="1" gradientUnits="objectBoundingBox"><stop offset="0" stop-color="#90e3b1"/><stop offset="1" stop-color="#58aa6c"/></linearGradient></defs><path class="a" d="M100.4,141.641,96.58,136.3a2.922,2.922,0,0,0-2.359-1.238h-10.4a2.917,2.917,0,0,0-2.353,1.229l-3.888,5.4a3.2,3.2,0,0,0,.177,3.945l9.072,10.417A2.893,2.893,0,0,0,89,157.066h.008a2.9,2.9,0,0,0,2.179-1.019l9.034-10.479A3.216,3.216,0,0,0,100.4,141.641Zm-5.917,3.695-4.885,5.4a.826.826,0,0,1-.611.275h0a.826.826,0,0,1-.612-.277L83.486,145.3a.914.914,0,0,1,.035-1.248.816.816,0,0,1,1.191.037l4.273,4.75,4.271-4.719a.815.815,0,0,1,1.191-.032.911.911,0,0,1,.032,1.247Z" transform="translate(-76.365 -134.566)"/></svg>