<svg xmlns="http://www.w3.org/2000/svg" xmlns:xlink="http://www.w3.org/1999/xlink" width="14" height="20" viewBox="0 0 14 20"><defs><style>.a{fill:url(#a);}</style><linearGradient id="a" x1="0.5" x2="0.5" y2="1" gradientUnits="objectBoundingBox"><stop offset="0" stop-color="#90e3b1"/><stop offset="1" stop-color="#58aa6c"/></linearGradient></defs><path class="a" d="M64.535,202.014a1.53,1.53,0,0,1-.444,1.281,2.371,2.371,0,0,1-1.421.337h-1.4q-.955,0-2.032.011t-2.1.011H55.518a4.332,4.332,0,0,0-1.344.169.7.7,0,0,0-.478.775q0,.449-.022,1.067t-.022,1.09q0,.787-.422,1t-1.088-.3q-.666-.539-1.577-1.27t-1.855-1.494q-.944-.764-1.866-1.506t-1.632-1.3a1.487,1.487,0,0,1-.677-1.022,1.351,1.351,0,0,1,.611-1q.622-.539,1.488-1.247t1.8-1.461q.933-.753,1.832-1.494l1.61-1.326q.777-.629,1.277-.483t.5.955v.562q0,.315.011.652t.022.663q.011.326.011.573.022.562.355.708a2.316,2.316,0,0,0,.911.146q.644,0,1.688-.011t2.177-.011q1.133,0,2.2-.011t1.732-.011a4.194,4.194,0,0,1,.6.045,1.371,1.371,0,0,1,.566.213,1.3,1.3,0,0,1,.422.472,1.654,1.654,0,0,1,.167.8q0,.607.011,1.169T64.535,202.014Z" transform="translate(-193.818 64.535) rotate(-90)"/></svg>