<svg xmlns="http://www.w3.org/2000/svg" xmlns:xlink="http://www.w3.org/1999/xlink" width="22" height="22" viewBox="0 0 22 22"><defs><style>.a{opacity:0.154;}.a,.b{fill:url(#a);}.b{stroke:rgba(0,0,0,0);stroke-miterlimit:10;}</style><linearGradient id="a" x1="0.5" x2="0.5" y2="1" gradientUnits="objectBoundingBox"><stop offset="0" stop-color="#90e3b1"/><stop offset="1" stop-color="#58aa6c"/></linearGradient></defs><g transform="translate(-24 -723)"><g transform="translate(-2 30)"><rect class="a" width="22" height="22" rx="8" transform="translate(26 693)"/></g><path class="b" d="M114.538,135.3a.6.6,0,0,0-.826-.185L110,137.408c-.107.068-.223.146-.408.253h6.51C115.568,136.844,115.053,136.067,114.538,135.3Zm5.247,3.313c-2.905,0-5.8.01-8.706.01-1.215,0-2.429-.01-3.653-.01-.165,0-.4.01-.593.01a.158.158,0,0,0-.155.117l-.573,2.186a.163.163,0,0,0,.087.185,4.094,4.094,0,0,1,.534.321,2.011,2.011,0,0,1,.923,1.389v.194a2.047,2.047,0,0,1-.933,1.389,3.885,3.885,0,0,1-.534.321.163.163,0,0,0-.087.185l.564,2.186a.155.155,0,0,0,.155.117c.194,0,.428.01.593.01,1.224,0,2.439-.01,3.653-.01,2.905,0,5.8.01,8.706.01a.164.164,0,0,0,.165-.165v-2.565a.2.2,0,0,0-.068-.136,2.783,2.783,0,0,1-.5-.447,1.629,1.629,0,0,1-.4-1.01,1.734,1.734,0,0,1,.4-1.011,6.084,6.084,0,0,1,.505-.428.17.17,0,0,0,.068-.136v-2.546A.162.162,0,0,0,119.785,138.612ZM108.591,139.8a.164.164,0,0,1,.165-.165h.593a.058.058,0,0,1,.039.01.159.159,0,0,1,.1.146v.573a.152.152,0,0,1-.087.136.088.088,0,0,1-.049.01h-.6a.164.164,0,0,1-.165-.165V139.8Zm.894,6.238a.15.15,0,0,1-.1.146c-.01,0-.029.01-.039.01h-.6a.164.164,0,0,1-.165-.165v-.554a.164.164,0,0,1,.165-.165h.593a.073.073,0,0,1,.049.01.165.165,0,0,1,.087.136v.583Zm0-1.895a.161.161,0,0,1-.049.117.146.146,0,0,1-.107.039h-.583a.123.123,0,0,1-.058-.01.151.151,0,0,1-.087-.146v-.564a.164.164,0,0,1,.165-.165h.564a.164.164,0,0,1,.165.165v.564Zm0-1.895a.164.164,0,0,1-.165.165h-.564a.164.164,0,0,1-.165-.165v-.554a.168.168,0,0,1,.087-.146.248.248,0,0,1,.068-.019h.583a.2.2,0,0,1,.107.039.161.161,0,0,1,.049.117v.564Zm6.209,2.157h-1.011v.6a.485.485,0,0,1-.515.534.491.491,0,0,1-.593-.476c-.019-.2,0-.408,0-.651-.389,0-.729.01-1.079,0a.4.4,0,0,1-.408-.525.373.373,0,0,1,.4-.233h1.049v-.379h-1.049a.384.384,0,0,1-.428-.359.355.355,0,0,1,.369-.36c.262-.01.525,0,.836,0a2.336,2.336,0,0,0-.136-.272c-.243-.418-.486-.845-.729-1.263a.5.5,0,0,1,.087-.651.446.446,0,0,1,.641.117,7.276,7.276,0,0,1,.408.7c.194.34.369.68.573,1.049.33-.544.632-1.059.942-1.564a.9.9,0,0,1,.214-.253.471.471,0,0,1,.593-.029.45.45,0,0,1,.049.593c-.262.447-.544.884-.806,1.321-.039.068-.078.136-.136.233h.816c.253,0,.4.126.4.34a.368.368,0,0,1-.4.379c-.36.01-.709,0-1.079,0v.379h1.01c.311,0,.476.136.476.379C116.17,144.267,116.015,144.4,115.694,144.4Z" transform="translate(-78.09 592.979)"/></g></svg>