<svg xmlns="http://www.w3.org/2000/svg" xmlns:xlink="http://www.w3.org/1999/xlink" width="22" height="22" viewBox="0 0 22 22"><defs><style>.a{opacity:0.154;}.a,.b{fill:url(#a);}</style><linearGradient id="a" x1="0.5" x2="0.5" y2="1" gradientUnits="objectBoundingBox"><stop offset="0" stop-color="#90e3b1"/><stop offset="1" stop-color="#58aa6c"/></linearGradient></defs><g transform="translate(-26 -693)"><rect class="a" width="22" height="22" rx="8" transform="translate(26 693)"/><g transform="translate(29.527 698.59)"><path class="b" d="M12.528,12H1.468A1.447,1.447,0,0,1,0,10.579V9.4A1.1,1.1,0,0,1,.374,8.58,1.808,1.808,0,0,0,.988,7.152,1.8,1.8,0,0,0,.374,5.724,1.1,1.1,0,0,1,0,4.9V3.933l0-.221A1.45,1.45,0,0,1,1.47,2.3h.42a.435.435,0,0,1,.173-.114L7.81.149A2.592,2.592,0,0,1,8.677,0,2.537,2.537,0,0,1,10.9,1.288L11.467,2.3h1.066a1.49,1.49,0,0,1,.995.377A1.4,1.4,0,0,1,14,3.6l0,.124V4.9a1.107,1.107,0,0,1-.373.823,1.8,1.8,0,0,0-.615,1.427,1.808,1.808,0,0,0,.615,1.428A1.1,1.1,0,0,1,14,9.4v.815l0,.369A1.447,1.447,0,0,1,12.528,12ZM6.507,7.727a.489.489,0,1,0,0,.978h.861v.633a.49.49,0,0,0,.98,0V8.7h.862a.488.488,0,1,0,0-.977H8.348V7.162h.862a.489.489,0,1,0,0-.978H8.558l.925-.922a.489.489,0,0,0-.692-.69l-.92.917-.9-.9a.489.489,0,1,0-.692.69l.909.907H6.507a.488.488,0,1,0,0,.977h.861v.564ZM3.61,5.45h0a.355.355,0,0,0-.359.35V9.3a.362.362,0,0,0,.721,0V5.8A.357.357,0,0,0,3.61,5.45ZM8.678.7h0a1.843,1.843,0,0,0-.62.107L3.842,2.3h6.8l-.379-.68A1.812,1.812,0,0,0,8.678.7Z" transform="translate(0.473 -0.59)"/></g></g></svg>