<svg xmlns="http://www.w3.org/2000/svg" xmlns:xlink="http://www.w3.org/1999/xlink" width="22" height="22" viewBox="0 0 22 22"><defs><style>.a{opacity:0.154;}.a,.b{fill:url(#a);}</style><linearGradient id="a" x1="0.5" x2="0.5" y2="1" gradientUnits="objectBoundingBox"><stop offset="0" stop-color="#90e3b1"/><stop offset="1" stop-color="#58aa6c"/></linearGradient></defs><g transform="translate(-24 -752)"><g transform="translate(-2 59)"><rect class="a" width="22" height="22" rx="8" transform="translate(26 693)"/></g><g transform="translate(-192.492 568.198)"><path class="b" d="M0,8.256H0s0-.007,0-.011,0,0,0,0,0-.008,0-.012H0s0-.007,0-.01,0,0,0,0,0-.008,0-.011H0A5.285,5.285,0,0,1,2.855,3.652a1.73,1.73,0,0,1-.834-1.487h0A1.7,1.7,0,0,1,3.7.439a1.648,1.648,0,0,1,1.09.412,1.657,1.657,0,0,1,2.9,0,1.653,1.653,0,0,1,2.5.378,1.746,1.746,0,0,1,.269.935,1.729,1.729,0,0,1-.836,1.489l.048.027.01,0h0a5.848,5.848,0,0,1,2.007,1.877h0a4.853,4.853,0,0,1,.794,2.643c0,2.993-2.794,5.42-6.24,5.42C2.813,13.625.031,11.226,0,8.256Zm6.2,2.852a.554.554,0,0,0,.546-.561V9.214h1.3a.561.561,0,0,0,0-1.121h-1.3V7.665h1.3a.561.561,0,0,0,0-1.121H7.484L8.3,5.677a.563.563,0,0,0,.1-.144l0,.005a.58.58,0,0,0,.059-.226q0-.012,0-.024a.565.565,0,0,0-.167-.4.536.536,0,0,0-.758,0L7.518,4.9l-1.31,1.39h0l0,0-.426-.471c-.916-1.011-.916-1.011-1.062-1.061a.537.537,0,0,0-.554.129.558.558,0,0,0-.135.223.569.569,0,0,0,.155.6c.075.079.4.432.764.837h0l0,0h-.6a.537.537,0,0,0-.38.158.566.566,0,0,0-.164.4.554.554,0,0,0,.546.561h1.3v.427h-1.3a.532.532,0,0,0-.2.037.552.552,0,0,0-.264.226h0a.568.568,0,0,0-.083.3.554.554,0,0,0,.546.561h1.3v1.333A.554.554,0,0,0,6.2,11.108Z" transform="translate(221.492 187.802)"/></g></g></svg>