<svg xmlns="http://www.w3.org/2000/svg" width="24" height="24" viewBox="0 0 24 24"><defs><style>.a{fill:#666;}</style></defs><path class="a" d="M77.144,98.283H69.856a1.014,1.014,0,0,1-1-1.025V86.845h19.3v.587a.883.883,0,1,0,1.766,0V82.284a2.8,2.8,0,0,0-2.766-2.834H85.079V78.315a.883.883,0,1,0-1.766,0V79.45H73.84V78.315a.883.883,0,1,0-1.766,0V79.45H69.855a2.8,2.8,0,0,0-2.765,2.834V97.259a2.8,2.8,0,0,0,2.765,2.834h7.288a.905.905,0,0,0,0-1.809ZM69.856,81.259h2.219v.979a.883.883,0,1,0,1.766,0v-.979h9.473v.979a.883.883,0,1,0,1.766,0v-.979h2.079a1.014,1.014,0,0,1,1,1.024v2.752h-19.3V82.284A1.013,1.013,0,0,1,69.856,81.259Z" transform="translate(-67.09 -77.41)"/><path class="a" d="M190.428,526.46H186.9a.919.919,0,0,0,0,1.835h3.526a.919.919,0,0,0,0-1.835Zm12.3,4.362h-1.844v-2.181a.728.728,0,1,0-1.454,0v2.945a.746.746,0,0,0,.727.764h2.571a.765.765,0,0,0,0-1.529Zm-12.3.53H186.9a.918.918,0,0,0,0,1.835h3.526a.918.918,0,0,0,0-1.835Z" transform="translate(-182.703 -514.127)"/><path class="a" d="M481.742,464.75a6.742,6.742,0,1,0,6.742,6.742A6.75,6.75,0,0,0,481.742,464.75Zm0,11.648a4.907,4.907,0,1,1,4.907-4.907A4.912,4.912,0,0,1,481.742,476.4Z" transform="translate(-464.483 -454.233)"/></svg>