<svg xmlns="http://www.w3.org/2000/svg" xmlns:xlink="http://www.w3.org/1999/xlink" width="20" height="21.999" viewBox="0 0 20 21.999"><defs><style>.a{fill:url(#a);}</style><linearGradient id="a" x1="0.549" x2="0.559" y2="1" gradientUnits="objectBoundingBox"><stop offset="0" stop-color="#90e3b1"/><stop offset="1" stop-color="#58aa6c"/></linearGradient></defs><g transform="translate(-120.604 -84.941)"><path class="a" d="M-9184.057-1220.06a1.554,1.554,0,0,1-1.11-.461,1.578,1.578,0,0,1-.457-1.116v-4.007a1.575,1.575,0,0,1,1.567-1.579h5.9a1.846,1.846,0,0,0,1.759,1.328,1.824,1.824,0,0,0,1.762-1.328H-9169a1.575,1.575,0,0,1,1.567,1.579v4.007a1.574,1.574,0,0,1-1.567,1.577Zm11.224-1.669h.666v-2.326h-.666Zm-2.057-1.969h.332v1.969h.664v-1.969h.666v-.357h-.666v-.307a.165.165,0,0,1,.041-.125.312.312,0,0,1,.229-.067h.4V-1225h-.429a1.265,1.265,0,0,0-.639.145.535.535,0,0,0-.263.489v.307h-.332Zm-1.321,1.969h.669v-2.326h-.669Zm-2.811-1.628h.012l.694,1.628h.588l1.056-2.326h-.708l-.629,1.63h-.012l-.754-1.63h-.479l-.754,1.63h-.012l-.634-1.628h-.7l1.056,2.324h.586l.691-1.628Zm6.188-1.171h.666V-1225h-.666Zm-3.378,0h.669V-1225h-.669Zm-2.061-4.544a1.878,1.878,0,0,1,1.879-1.879,1.878,1.878,0,0,1,1.877,1.879,1.878,1.878,0,0,1-1.877,1.879A1.878,1.878,0,0,1-9178.271-1229.073Zm-3.639-2.306a.694.694,0,0,1,.118-.729,7.977,7.977,0,0,1,5.217-2.534,7.463,7.463,0,0,1,5.55,2.5.7.7,0,0,1,.022.954.623.623,0,0,1-.912.025,6.273,6.273,0,0,0-4.616-2.13,6.741,6.741,0,0,0-4.312,2.1.636.636,0,0,1-.475.219A.649.649,0,0,1-9181.91-1231.378Zm11.535-2.76a8.458,8.458,0,0,0-6.2-2.829,9.075,9.075,0,0,0-5.8,2.8.642.642,0,0,1-.482.217.649.649,0,0,1-.6-.4.7.7,0,0,1,.117-.729,10.4,10.4,0,0,1,1.87-1.57,9.4,9.4,0,0,1,4.849-1.662,9.661,9.661,0,0,1,7.146,3.2.691.691,0,0,1,.023.954.642.642,0,0,1-.475.212A.631.631,0,0,1-9170.375-1234.138Zm2.865-2.545c-2.812-2.688-5.78-4.051-8.82-4.051-.113,0-.229,0-.342.007a12.11,12.11,0,0,0-6.153,2.054,13.374,13.374,0,0,0-2.423,1.957.658.658,0,0,1-.484.214.665.665,0,0,1-.608-.4.668.668,0,0,1,.122-.715,14.753,14.753,0,0,1,2.645-2.153,15.053,15.053,0,0,1,2.985-1.51,12.4,12.4,0,0,1,3.871-.777c.134,0,.268-.007.4-.007,3.382,0,6.653,1.485,9.72,4.415a.664.664,0,0,1,.025.938.643.643,0,0,1-.477.205A.662.662,0,0,1-9167.51-1236.683Z" transform="translate(9306.999 1327)"/></g></svg>