<svg xmlns="http://www.w3.org/2000/svg" xmlns:xlink="http://www.w3.org/1999/xlink" width="29" height="31" viewBox="0 0 29 31"><defs><style>.a{fill:#5dad71;}.b{fill:#fff;}.c{fill:#7bc18c;}.d{filter:url(#c);}.e{filter:url(#a);}</style><filter id="a" x="0" y="0" width="29" height="31" filterUnits="userSpaceOnUse"><feOffset input="SourceAlpha"/><feGaussianBlur stdDeviation="0.5" result="b"/><feFlood flood-color="#428853" flood-opacity="0.871"/><feComposite operator="in" in2="b"/><feComposite in="SourceGraphic"/></filter><filter id="c"><feOffset input="SourceAlpha"/><feGaussianBlur stdDeviation="1" result="d"/><feFlood flood-color="#216031" flood-opacity="0.718" result="e"/><feComposite operator="out" in="SourceGraphic" in2="d"/><feComposite operator="in" in="e"/><feComposite operator="in" in2="SourceGraphic"/></filter></defs><g transform="translate(-217.5 -111.202)"><g transform="translate(219 113)"><g transform="translate(0 0)"><g class="e" transform="matrix(1, 0, 0, 1, -1.5, -1.8)"><rect class="b" width="26" height="28" rx="4" transform="translate(1.5 1.5)"/></g><rect class="b" width="26" height="28" rx="4" transform="translate(0 -0.298)"/><path class="a" d="M12.779,8.1H0C0,7.979,0,7.874,0,7.779,0,3.489,2.867,0,6.392,0s6.393,3.49,6.393,7.78c0,.107,0,.215-.005.32Z" transform="translate(6.394 19.601)"/><rect class="b" width="26" height="28" rx="4" transform="translate(0 -0.298)"/></g></g><g transform="translate(224.327 118.393)"><g data-type="innerShadowGroup"><path class="c" d="M1.144,15A1.191,1.191,0,0,1,0,13.77V6.4a1.191,1.191,0,0,1,1.144-1.23c.015,0,.684.239,1.714.5V1.843A1.785,1.785,0,0,1,4.571,0H6.286a1.912,1.912,0,0,0,.5,1.3A1.648,1.648,0,0,0,8,1.843,1.785,1.785,0,0,0,9.715,0h1.712a1.786,1.786,0,0,1,1.717,1.843V5.679c1.031-.267,1.7-.508,1.711-.512A1.19,1.19,0,0,1,16,6.4V13.77A1.19,1.19,0,0,1,14.855,15Zm5.145-3.076v.026a.407.407,0,0,0,.393.4h.989v.569a.411.411,0,0,0,.4.424h.024a.414.414,0,0,0,.372-.424v-.569h.856a.409.409,0,0,0,.392-.424V11.9a.407.407,0,0,0-.392-.4H8.464v-.566h.856a.409.409,0,0,0,.392-.424v-.026a.407.407,0,0,0-.392-.4H8.734l.887-1.144a.451.451,0,0,0-.05-.6.38.38,0,0,0-.253-.1.39.39,0,0,0-.3.151L8,9.7,6.988,8.392a.391.391,0,0,0-.3-.151.38.38,0,0,0-.253.1l-.019.019a.446.446,0,0,0-.031.58l.887,1.144H6.683a.412.412,0,0,0-.393.427v.023a.408.408,0,0,0,.393.4h.989V11.5H6.683A.412.412,0,0,0,6.289,11.924ZM8.044,6.4q.331,0,.661-.015V4.456a.706.706,0,1,1,1.412,0V6.263c.245-.03.486-.064.722-.1.385-.086.732-.176,1.03-.254L11.9,2.04a.714.714,0,0,0-.688-.737h-.639A2.755,2.755,0,0,1,8.035,3.146,2.627,2.627,0,0,1,6.1,2.282a2.946,2.946,0,0,1-.6-.979H4.837a.712.712,0,0,0-.684.737L4.118,5.922c.149.041.312.086.487.131.408.075.836.143,1.277.2v-1.8a.706.706,0,1,1,1.412,0V6.378C7.543,6.39,7.794,6.4,8.044,6.4Z" transform="translate(-0.327 0.309)"/><g class="d" transform="matrix(1, 0, 0, 1, -6.83, -7.19)"><path class="b" d="M1.144,15A1.191,1.191,0,0,1,0,13.77V6.4a1.191,1.191,0,0,1,1.144-1.23c.015,0,.684.239,1.714.5V1.843A1.785,1.785,0,0,1,4.571,0H6.286a1.912,1.912,0,0,0,.5,1.3A1.648,1.648,0,0,0,8,1.843,1.785,1.785,0,0,0,9.715,0h1.712a1.786,1.786,0,0,1,1.717,1.843V5.679c1.031-.267,1.7-.508,1.711-.512A1.19,1.19,0,0,1,16,6.4V13.77A1.19,1.19,0,0,1,14.855,15Zm5.145-3.076v.026a.407.407,0,0,0,.393.4h.989v.569a.411.411,0,0,0,.4.424h.024a.414.414,0,0,0,.372-.424v-.569h.856a.409.409,0,0,0,.392-.424V11.9a.407.407,0,0,0-.392-.4H8.464v-.566h.856a.409.409,0,0,0,.392-.424v-.026a.407.407,0,0,0-.392-.4H8.734l.887-1.144a.451.451,0,0,0-.05-.6.38.38,0,0,0-.253-.1.39.39,0,0,0-.3.151L8,9.7,6.988,8.392a.391.391,0,0,0-.3-.151.38.38,0,0,0-.253.1l-.019.019a.446.446,0,0,0-.031.58l.887,1.144H6.683a.412.412,0,0,0-.393.427v.023a.408.408,0,0,0,.393.4h.989V11.5H6.683A.412.412,0,0,0,6.289,11.924ZM8.044,6.4q.331,0,.661-.015V4.456a.706.706,0,1,1,1.412,0V6.263c.245-.03.486-.064.722-.1.385-.086.732-.176,1.03-.254L11.9,2.04a.714.714,0,0,0-.688-.737h-.639A2.755,2.755,0,0,1,8.035,3.146,2.627,2.627,0,0,1,6.1,2.282a2.946,2.946,0,0,1-.6-.979H4.837a.712.712,0,0,0-.684.737L4.118,5.922c.149.041.312.086.487.131.408.075.836.143,1.277.2v-1.8a.706.706,0,1,1,1.412,0V6.378C7.543,6.39,7.794,6.4,8.044,6.4Z" transform="translate(6.5 7.5)"/></g></g></g></g></svg>