<svg xmlns="http://www.w3.org/2000/svg" xmlns:xlink="http://www.w3.org/1999/xlink" width="26" height="26" viewBox="0 0 26 26"><defs><style>.a{opacity:0.154;}.a,.b{fill:url(#a);}</style><linearGradient id="a" x1="0.5" x2="0.5" y2="1" gradientUnits="objectBoundingBox"><stop offset="0" stop-color="#90e3b1"/><stop offset="1" stop-color="#58aa6c"/></linearGradient></defs><g transform="translate(-324 -322)"><rect class="a" width="26" height="26" rx="7" transform="translate(324 322)"/><g transform="translate(328.253 326.182)"><path class="b" d="M564.905,104.223a.863.863,0,0,1,.861.861c0,.238.024.782.262.782.319,0,.6-.544.6-.782a1.722,1.722,0,0,0-1.721-1.721c-.238,0-.705.5-.705.736S564.667,104.223,564.905,104.223Zm6.343-1.82a6.875,6.875,0,0,0-6.343-4.2c-.238,0-.705.5-.705.736s.467.126.705.126a6.032,6.032,0,0,1,6.023,6.023c0,.238,0,.782.236.782.383,0,.623-.544.623-.782A6.827,6.827,0,0,0,571.248,102.4Z" transform="translate(-554.638 -98.2)"/><path class="b" d="M126.626,164.147A3.382,3.382,0,0,1,130,167.529c0,.234.024.769.257.769.313,0,.587-.535.587-.769a4.223,4.223,0,0,0-4.218-4.228c-.233,0-.691.489-.691.723S126.393,164.147,126.626,164.147Zm5.151,10.563a1.843,1.843,0,0,1,.071,2.037l-.816.206a3.6,3.6,0,0,1-2.153,1,5.114,5.114,0,0,1-.657.041,7.341,7.341,0,0,1-2.058-.323,15.7,15.7,0,0,1-9.563-9.587,4.673,4.673,0,0,1-.173-2.918,5.307,5.307,0,0,1,1-1.981,5.919,5.919,0,0,1,.637-.727,1.054,1.054,0,0,1,1.49,0l3.276,3.282c.987,1.007.963,1.57.412,2.176l-.756.792c-.322.314-.22,1.05.79,2.262,1.084,1.3,2.386,1.769,2.81,1.344l.918-.9a1.054,1.054,0,0,1,1.49,0Z" transform="translate(-116.248 -160.741)"/><path class="b" d="M131.194,129.153a1.063,1.063,0,0,1,0,1.5l-.746.748a3.605,3.605,0,0,1-2.156,1,5.118,5.118,0,0,1-.657.041,7.345,7.345,0,0,1-2.061-.323,15.721,15.721,0,0,1-9.574-9.6,6.791,6.791,0,0,1-.283-2.726,3.608,3.608,0,0,1,1-2.162l.746-.748a1.055,1.055,0,0,1,1.492,0l3.282,3.292a1.063,1.063,0,0,1,0,1.5l-.746.748c-.422.423,0,1.8,1.194,3s2.562,1.622,2.986,1.2l.746-.748a1.055,1.055,0,0,1,1.492,0Zm-5.4-8.424a.848.848,0,0,1,.845.848.422.422,0,1,0,.843,0,1.692,1.692,0,0,0-1.689-1.694.423.423,0,0,0,0,.846Zm6.225-1.791A6.75,6.75,0,0,0,125.8,114.8a.423.423,0,0,0,0,.846,5.929,5.929,0,0,1,5.911,5.93.422.422,0,1,0,.843,0A6.782,6.782,0,0,0,132.02,118.938Z" transform="translate(-115.678 -114.434)"/><path class="b" d="M564.432,232.761a3.446,3.446,0,0,1,3.441,3.441.43.43,0,1,0,.859,0,4.3,4.3,0,0,0-4.3-4.3.431.431,0,1,0,0,.861Z" transform="translate(-554.37 -229.015)"/></g></g></svg>