<svg xmlns="http://www.w3.org/2000/svg" xmlns:xlink="http://www.w3.org/1999/xlink" width="29" height="31" viewBox="0 0 29 31"><defs><style>.a{fill:#5dad71;}.b{fill:#fff;}.c{fill:#7bc18c;}.d{filter:url(#c);}.e{filter:url(#a);}</style><filter id="a" x="0" y="0" width="29" height="31" filterUnits="userSpaceOnUse"><feOffset input="SourceAlpha"/><feGaussianBlur stdDeviation="0.5" result="b"/><feFlood flood-color="#428853" flood-opacity="0.871"/><feComposite operator="in" in2="b"/><feComposite in="SourceGraphic"/></filter><filter id="c"><feOffset input="SourceAlpha"/><feGaussianBlur stdDeviation="1" result="d"/><feFlood flood-color="#216031" flood-opacity="0.718" result="e"/><feComposite operator="out" in="SourceGraphic" in2="d"/><feComposite operator="in" in="e"/><feComposite operator="in" in2="SourceGraphic"/></filter></defs><g transform="translate(-306.5 -111.5)"><g transform="translate(308 113)"><g transform="translate(0 0)"><g class="e" transform="matrix(1, 0, 0, 1, -1.5, -1.5)"><rect class="b" width="26" height="28" rx="4" transform="translate(1.5 1.5)"/></g><rect class="b" width="26" height="28" rx="4"/><path class="a" d="M12.917,8.187H0C0,8.065,0,7.959,0,7.862,0,3.527,2.9,0,6.46,0s6.462,3.527,6.462,7.863c0,.109,0,.218-.005.324Z" transform="translate(6.463 19.812)"/><rect class="b" width="26" height="28" rx="4"/></g></g><g data-type="innerShadowGroup"><path class="c" d="M13.934,13.463H2.221A2.173,2.173,0,0,1,0,11.347V8.654a.593.593,0,0,1,.606-.576A1.384,1.384,0,0,0,2.02,6.732,1.384,1.384,0,0,0,.605,5.384.593.593,0,0,1,0,4.809V2.117A2.173,2.173,0,0,1,2.221,0H13.934a2.173,2.173,0,0,1,2.222,2.117V4.809a.593.593,0,0,1-.608.576,1.382,1.382,0,0,0-1.412,1.347,1.382,1.382,0,0,0,1.412,1.347.593.593,0,0,1,.608.576v2.692A2.173,2.173,0,0,1,13.934,13.463ZM5.862,8.147a.655.655,0,0,0-.667.641l0,.037a.658.658,0,0,0,.665.6H7.523v.853a.654.654,0,0,0,.665.641h.039a.654.654,0,0,0,.626-.641V9.429h1.44a.654.654,0,0,0,.665-.641l0-.039a.656.656,0,0,0-.663-.6H8.854V7.291h1.44a.654.654,0,0,0,.665-.641l0-.037a.657.657,0,0,0-.663-.6H9.311L10.8,4.283a.614.614,0,0,0,.153-.464.63.63,0,0,0-.237-.439.679.679,0,0,0-.426-.149.671.671,0,0,0-.51.231l-1.7,1.975L6.372,3.461a.68.68,0,0,0-.936-.081L5.4,3.406a.627.627,0,0,0-.055.876L6.844,6.009H5.862A.655.655,0,0,0,5.2,6.65l0,.037a.658.658,0,0,0,.665.6H7.523v.855Z" transform="translate(312.923 119.538)"/><g class="d" transform="matrix(1, 0, 0, 1, 306.5, 111.5)"><path class="b" d="M13.934,13.463H2.221A2.173,2.173,0,0,1,0,11.347V8.654a.593.593,0,0,1,.606-.576A1.384,1.384,0,0,0,2.02,6.732,1.384,1.384,0,0,0,.605,5.384.593.593,0,0,1,0,4.809V2.117A2.173,2.173,0,0,1,2.221,0H13.934a2.173,2.173,0,0,1,2.222,2.117V4.809a.593.593,0,0,1-.608.576,1.382,1.382,0,0,0-1.412,1.347,1.382,1.382,0,0,0,1.412,1.347.593.593,0,0,1,.608.576v2.692A2.173,2.173,0,0,1,13.934,13.463ZM5.862,8.147a.655.655,0,0,0-.667.641l0,.037a.658.658,0,0,0,.665.6H7.523v.853a.654.654,0,0,0,.665.641h.039a.654.654,0,0,0,.626-.641V9.429h1.44a.654.654,0,0,0,.665-.641l0-.039a.656.656,0,0,0-.663-.6H8.854V7.291h1.44a.654.654,0,0,0,.665-.641l0-.037a.657.657,0,0,0-.663-.6H9.311L10.8,4.283a.614.614,0,0,0,.153-.464.63.63,0,0,0-.237-.439.679.679,0,0,0-.426-.149.671.671,0,0,0-.51.231l-1.7,1.975L6.372,3.461a.68.68,0,0,0-.936-.081L5.4,3.406a.627.627,0,0,0-.055.876L6.844,6.009H5.862A.655.655,0,0,0,5.2,6.65l0,.037a.658.658,0,0,0,.665.6H7.523v.855Z" transform="translate(6.42 8.04)"/></g></g></g></svg>