<svg xmlns="http://www.w3.org/2000/svg" xmlns:xlink="http://www.w3.org/1999/xlink" width="29" height="31" viewBox="0 0 29 31"><defs><style>.a{fill:#5dad71;}.b{fill:#fff;}.c{fill:#7bc18c;}.d{filter:url(#c);}.e{filter:url(#a);}</style><filter id="a" x="0" y="0" width="29" height="31" filterUnits="userSpaceOnUse"><feOffset input="SourceAlpha"/><feGaussianBlur stdDeviation="0.5" result="b"/><feFlood flood-color="#428853" flood-opacity="0.871"/><feComposite operator="in" in2="b"/><feComposite in="SourceGraphic"/></filter><filter id="c"><feOffset input="SourceAlpha"/><feGaussianBlur stdDeviation="1" result="d"/><feFlood flood-color="#216031" flood-opacity="0.718" result="e"/><feComposite operator="out" in="SourceGraphic" in2="d"/><feComposite operator="in" in="e"/><feComposite operator="in" in2="SourceGraphic"/></filter></defs><g transform="translate(-61.5 -104.5)"><g transform="translate(63 106)"><g class="e" transform="matrix(1, 0, 0, 1, -1.5, -1.5)"><rect class="b" width="26" height="28" rx="4" transform="translate(1.5 1.5)"/></g><rect class="b" width="26" height="28" rx="4"/><path class="a" d="M12.917,8.187H0C0,8.065,0,7.959,0,7.862,0,3.527,2.9,0,6.46,0s6.462,3.527,6.462,7.863c0,.109,0,.218-.005.324Z" transform="translate(6.463 19.812)"/><rect class="b" width="26" height="28" rx="4"/></g><g transform="translate(68.809 111.856)"><g data-type="innerShadowGroup"><path class="c" d="M7.713,16.272a1.586,1.586,0,0,1-.228.015H7.453L1.8,14.979a1.735,1.735,0,0,1-1.8-1.6V2.91a1.735,1.735,0,0,1,1.8-1.6L7.453,0h.032a1.832,1.832,0,0,1,1.7,1.162h3.94a1.308,1.308,0,0,1,1.259,1.347V13.534a1.308,1.308,0,0,1-1.259,1.349H9.31a1.554,1.554,0,0,1-1.533,1.4Zm1.769-2.814L12.91,13.4a.22.22,0,0,0,.212-.227V2.739a.221.221,0,0,0-.212-.23H9.481ZM5.834,7.88a.9.9,0,1,0,.9-.9A.9.9,0,0,0,5.834,7.88Z" transform="translate(0 0)"/><g class="d" transform="matrix(1, 0, 0, 1, -7.31, -7.36)"><path class="b" d="M7.713,16.272a1.586,1.586,0,0,1-.228.015H7.453L1.8,14.979a1.735,1.735,0,0,1-1.8-1.6V2.91a1.735,1.735,0,0,1,1.8-1.6L7.453,0h.032a1.832,1.832,0,0,1,1.7,1.162h3.94a1.308,1.308,0,0,1,1.259,1.347V13.534a1.308,1.308,0,0,1-1.259,1.349H9.31a1.554,1.554,0,0,1-1.533,1.4Zm1.769-2.814L12.91,13.4a.22.22,0,0,0,.212-.227V2.739a.221.221,0,0,0-.212-.23H9.481ZM5.834,7.88a.9.9,0,1,0,.9-.9A.9.9,0,0,0,5.834,7.88Z" transform="translate(7.31 7.36)"/></g></g></g></g></svg>