<svg xmlns="http://www.w3.org/2000/svg" xmlns:xlink="http://www.w3.org/1999/xlink" width="29" height="31" viewBox="0 0 29 31"><defs><style>.a{fill:#5dad71;}.b{fill:#fff;}.c{fill:#7bc18c;}.d{filter:url(#c);}.e{filter:url(#a);}</style><filter id="a" x="0" y="0" width="29" height="31" filterUnits="userSpaceOnUse"><feOffset input="SourceAlpha"/><feGaussianBlur stdDeviation="0.5" result="b"/><feFlood flood-color="#428853" flood-opacity="0.871"/><feComposite operator="in" in2="b"/><feComposite in="SourceGraphic"/></filter><filter id="c"><feOffset input="SourceAlpha"/><feGaussianBlur stdDeviation="1" result="d"/><feFlood flood-color="#216031" flood-opacity="0.718" result="e"/><feComposite operator="out" in="SourceGraphic" in2="d"/><feComposite operator="in" in="e"/><feComposite operator="in" in2="SourceGraphic"/></filter></defs><g transform="translate(-106.5 -111.5)"><g transform="translate(108 113)"><g transform="translate(0 0)"><g class="e" transform="matrix(1, 0, 0, 1, -1.5, -1.5)"><rect class="b" width="26" height="28" rx="4" transform="translate(1.5 1.5)"/></g><rect class="b" width="26" height="28" rx="4"/><path class="a" d="M12.917,8.187H0C0,8.065,0,7.959,0,7.862,0,3.527,2.9,0,6.46,0s6.462,3.527,6.462,7.863c0,.109,0,.218-.005.324Z" transform="translate(6.463 19.812)"/><rect class="b" width="26" height="28" rx="4"/></g></g><g data-type="innerShadowGroup"><path class="c" d="M0,8.634A7.625,7.625,0,0,1,.631,5.6a7.914,7.914,0,0,1,1.708-2.5,7.981,7.981,0,0,1,2.518-1.7A7.771,7.771,0,0,1,7.925.782H8.14a.929.929,0,0,1,.939.937v.055l-.017.044a.954.954,0,0,1-.926.769H7.922A6.108,6.108,0,0,0,3.6,13.022,6.119,6.119,0,0,0,14.043,8.705a.927.927,0,0,1,1.53-.644h.274v.644A7.924,7.924,0,0,1,0,8.634Zm6.989,3.846v-1.2h-1.2a.939.939,0,1,1,0-1.879h1.2v-.33h-1.2a.939.939,0,1,1,0-1.879h.771L5.167,5.756A.9.9,0,0,1,4.9,5.107a.92.92,0,0,1,.921-.924.927.927,0,0,1,.654.269L7.99,5.968,9.442,4.456a.926.926,0,0,1,1.309,0l.033.039a.916.916,0,0,1-.033,1.266L9.363,7.2h.771a.938.938,0,1,1,0,1.876H8.864v.332h1.27a.938.938,0,1,1,0,1.876H8.864v1.2a.929.929,0,0,1-.939.939A.886.886,0,0,1,6.988,12.481Zm5.628-6.84V4.014H11.133a.927.927,0,0,1-1.013-.8.927.927,0,0,1,1.013-.8h1.483V.937a.864.864,0,0,1,.8-.937.909.909,0,0,1,.792.937V2.494h1.485a.923.923,0,0,1,1.011.8c0,.426-.416.725-1.011.725H14.207V5.641a.91.91,0,0,1-.792.939A.866.866,0,0,1,12.616,5.641Z" transform="translate(112.649 118.721)"/><g class="d" transform="matrix(1, 0, 0, 1, 106.5, 111.5)"><path class="b" d="M0,8.634A7.625,7.625,0,0,1,.631,5.6a7.914,7.914,0,0,1,1.708-2.5,7.981,7.981,0,0,1,2.518-1.7A7.771,7.771,0,0,1,7.925.782H8.14a.929.929,0,0,1,.939.937v.055l-.017.044a.954.954,0,0,1-.926.769H7.922A6.108,6.108,0,0,0,3.6,13.022,6.119,6.119,0,0,0,14.043,8.705a.927.927,0,0,1,1.53-.644h.274v.644A7.924,7.924,0,0,1,0,8.634Zm6.989,3.846v-1.2h-1.2a.939.939,0,1,1,0-1.879h1.2v-.33h-1.2a.939.939,0,1,1,0-1.879h.771L5.167,5.756A.9.9,0,0,1,4.9,5.107a.92.92,0,0,1,.921-.924.927.927,0,0,1,.654.269L7.99,5.968,9.442,4.456a.926.926,0,0,1,1.309,0l.033.039a.916.916,0,0,1-.033,1.266L9.363,7.2h.771a.938.938,0,1,1,0,1.876H8.864v.332h1.27a.938.938,0,1,1,0,1.876H8.864v1.2a.929.929,0,0,1-.939.939A.886.886,0,0,1,6.988,12.481Zm5.628-6.84V4.014H11.133a.927.927,0,0,1-1.013-.8.927.927,0,0,1,1.013-.8h1.483V.937a.864.864,0,0,1,.8-.937.909.909,0,0,1,.792.937V2.494h1.485a.923.923,0,0,1,1.011.8c0,.426-.416.725-1.011.725H14.207V5.641a.91.91,0,0,1-.792.939A.866.866,0,0,1,12.616,5.641Z" transform="translate(6.15 7.22)"/></g></g></g></svg>