<svg xmlns="http://www.w3.org/2000/svg" xmlns:xlink="http://www.w3.org/1999/xlink" width="24" height="24" viewBox="0 0 24 24"><defs><style>.a{fill:#666;}.b{clip-path:url(#a);}</style><clipPath id="a"><rect class="a" width="24" height="24" transform="translate(36 1091)"/></clipPath></defs><g class="b" transform="translate(-36 -1091)"><path class="a" d="M3177.959,3769v-7.8c0-.1,0-.194,0-.282.005-.3.01-.561-.075-.648a.6.6,0,0,0-.388-.086h-3a.6.6,0,0,0-.388.086c-.086.087-.081.346-.075.648,0,.089,0,.183,0,.282v7.8H3170a3.244,3.244,0,0,1-3.063-3.392v-6.894h-1.061a1.816,1.816,0,0,1-1.752-1.066,2.233,2.233,0,0,1,.7-2.4l8.913-9.28a3.131,3.131,0,0,1,4.529,0l8.914,9.28a2.231,2.231,0,0,1,.7,2.4,1.8,1.8,0,0,1-1.753,1.067h-1.061v6.894A3.243,3.243,0,0,1,3182,3769Zm-.459-10.776a2.175,2.175,0,0,1,1.907.862,3.624,3.624,0,0,1,.511,2.114v5.841H3182c.66,0,1.1-.741,1.1-1.433v-8.854h2.742a.794.794,0,0,0-.111-.154l-8.914-9.273a1.125,1.125,0,0,0-.8-.369H3176a1.168,1.168,0,0,0-.818.369l-8.915,9.274a.82.82,0,0,0-.111.153h2.742v8.854c0,.691.444,1.433,1.1,1.433h2.08V3761.2a3.629,3.629,0,0,1,.511-2.114,2.177,2.177,0,0,1,1.908-.862Z" transform="translate(-3128 -2654)"/></g></svg>