<svg xmlns="http://www.w3.org/2000/svg" xmlns:xlink="http://www.w3.org/1999/xlink" width="24" height="24" viewBox="0 0 24 24"><defs><style>.a{fill:url(#a);}.b{clip-path:url(#b);}</style><linearGradient id="a" x1="0.5" x2="0.5" y2="1" gradientUnits="objectBoundingBox"><stop offset="0" stop-color="#90e3b1"/><stop offset="1" stop-color="#58aa6c"/></linearGradient><clipPath id="b"><rect class="a" width="24" height="24" transform="translate(36 1091)"/></clipPath></defs><g class="b" transform="translate(-36 -1091)"><path class="a" d="M14.432,82.666a1.67,1.67,0,0,0-1.6-1.715H11.221a1.587,1.587,0,0,0-1.6,1.715V87.8h-3.7a2.869,2.869,0,0,1-2.743-2.858V76.963H1.39A1.394,1.394,0,0,1,.1,76.031a1.842,1.842,0,0,1,.587-1.919L10.043,64.7a2.465,2.465,0,0,1,3.718,0l9.588,9.4.006.006a1.842,1.842,0,0,1,.586,1.919,1.392,1.392,0,0,1-1.291.933H20.864v7.981A2.914,2.914,0,0,1,18.07,87.8H14.432S14.432,87.788,14.432,82.666Z" transform="translate(35.98 1027.143)"/></g></svg>