<svg width="54" height="53" viewBox="0 0 54 53" fill="none" xmlns="http://www.w3.org/2000/svg">
<g id="&#230;&#138;&#165;&#229;&#145;&#138;&#230;&#182;&#136;&#230;&#129;&#175;">
<path id="Vector" d="M26.6592 53C11.9633 53 0 41.1081 0 26.5C0 11.8919 11.9633 0 26.6592 0C41.355 0 53.3183 11.8919 53.3183 26.5C53.3183 41.1081 41.355 53 26.6592 53Z" fill="#E6F1FF"/>
<g id="Vector_2">
<path d="M37.4 40H16.6C16.2586 40 15.9205 39.9327 15.605 39.8021C15.2896 39.6714 15.003 39.4799 14.7615 39.2385C14.5201 38.997 14.3286 38.7104 14.1979 38.395C14.0673 38.0795 14 37.7414 14 37.4V16.6C14 16.2586 14.0673 15.9205 14.1979 15.605C14.3286 15.2896 14.5201 15.003 14.7615 14.7615C15.003 14.5201 15.2896 14.3286 15.605 14.1979C15.9205 14.0673 16.2586 14 16.6 14H37.4C37.7414 14 38.0795 14.0673 38.395 14.1979C38.7104 14.3286 38.997 14.5201 39.2385 14.7615C39.4799 15.003 39.6714 15.2896 39.8021 15.605C39.9327 15.9205 40 16.2586 40 16.6V37.4C40 37.7414 39.9327 38.0795 39.8021 38.395C39.6714 38.7104 39.4799 38.997 39.2385 39.2385C38.997 39.4799 38.7104 39.6714 38.395 39.8021C38.0795 39.9327 37.7414 40 37.4 40ZM38.05 17.25C38.05 16.9052 37.913 16.5746 37.6692 16.3308C37.4254 16.087 37.0948 15.95 36.75 15.95H17.25C16.9052 15.95 16.5746 16.087 16.3308 16.3308C16.087 16.5746 15.95 16.9052 15.95 17.25V36.75C15.95 37.0948 16.087 37.4254 16.3308 37.6692C16.5746 37.913 16.9052 38.05 17.25 38.05H36.75C37.0948 38.05 37.4254 37.913 37.6692 37.6692C37.913 37.4254 38.05 37.0948 38.05 36.75V17.25Z" fill="#4298FF"/>
<path d="M35.125 19.85H30.575C30.3164 19.85 30.0684 19.7473 29.8856 19.5644C29.7027 19.3816 29.6 19.1336 29.6 18.875C29.6 18.6164 29.7027 18.3684 29.8856 18.1856C30.0684 18.0027 30.3164 17.9 30.575 17.9H35.125C35.3836 17.9 35.6316 18.0027 35.8144 18.1856C35.9973 18.3684 36.1 18.6164 36.1 18.875C36.1 19.1336 35.9973 19.3816 35.8144 19.5644C35.6316 19.7473 35.3836 19.85 35.125 19.85ZM36.1 22.775C36.1 23.0336 35.9973 23.2816 35.8144 23.4644C35.6316 23.6473 35.3836 23.75 35.125 23.75H26.675C26.4164 23.75 26.1684 23.6473 25.9856 23.4644C25.8027 23.2816 25.7 23.0336 25.7 22.775C25.7 22.5164 25.8027 22.2684 25.9856 22.0856C26.1684 21.9027 26.4164 21.8 26.675 21.8H35.125C35.3836 21.8 35.6316 21.9027 35.8144 22.0856C35.9973 22.2684 36.1 22.5164 36.1 22.775ZM23.1 23.75H19.2C18.8552 23.75 18.5246 23.613 18.2808 23.3692C18.037 23.1254 17.9 22.7948 17.9 22.45V19.2C17.9 18.8552 18.037 18.5246 18.2808 18.2808C18.5246 18.037 18.8552 17.9 19.2 17.9H23.1C23.4448 17.9 23.7754 18.037 24.0192 18.2808C24.263 18.5246 24.4 18.8552 24.4 19.2V22.45C24.4 22.7948 24.263 23.1254 24.0192 23.3692C23.7754 23.613 23.4448 23.75 23.1 23.75ZM22.45 19.85H19.85V21.8H22.45V19.85Z" fill="#4298FF"/>
<path d="M26.675 36.1H26.6158C26.4512 36.0902 26.2917 36.0388 26.1524 35.9506C26.013 35.8623 25.8983 35.7402 25.8189 35.5956L22.9915 30.4268L22.3999 32.1967C22.3349 32.3906 22.2107 32.559 22.0447 32.6784C21.8787 32.7977 21.6794 32.8618 21.475 32.8617H18.875C18.7413 32.8715 18.6071 32.8536 18.4806 32.8092C18.3542 32.7647 18.2382 32.6947 18.14 32.6034C18.0419 32.5122 17.9636 32.4017 17.91 32.2788C17.8565 32.1559 17.8288 32.0233 17.8288 31.8893C17.8288 31.7553 17.8565 31.6227 17.91 31.4998C17.9636 31.3769 18.0419 31.2664 18.14 31.1752C18.2382 31.0839 18.3542 31.0139 18.4806 30.9694C18.6071 30.925 18.7413 30.9071 18.875 30.9169H20.7723L21.85 27.6929C21.9101 27.5127 22.0214 27.354 22.1704 27.2363C22.3193 27.1185 22.4994 27.0468 22.6886 27.0299C22.8777 27.0131 23.0677 27.0519 23.2351 27.1415C23.4025 27.231 23.5401 27.3676 23.631 27.5343L26.7861 33.3024L29.1314 30.0277C29.2213 29.8974 29.3425 29.7919 29.4839 29.7207C29.6254 29.6496 29.7824 29.6153 29.9406 29.6208C30.0983 29.6232 30.2531 29.6639 30.3917 29.7393C30.5303 29.8147 30.6485 29.9226 30.7362 30.0537L31.747 31.5649H35.1269C35.2606 31.5552 35.3949 31.5731 35.5213 31.6175C35.6478 31.6619 35.7637 31.732 35.8619 31.8232C35.9601 31.9145 36.0384 32.025 36.0919 32.1478C36.1455 32.2707 36.1731 32.4033 36.1731 32.5373C36.1731 32.6714 36.1455 32.804 36.0919 32.9269C36.0384 33.0497 35.9601 33.1602 35.8619 33.2515C35.7637 33.3427 35.6478 33.4128 35.5213 33.4572C35.3949 33.5016 35.2606 33.5195 35.1269 33.5097H31.2269C31.0666 33.5099 30.9086 33.4704 30.7671 33.3949C30.6256 33.3194 30.5049 33.2102 30.4157 33.0768L29.899 32.3046L27.4706 35.695C27.3798 35.821 27.2603 35.9235 27.1219 35.9939C26.9835 36.0644 26.8303 36.1007 26.675 36.1Z" fill="#F2A355"/>
</g>
</g>
</svg>
