<svg width="54" height="53" viewBox="0 0 54 53" fill="none" xmlns="http://www.w3.org/2000/svg">
<g id="&#229;&#176;&#177;&#232;&#175;&#138;&#230;&#182;&#136;&#230;&#129;&#175;">
<path id="Vector" d="M26.6592 53C11.9633 53 0 41.1081 0 26.5C0 11.8919 11.9633 0 26.6592 0C41.355 0 53.3183 11.8919 53.3183 26.5C53.3183 41.1081 41.355 53 26.6592 53Z" fill="#E6F1FF"/>
<g id="Vector_2">
<path d="M33.88 27.5671H32.0891C31.6352 26.4016 30.84 25.4003 29.8075 24.6944C28.775 23.9885 27.5534 23.6108 26.3027 23.6108C25.0519 23.6108 23.8303 23.9885 22.7979 24.6944C21.7654 25.4003 20.9701 26.4016 20.5163 27.5671H18.7254C19.0913 26.344 19.7472 25.2274 20.6374 24.3124C21.5276 23.3973 22.6256 22.7108 23.8381 22.3113C23.0209 21.78 22.3973 20.9987 22.0604 20.084C21.7234 19.1694 21.691 18.1703 21.9682 17.2358C22.2453 16.3012 22.817 15.4813 23.5981 14.8982C24.3792 14.315 25.3279 14 26.3027 14C27.2774 14 28.2261 14.315 29.0072 14.8982C29.7883 15.4813 30.3601 16.3012 30.6372 17.2358C30.9143 18.1703 30.882 19.1694 30.545 20.084C30.208 20.9987 29.5844 21.78 28.7672 22.3113C29.9797 22.7108 31.0778 23.3973 31.9679 24.3124C32.8581 25.2274 33.5141 26.344 33.88 27.5671ZM29.1283 18.5249C29.1283 17.9661 28.9626 17.4198 28.6521 16.9551C28.3416 16.4904 27.9003 16.1282 27.384 15.9144C26.8677 15.7005 26.2995 15.6445 25.7514 15.7536C25.2033 15.8626 24.6998 16.1317 24.3046 16.5269C23.9094 16.9221 23.6403 17.4255 23.5313 17.9737C23.4223 18.5218 23.4782 19.0899 23.6921 19.6063C23.906 20.1226 24.2681 20.5639 24.7328 20.8744C25.1975 21.1849 25.7438 21.3506 26.3027 21.3506C27.0521 21.3506 27.7708 21.0529 28.3007 20.523C28.8306 19.9931 29.1283 19.2743 29.1283 18.5249Z" fill="#F2A355"/>
<path d="M36.7576 29.2625H35.9099V37.7395C35.9099 38.0363 35.8515 38.3303 35.7379 38.6045C35.6243 38.8788 35.4577 39.128 35.2478 39.3379C35.0379 39.5478 34.7887 39.7143 34.5145 39.8279C34.2402 39.9415 33.9463 40 33.6494 40H18.9559C18.6591 40 18.3651 39.9415 18.0909 39.8279C17.8166 39.7143 17.5674 39.5478 17.3575 39.3379C17.1476 39.128 16.9811 38.8788 16.8675 38.6045C16.7539 38.3303 16.6954 38.0363 16.6954 37.7395V29.2625H15.8477C15.6229 29.2625 15.4073 29.1732 15.2483 29.0142C15.0893 28.8552 15 28.6396 15 28.4148C15 28.1899 15.0893 27.9743 15.2483 27.8154C15.4073 27.6564 15.6229 27.5671 15.8477 27.5671H36.7576C36.9825 27.5671 37.1981 27.6564 37.357 27.8154C37.516 27.9743 37.6053 28.1899 37.6053 28.4148C37.6053 28.6396 37.516 28.8552 37.357 29.0142C37.1981 29.1732 36.9825 29.2625 36.7576 29.2625ZM34.2145 29.2625H18.3908V37.1743C18.3908 37.4741 18.5099 37.7616 18.7218 37.9736C18.9338 38.1855 19.2213 38.3046 19.5211 38.3046H33.0843C33.384 38.3046 33.6715 38.1855 33.8835 37.9736C34.0955 37.7616 34.2145 37.4741 34.2145 37.1743V29.2625ZM28.5632 34.6312H27.1504V36.0441C27.1504 36.2689 27.0611 36.4845 26.9021 36.6435C26.7431 36.8025 26.5275 36.8918 26.3027 36.8918C26.0778 36.8918 25.8622 36.8025 25.7033 36.6435C25.5443 36.4845 25.455 36.2689 25.455 36.0441V34.6312H24.0421C23.8173 34.6312 23.6017 34.5419 23.4427 34.3829C23.2837 34.224 23.1944 34.0084 23.1944 33.7835C23.1944 33.5587 23.2837 33.3431 23.4427 33.1841C23.6017 33.0251 23.8173 32.9358 24.0421 32.9358H25.455V31.523C25.455 31.2982 25.5443 31.0826 25.7033 30.9236C25.8622 30.7646 26.0778 30.6753 26.3027 30.6753C26.5275 30.6753 26.7431 30.7646 26.9021 30.9236C27.0611 31.0826 27.1504 31.2982 27.1504 31.523V32.9358H28.5632C28.788 32.9358 29.0036 33.0251 29.1626 33.1841C29.3216 33.3431 29.4109 33.5587 29.4109 33.7835C29.4109 34.0084 29.3216 34.224 29.1626 34.3829C29.0036 34.5419 28.788 34.6312 28.5632 34.6312Z" fill="#4298FF"/>
</g>
</g>
</svg>
