<svg width="54" height="53" viewBox="0 0 54 53" fill="none" xmlns="http://www.w3.org/2000/svg">
<g id="&#229;&#129;&#165;&#229;&#186;&#183;&#229;&#174;&#163;&#230;&#149;&#153;&#230;&#182;&#136;&#230;&#129;&#175;">
<path id="Vector" d="M26.6592 53C11.9633 53 0 41.1081 0 26.5C0 11.8919 11.9633 0 26.6592 0C41.355 0 53.3183 11.8919 53.3183 26.5C53.3183 41.1081 41.355 53 26.6592 53Z" fill="#E6F1FF"/>
<g id="Vector_2">
<path d="M32.8779 33.8105H19.88C19.6338 33.8105 19.3976 33.7127 19.2235 33.5386C19.0494 33.3645 18.9516 33.1283 18.9516 32.8821C18.9516 32.6359 19.0494 32.3997 19.2235 32.2256C19.3976 32.0515 19.6338 31.9537 19.88 31.9537H32.8779C33.1241 31.9537 33.3603 32.0515 33.5344 32.2256C33.7085 32.3997 33.8063 32.6359 33.8063 32.8821C33.8063 33.1283 33.7085 33.3645 33.5344 33.5386C33.3603 33.7127 33.1241 33.8105 32.8779 33.8105ZM31.5781 21.7541L27.2937 17.4697C27.0174 17.6322 26.7026 17.7179 26.382 17.7179C26.0614 17.7179 25.7467 17.6322 25.4703 17.4697L21.186 21.7541C21.0083 21.9285 20.7689 22.0258 20.5199 22.0246C20.2709 22.0235 20.0324 21.9241 19.8564 21.748C19.6803 21.5719 19.5809 21.3334 19.5797 21.0844C19.5786 20.8354 19.6758 20.5961 19.8503 20.4184L24.5382 15.7305C24.568 15.2617 24.7752 14.8218 25.1177 14.5004C25.4602 14.1789 25.9123 14 26.382 14C26.8518 14 27.3039 14.1789 27.6464 14.5004C27.9889 14.8218 28.1961 15.2617 28.2259 15.7305L32.9138 20.4184C33.0882 20.5961 33.1855 20.8354 33.1843 21.0844C33.1832 21.3334 33.0838 21.5719 32.9077 21.748C32.7316 21.9241 32.4932 22.0235 32.2442 22.0246C31.9951 22.0258 31.7558 21.9285 31.5781 21.7541ZM27.9263 26.3832C28.1725 26.3832 28.4087 26.481 28.5828 26.6551C28.7569 26.8292 28.8547 27.0654 28.8547 27.3116C28.8547 27.5578 28.7569 27.794 28.5828 27.9681C28.4087 28.1422 28.1725 28.24 27.9263 28.24H19.88C19.6338 28.24 19.3976 28.1422 19.2235 27.9681C19.0494 27.794 18.9516 27.5578 18.9516 27.3116C18.9516 27.0654 19.0494 26.8292 19.2235 26.6551C19.3976 26.481 19.6338 26.3832 19.88 26.3832H27.9263Z" fill="#EB9E52"/>
<path d="M36.2821 40H16.4758C16.1507 40 15.8287 39.936 15.5283 39.8115C15.228 39.6871 14.955 39.5048 14.7251 39.2749C14.4952 39.045 14.3129 38.772 14.1885 38.4717C14.064 38.1713 14 37.8493 14 37.5242V22.6695C14 22.3444 14.064 22.0224 14.1885 21.722C14.3129 21.4217 14.4952 21.1487 14.7251 20.9188C14.955 20.6889 15.228 20.5066 15.5283 20.3822C15.8287 20.2577 16.1507 20.1937 16.4758 20.1937H36.2821C36.6072 20.1937 36.9292 20.2577 37.2295 20.3822C37.5299 20.5066 37.8028 20.6889 38.0327 20.9188C38.2626 21.1487 38.445 21.4217 38.5694 21.722C38.6938 22.0224 38.7579 22.3444 38.7579 22.6695V37.5242C38.7579 37.8493 38.6938 38.1713 38.5694 38.4717C38.445 38.772 38.2626 39.045 38.0327 39.2749C37.8028 39.5048 37.5299 39.6871 37.2295 39.8115C36.9292 39.936 36.6072 40 36.2821 40ZM36.901 23.2884C36.901 22.9601 36.7706 22.6453 36.5385 22.4131C36.3063 22.181 35.9915 22.0505 35.6631 22.0505H17.0947C16.7664 22.0505 16.4516 22.181 16.2194 22.4131C15.9873 22.6453 15.8568 22.9601 15.8568 23.2884V36.9053C15.8568 37.2336 15.9873 37.5484 16.2194 37.7806C16.4516 38.0127 16.7664 38.1432 17.0947 38.1432H35.6631C35.9915 38.1432 36.3063 38.0127 36.5385 37.7806C36.7706 37.5484 36.901 37.2336 36.901 36.9053V23.2884Z" fill="#4298FF"/>
</g>
</g>
</svg>
