<svg width="54" height="53" viewBox="0 0 54 53" fill="none" xmlns="http://www.w3.org/2000/svg">
<g id="&#229;&#133;&#182;&#229;&#174;&#131;">
<path id="Vector" d="M26.6592 53C11.9633 53 0 41.1081 0 26.5C0 11.8919 11.9633 0 26.6592 0C41.355 0 53.3183 11.8919 53.3183 26.5C53.3183 41.1081 41.355 53 26.6592 53Z" fill="#E6F1FF"/>
<g id="Group 322">
<path id="Vector_2" d="M38.177 36.6725L34.8214 37.1505L32.7024 39.8305C32.5587 39.9135 32.4 39.9674 32.2354 39.9892C32.0709 40.0109 31.9037 39.9999 31.7433 39.957C31.583 39.914 31.4327 39.8399 31.3011 39.7389C31.1694 39.6378 31.0589 39.5118 30.976 39.368L27.7849 33.8417C27.3205 33.9116 26.8517 33.9485 26.382 33.952C25.8934 33.9481 25.4058 33.9085 24.923 33.8336L21.7232 39.3755C21.5579 39.6618 21.2857 39.8707 20.9664 39.9562C20.6471 40.0418 20.3068 39.997 20.0205 39.8317L17.9327 37.1873L14.6232 36.7155C14.3369 36.5502 14.128 36.2779 14.0425 35.9586C13.9569 35.6393 14.0017 35.2991 14.167 35.0128L17.7052 28.8844C16.8481 27.3702 16.402 25.6582 16.4114 23.9183C16.4207 22.1785 16.8852 20.4713 17.7585 18.9665C18.6319 17.4616 19.8837 16.2115 21.3898 15.3403C22.8958 14.469 24.6036 14.007 26.3435 14.0001C28.0834 13.9932 29.7948 14.4416 31.3078 15.3008C32.8207 16.1601 34.0825 17.4002 34.9678 18.898C35.8531 20.3959 36.3311 22.0993 36.3543 23.839C36.3774 25.5788 35.945 27.2943 35.1 28.8152L38.6388 34.9442C38.7221 35.088 38.7762 35.2468 38.7981 35.4115C38.8199 35.5762 38.8091 35.7436 38.7662 35.9041C38.7233 36.0646 38.6492 36.2151 38.5481 36.347C38.447 36.4788 38.3209 36.5894 38.177 36.6725ZM16.0991 35.4098L18.8688 35.5693L20.4169 37.9028L23.0346 33.3662C21.4401 32.7973 20.0166 31.8322 18.8981 30.5615L16.0991 35.4098ZM26.3833 15.8797C24.7808 15.8797 23.2143 16.3549 21.8819 17.2452C20.5495 18.1355 19.511 19.4009 18.8978 20.8813C18.2846 22.3618 18.1241 23.9909 18.4367 25.5626C18.7494 27.1343 19.521 28.5779 20.6541 29.711C21.7872 30.8442 23.2309 31.6158 24.8026 31.9284C26.3743 32.2411 28.0034 32.0806 29.4838 31.4674C30.9643 30.8542 32.2297 29.8157 33.12 28.4833C34.0103 27.1509 34.4855 25.5844 34.4855 23.9819C34.4855 22.9179 34.2759 21.8643 33.8687 20.8813C33.4616 19.8983 32.8648 19.0051 32.1124 18.2528C31.36 17.5004 30.4668 16.9036 29.4838 16.4965C28.5008 16.0893 27.4473 15.8797 26.3833 15.8797V15.8797ZM33.899 30.526C32.7707 31.8217 31.3267 32.8039 29.707 33.3774L32.3047 37.8772L33.8753 35.5089L36.6837 35.3468L33.899 30.526Z" fill="#4298FF"/>
<path id="Vector_3" d="M26.42 29.591C25.3106 29.591 24.2261 29.262 23.3037 28.6457C22.3813 28.0293 21.6623 27.1533 21.2378 26.1283C20.8132 25.1034 20.7021 23.9756 20.9186 22.8875C21.135 21.7994 21.6692 20.7999 22.4537 20.0155C23.2382 19.231 24.2376 18.6968 25.3257 18.4803C26.4138 18.2639 27.5416 18.375 28.5666 18.7995C29.5915 19.2241 30.4676 19.943 31.0839 20.8655C31.7003 21.7879 32.0292 22.8724 32.0292 23.9818C32.0292 25.4694 31.4383 26.8962 30.3863 27.9481C29.3344 29 27.9077 29.591 26.42 29.591ZM26.4007 20.223C25.6611 20.223 24.9381 20.4423 24.3232 20.8532C23.7082 21.2641 23.2289 21.8481 22.9459 22.5314C22.6628 23.2147 22.5888 23.9666 22.7331 24.692C22.8774 25.4174 23.2335 26.0837 23.7565 26.6067C24.2795 27.1297 24.9458 27.4858 25.6712 27.6301C26.3965 27.7744 27.1484 27.7003 27.8317 27.4173C28.515 27.1343 29.0991 26.655 29.51 26.04C29.9209 25.4251 30.1402 24.7021 30.1402 23.9625C30.1402 22.9707 29.7462 22.0195 29.0449 21.3183C28.3436 20.617 27.3925 20.223 26.4007 20.223V20.223Z" fill="#EB9E52"/>
</g>
</g>
</svg>
