<svg width="54" height="53" viewBox="0 0 54 53" fill="none" xmlns="http://www.w3.org/2000/svg">
<g id="&#228;&#189;&#147;&#230;&#163;&#128;&#230;&#182;&#136;&#230;&#129;&#175;">
<path id="Vector" d="M26.6592 53C11.9633 53 0 41.1081 0 26.5C0 11.8919 11.9633 0 26.6592 0C41.355 0 53.3183 11.8919 53.3183 26.5C53.3183 41.1081 41.355 53 26.6592 53Z" fill="#E6F1FF"/>
<g id="Vector_2">
<path d="M39.8608 36.0999C40.0548 36.5088 40.1746 36.949 40.2144 37.3999C40.218 37.7423 40.1532 38.0821 40.0239 38.3991C39.8945 38.7162 39.7031 39.0043 39.461 39.2465C39.2188 39.4886 38.9307 39.68 38.6136 39.8094C38.2965 39.9388 37.9568 40.0035 37.6144 39.9999H16.6C16.2586 39.9999 15.9205 39.9326 15.605 39.8019C15.2896 39.6713 15.0029 39.4798 14.7615 39.2383C14.5201 38.9969 14.3286 38.7103 14.1979 38.3948C14.0673 38.0794 14 37.7413 14 37.3999C14.0134 36.9476 14.1259 36.5039 14.3295 36.0999L21.8929 22.6274V15.95H20.2679C20.0093 15.95 19.7613 15.8473 19.5785 15.6644C19.3956 15.4816 19.2929 15.2336 19.2929 14.975C19.2929 14.7164 19.3956 14.4684 19.5785 14.2856C19.7613 14.1027 20.0093 14 20.2679 14H33.9178C34.1764 14 34.4244 14.1027 34.6073 14.2856C34.7901 14.4684 34.8928 14.7164 34.8928 14.975C34.8928 15.2336 34.7901 15.4816 34.6073 15.6644C34.4244 15.8473 34.1764 15.95 33.9178 15.95H32.2928V22.6157L39.8608 36.0999ZM16.6455 36.005C16.4904 36.2672 16.4085 36.5662 16.4082 36.8708C16.4109 37.0352 16.4473 37.1974 16.5151 37.3472C16.583 37.4971 16.6809 37.6314 16.8027 37.7418C16.9246 37.8523 17.0678 37.9366 17.2236 37.9895C17.3794 38.0423 17.5443 38.0627 17.7082 38.0492H36.4099C36.7547 38.0492 37.0854 37.9122 37.3292 37.6685C37.573 37.4247 37.7099 37.094 37.7099 36.7492C37.6949 36.5023 37.6315 36.2607 37.5234 36.0381L30.4566 23.7499H23.722L16.6455 36.005ZM23.8429 15.95V21.8H30.3429V15.95H23.8429Z" fill="#4298FF"/>
<path d="M24.1679 30.8999C24.3607 30.8999 24.5492 30.9571 24.7096 31.0642C24.8699 31.1714 24.9949 31.3236 25.0687 31.5018C25.1425 31.6799 25.1618 31.876 25.1242 32.0651C25.0865 32.2542 24.9937 32.428 24.8573 32.5643C24.721 32.7007 24.5472 32.7935 24.3581 32.8312C24.169 32.8688 23.9729 32.8495 23.7948 32.7757C23.6166 32.7019 23.4643 32.5769 23.3572 32.4166C23.2501 32.2562 23.1929 32.0677 23.1929 31.8749C23.1929 31.6163 23.2956 31.3683 23.4785 31.1855C23.6613 31.0026 23.9093 30.8999 24.1679 30.8999ZM29.3679 31.5499C29.5607 31.5499 29.7492 31.6071 29.9095 31.7142C30.0699 31.8213 30.1948 31.9736 30.2686 32.1518C30.3424 32.3299 30.3617 32.526 30.3241 32.7151C30.2865 32.9042 30.1936 33.078 30.0573 33.2143C29.9209 33.3507 29.7472 33.4435 29.5581 33.4812C29.3689 33.5188 29.1729 33.4995 28.9947 33.4257C28.8166 33.3519 28.6643 33.2269 28.5572 33.0666C28.4501 32.9062 28.3929 32.7177 28.3929 32.5249C28.3929 32.2663 28.4956 32.0183 28.6784 31.8355C28.8613 31.6526 29.1093 31.5499 29.3679 31.5499ZM26.7679 34.1499C26.9607 34.1499 27.1492 34.2071 27.3096 34.3142C27.4699 34.4213 27.5949 34.5736 27.6687 34.7518C27.7424 34.9299 27.7618 35.126 27.7241 35.3151C27.6865 35.5042 27.5937 35.6779 27.4573 35.8143C27.3209 35.9507 27.1472 36.0435 26.9581 36.0811C26.769 36.1188 26.5729 36.0995 26.3948 36.0257C26.2166 35.9519 26.0643 35.8269 25.9572 35.6666C25.8501 35.5062 25.7929 35.3177 25.7929 35.1249C25.7929 34.8663 25.8956 34.6183 26.0785 34.4355C26.2613 34.2526 26.5093 34.1499 26.7679 34.1499ZM22.5429 34.1499C22.8 34.1499 23.0514 34.2261 23.2651 34.369C23.4789 34.5118 23.6455 34.7148 23.7439 34.9524C23.8423 35.1899 23.8681 35.4513 23.8179 35.7035C23.7678 35.9557 23.6439 36.1873 23.4621 36.3691C23.2803 36.5509 23.0487 36.6747 22.7965 36.7249C22.5443 36.7751 22.283 36.7493 22.0454 36.6509C21.8079 36.5525 21.6048 36.3859 21.462 36.1721C21.3192 35.9583 21.2429 35.707 21.2429 35.4499C21.2429 35.1051 21.3799 34.7744 21.6237 34.5306C21.8675 34.2868 22.1981 34.1499 22.5429 34.1499ZM31.6428 34.1499C31.9 34.1499 32.1513 34.2261 32.3651 34.369C32.5789 34.5118 32.7455 34.7148 32.8439 34.9524C32.9423 35.1899 32.968 35.4513 32.9179 35.7035C32.8677 35.9557 32.7439 36.1873 32.5621 36.3691C32.3803 36.5509 32.1486 36.6747 31.8965 36.7249C31.6443 36.7751 31.3829 36.7493 31.1454 36.6509C30.9078 36.5525 30.7048 36.3859 30.5619 36.1721C30.4191 35.9583 30.3429 35.707 30.3429 35.4499C30.3429 35.1051 30.4798 34.7744 30.7236 34.5306C30.9674 34.2868 31.2981 34.1499 31.6428 34.1499Z" fill="#F2A355"/>
</g>
</g>
</svg>
