<svg width="54" height="53" viewBox="0 0 54 53" fill="none" xmlns="http://www.w3.org/2000/svg">
<g id="Frame 262">
<path id="Vector" d="M26.6592 53C11.9633 53 0 41.1081 0 26.5C0 11.8919 11.9633 0 26.6592 0C41.355 0 53.3183 11.8919 53.3183 26.5C53.3183 41.1081 41.355 53 26.6592 53Z" fill="#E6F1FF"/>
<path id="Union" fill-rule="evenodd" clip-rule="evenodd" d="M23.052 14H29.873C30.3159 13.9999 30.7545 14.0871 31.1637 14.2566C31.5729 14.426 31.9447 14.6745 32.2579 14.9876C32.571 15.3008 32.8195 15.6726 32.9889 16.0818C33.1584 16.491 33.2456 16.9296 33.2455 17.3725V19.34L36.1565 22.351C36.6975 22.9104 37 23.6582 37 24.4365V37C37 37.7956 36.6839 38.5587 36.1213 39.1213C35.5587 39.6839 34.7957 40 34 40H19C18.2044 40 17.4413 39.6839 16.8787 39.1213C16.3161 38.5587 16 37.7956 16 37V34V25.5V24.4245C16 23.6568 16.2944 22.9183 16.8225 22.361L19.68 19.346V17.3725C19.6799 16.9296 19.7671 16.4911 19.9365 16.0819C20.106 15.6728 20.3543 15.301 20.6675 14.9878C20.9806 14.6746 21.3523 14.4262 21.7615 14.2567C22.1706 14.0872 22.6091 14 23.052 14ZM18 37V35H21C21.5304 35 22.0391 34.7893 22.4142 34.4143C22.7893 34.0392 23 33.5305 23 33V26.5C23 25.9696 22.7893 25.4609 22.4142 25.0858C22.0391 24.7108 21.5304 24.5 21 24.5H18V24.425C17.9999 24.1691 18.098 23.9228 18.274 23.737L21.1315 20.722C21.1435 20.7093 21.1553 20.6965 21.167 20.6836H28.8962L28.9712 20.6806C29.2287 20.6606 29.4685 20.5417 29.6404 20.3489C29.8122 20.156 29.9028 19.9042 29.8931 19.646C29.8834 19.3879 29.7742 19.1435 29.5884 18.9641C29.4025 18.7847 29.1545 18.6842 28.8962 18.6836H21.68V17.372C21.68 17.1918 21.7155 17.0133 21.7845 16.8468C21.8535 16.6804 21.9546 16.5291 22.082 16.4017C22.2095 16.2743 22.3608 16.1732 22.5273 16.1043C22.6938 16.0354 22.8723 15.9999 23.0525 16H29.873C30.0533 15.9999 30.2318 16.0354 30.3983 16.1043C30.5649 16.1733 30.7162 16.2744 30.8436 16.4018C30.9711 16.5293 31.0722 16.6806 31.1412 16.8472C31.2101 17.0137 31.2456 17.1922 31.2455 17.3725V19.34C31.2455 19.8587 31.447 20.3571 31.8075 20.73L34.719 23.741C34.8992 23.9275 35 24.1767 35 24.436V37C35 37.1313 34.9741 37.2614 34.9239 37.3827C34.8736 37.504 34.8 37.6142 34.7071 37.7071C34.6142 37.8 34.504 37.8736 34.3827 37.9239C34.2614 37.9741 34.1313 38 34 38H19C18.8687 38 18.7386 37.9741 18.6173 37.9239C18.496 37.8736 18.3858 37.8 18.2929 37.7071C18.2 37.6142 18.1264 37.504 18.0761 37.3827C18.0259 37.2614 18 37.1313 18 37ZM18 26.4995H21V32.9995H18V26.4995ZM33 34C33 33.7348 32.8947 33.4805 32.7071 33.2929C32.5196 33.1054 32.2652 33 32 33C31.7348 33 31.4804 33.1054 31.2929 33.2929C31.1054 33.4805 31 33.7348 31 34C31 34.2653 31.1054 34.5196 31.2929 34.7071C31.4804 34.8947 31.7348 35 32 35C32.2652 35 32.5196 34.8947 32.7071 34.7071C32.8947 34.5196 33 34.2653 33 34ZM32.3827 24.5762C32.2614 24.5259 32.1313 24.5 32 24.5C31.7348 24.5 31.4804 24.6054 31.2929 24.7929C31.1054 24.9805 31 25.2348 31 25.5V31H33V25.5C33 25.3687 32.9742 25.2387 32.9239 25.1174C32.8736 24.996 32.8 24.8858 32.7071 24.7929C32.6143 24.7001 32.504 24.6264 32.3827 24.5762Z" fill="#4298FF"/>
</g>
</svg>
