<svg width="54" height="53" viewBox="0 0 54 53" fill="none" xmlns="http://www.w3.org/2000/svg">
<path d="M26.6592 53C11.9633 53 0 41.1081 0 26.5C0 11.8919 11.9633 0 26.6592 0C41.355 0 53.3183 11.8919 53.3183 26.5C53.3183 41.1081 41.355 53 26.6592 53Z" fill="#E6F1FF"/>
<path d="M27.1331 31.7505C27.0353 31.7504 26.9385 31.7311 26.8482 31.6936C26.7579 31.6562 26.6759 31.6013 26.6068 31.5323L22.3743 27.3054C22.2344 27.1657 22.1558 26.9762 22.1558 26.7785C22.1558 26.5808 22.2344 26.3913 22.3743 26.2514C22.5144 26.1117 22.7042 26.0332 22.9021 26.0332C23.1 26.0332 23.2898 26.1117 23.4298 26.2514L27.6608 30.4773C27.7651 30.5816 27.8363 30.7144 27.865 30.859C27.8938 31.0035 27.8791 31.1533 27.8226 31.2895C27.7662 31.4258 27.6704 31.5421 27.5478 31.624C27.425 31.7059 27.2807 31.7495 27.1331 31.7495V31.7505Z" fill="#4298FF"/>
<path d="M22.9007 31.7505C22.7528 31.7507 22.6084 31.707 22.4854 31.6251C22.3625 31.5431 22.2667 31.4266 22.2102 31.2903C22.1536 31.1539 22.139 31.0038 22.1679 30.8591C22.1969 30.7144 22.2682 30.5815 22.373 30.4773L26.6069 26.2514C26.7469 26.1117 26.9367 26.0332 27.1346 26.0332C27.3325 26.0332 27.5224 26.1117 27.6623 26.2514C27.8023 26.3913 27.8809 26.5808 27.8809 26.7785C27.8809 26.9762 27.8023 27.1657 27.6623 27.3054L23.4299 31.5323C23.3605 31.6017 23.2779 31.6568 23.1871 31.6942C23.0963 31.7316 22.9989 31.7508 22.9007 31.7505Z" fill="#4298FF"/>
<path d="M22.6751 39.9999C22.1851 40.0007 21.6999 39.905 21.2471 39.718C20.7943 39.531 20.383 39.2566 20.0368 38.9104L14.9847 33.8651C14.6382 33.5191 14.3634 33.1083 14.1759 32.6562C13.9883 32.2042 13.8918 31.7197 13.8918 31.2303C13.8918 30.7411 13.9883 30.2565 14.1759 29.8044C14.3634 29.3524 14.6382 28.9416 14.9847 28.5956L24.7639 18.8296C24.9808 18.6136 25.2397 18.4442 25.5246 18.3318C25.8095 18.2194 26.1145 18.1663 26.4207 18.1759L33.4524 18.4081C34.0251 18.4271 34.5688 18.6647 34.9713 19.0721C35.3739 19.4793 35.6048 20.0253 35.6163 20.5975L35.7557 27.5103C35.761 27.8114 35.7056 28.1106 35.5928 28.3899C35.48 28.6692 35.3121 28.9231 35.0991 29.1363L25.3118 38.9104C24.9657 39.2564 24.5547 39.5307 24.1022 39.7176C23.6497 39.9046 23.1647 40.0005 22.6751 39.9999ZM21.0931 37.8564C21.5132 38.275 22.0824 38.5101 22.676 38.5101C23.2694 38.5101 23.8386 38.275 24.2588 37.8564L34.0463 28.0823C34.1171 28.0112 34.173 27.9266 34.2104 27.8334C34.2479 27.7404 34.2663 27.6408 34.2645 27.5404L34.1251 20.6277C34.1213 20.4369 34.0443 20.2548 33.9101 20.119C33.7759 19.9832 33.5946 19.904 33.4037 19.8976L26.3723 19.6654C26.2703 19.6623 26.1687 19.6801 26.0738 19.7176C25.9788 19.755 25.8925 19.8115 25.8201 19.8833L16.0407 29.6493C15.8328 29.857 15.6679 30.1034 15.5554 30.3747C15.4429 30.6459 15.385 30.9366 15.385 31.2302C15.385 31.5238 15.4429 31.8145 15.5554 32.0858C15.6679 32.357 15.8328 32.6035 16.0407 32.8111L21.0931 37.8564Z" fill="#4298FF"/>
<path d="M33.6633 23.8076C32.6414 23.8076 31.7423 23.461 31.08 22.7995C31.0102 22.7304 30.9548 22.6482 30.9169 22.5577C30.8789 22.4671 30.8594 22.37 30.8592 22.2719C30.859 22.1737 30.8782 22.0765 30.9157 21.9858C30.9532 21.8951 31.0083 21.8127 31.0778 21.7433C31.1473 21.674 31.2298 21.619 31.3207 21.5815C31.4115 21.5441 31.5089 21.5249 31.6071 21.5251C31.7054 21.5254 31.8027 21.545 31.8933 21.5829C31.9839 21.6207 32.0662 21.6761 32.1354 21.7458C32.6129 22.2227 33.347 22.4099 34.2018 22.2728C35.1459 22.1213 36.101 21.603 36.892 20.8122C37.683 20.0214 38.2017 19.0684 38.3545 18.1259C38.4919 17.2719 38.3044 16.5389 37.8268 16.062C37.3493 15.5851 36.6153 15.3979 35.7604 15.535C34.8163 15.6864 33.8609 16.2048 33.0703 16.9956C32.5362 17.5288 32.1172 18.1518 31.8584 18.7972C31.822 18.888 31.768 18.9708 31.6996 19.0408C31.6311 19.1108 31.5496 19.1667 31.4594 19.2053C31.3693 19.2438 31.2726 19.2642 31.1746 19.2654C31.0765 19.2666 30.9793 19.2485 30.8883 19.2121C30.7974 19.1757 30.7145 19.1218 30.6444 19.0535C30.5742 18.9851 30.5183 18.9036 30.4797 18.8137C30.4411 18.7237 30.4207 18.6271 30.4195 18.5292C30.4183 18.4313 30.4365 18.3342 30.4729 18.2434C30.806 17.4123 31.3385 16.6164 32.0151 15.9416C33.0261 14.9319 34.2722 14.2651 35.5234 14.0636C36.8639 13.8485 38.0567 14.1828 38.8822 15.0083C39.7078 15.8337 40.0433 17.0236 39.8282 18.3622C39.627 19.6122 38.9596 20.8564 37.9477 21.8662C36.9359 22.8761 35.6906 23.5426 34.4391 23.7441C34.1826 23.7859 33.9232 23.8071 33.6633 23.8076Z" fill="#4298FF"/>
<path d="M27.1331 31.7505C27.0353 31.7504 26.9385 31.7311 26.8482 31.6936C26.7579 31.6562 26.6759 31.6013 26.6068 31.5323L22.3743 27.3054C22.2344 27.1657 22.1558 26.9762 22.1558 26.7785C22.1558 26.5808 22.2344 26.3913 22.3743 26.2514C22.5144 26.1117 22.7042 26.0332 22.9021 26.0332C23.1 26.0332 23.2898 26.1117 23.4298 26.2514L27.6608 30.4773C27.7651 30.5816 27.8363 30.7144 27.865 30.859C27.8938 31.0035 27.8791 31.1533 27.8226 31.2895C27.7662 31.4258 27.6704 31.5421 27.5478 31.624C27.425 31.7059 27.2807 31.7495 27.1331 31.7495V31.7505Z" stroke="#4298FF"/>
<path d="M22.9007 31.7505C22.7528 31.7507 22.6084 31.707 22.4854 31.6251C22.3625 31.5431 22.2667 31.4266 22.2102 31.2903C22.1536 31.1539 22.139 31.0038 22.1679 30.8591C22.1969 30.7144 22.2682 30.5815 22.373 30.4773L26.6069 26.2514C26.7469 26.1117 26.9367 26.0332 27.1346 26.0332C27.3325 26.0332 27.5224 26.1117 27.6623 26.2514C27.8023 26.3913 27.8809 26.5808 27.8809 26.7785C27.8809 26.9762 27.8023 27.1657 27.6623 27.3054L23.4299 31.5323C23.3605 31.6017 23.2779 31.6568 23.1871 31.6942C23.0963 31.7316 22.9989 31.7508 22.9007 31.7505Z" stroke="#4298FF"/>
<path d="M22.6751 39.9999C22.1851 40.0007 21.6999 39.905 21.2471 39.718C20.7943 39.531 20.383 39.2566 20.0368 38.9104L14.9847 33.8651C14.6382 33.5191 14.3634 33.1083 14.1759 32.6562C13.9883 32.2042 13.8918 31.7197 13.8918 31.2303C13.8918 30.7411 13.9883 30.2565 14.1759 29.8044C14.3634 29.3524 14.6382 28.9416 14.9847 28.5956L24.7639 18.8296C24.9808 18.6136 25.2397 18.4442 25.5246 18.3318C25.8095 18.2194 26.1145 18.1663 26.4207 18.1759L33.4524 18.4081C34.0251 18.4271 34.5688 18.6647 34.9713 19.0721C35.3739 19.4793 35.6048 20.0253 35.6163 20.5975L35.7557 27.5103C35.761 27.8114 35.7056 28.1106 35.5928 28.3899C35.48 28.6692 35.3121 28.9231 35.0991 29.1363L25.3118 38.9104C24.9657 39.2564 24.5547 39.5307 24.1022 39.7176C23.6497 39.9046 23.1647 40.0005 22.6751 39.9999ZM21.0931 37.8564C21.5132 38.275 22.0824 38.5101 22.676 38.5101C23.2694 38.5101 23.8386 38.275 24.2588 37.8564L34.0463 28.0823C34.1171 28.0112 34.173 27.9266 34.2104 27.8334C34.2479 27.7404 34.2663 27.6408 34.2645 27.5404L34.1251 20.6277C34.1213 20.4369 34.0443 20.2548 33.9101 20.119C33.7759 19.9832 33.5946 19.904 33.4037 19.8976L26.3723 19.6654C26.2703 19.6623 26.1687 19.6801 26.0738 19.7176C25.9788 19.755 25.8925 19.8115 25.8201 19.8833L16.0407 29.6493C15.8328 29.857 15.6679 30.1034 15.5554 30.3747C15.4429 30.6459 15.385 30.9366 15.385 31.2302C15.385 31.5238 15.4429 31.8145 15.5554 32.0858C15.6679 32.357 15.8328 32.6035 16.0407 32.8111L21.0931 37.8564Z" stroke="#4298FF"/>
<path d="M33.6633 23.8076C32.6414 23.8076 31.7423 23.461 31.08 22.7995C31.0102 22.7304 30.9548 22.6482 30.9169 22.5577C30.8789 22.4671 30.8594 22.37 30.8592 22.2719C30.859 22.1737 30.8782 22.0765 30.9157 21.9858C30.9532 21.8951 31.0083 21.8127 31.0778 21.7433C31.1473 21.674 31.2298 21.619 31.3207 21.5815C31.4115 21.5441 31.5089 21.5249 31.6071 21.5251C31.7054 21.5254 31.8027 21.545 31.8933 21.5829C31.9839 21.6207 32.0662 21.6761 32.1354 21.7458C32.6129 22.2227 33.347 22.4099 34.2018 22.2728C35.1459 22.1213 36.101 21.603 36.892 20.8122C37.683 20.0214 38.2017 19.0684 38.3545 18.1259C38.4919 17.2719 38.3044 16.5389 37.8268 16.062C37.3493 15.5851 36.6153 15.3979 35.7604 15.535C34.8163 15.6864 33.8609 16.2048 33.0703 16.9956C32.5362 17.5288 32.1172 18.1518 31.8584 18.7972C31.822 18.888 31.768 18.9708 31.6996 19.0408C31.6311 19.1108 31.5496 19.1667 31.4594 19.2053C31.3693 19.2438 31.2726 19.2642 31.1746 19.2654C31.0765 19.2666 30.9793 19.2485 30.8883 19.2121C30.7974 19.1757 30.7145 19.1218 30.6444 19.0535C30.5742 18.9851 30.5183 18.9036 30.4797 18.8137C30.4411 18.7237 30.4207 18.6271 30.4195 18.5292C30.4183 18.4313 30.4365 18.3342 30.4729 18.2434C30.806 17.4123 31.3385 16.6164 32.0151 15.9416C33.0261 14.9319 34.2722 14.2651 35.5234 14.0636C36.8639 13.8485 38.0567 14.1828 38.8823 15.0083C39.7078 15.8337 40.0433 17.0236 39.8282 18.3622C39.627 19.6122 38.9596 20.8564 37.9477 21.8662C36.9359 22.8761 35.6906 23.5426 34.4391 23.7441C34.1826 23.7859 33.9232 23.8071 33.6633 23.8076Z" stroke="#4298FF"/>
</svg>
