<svg width="54" height="53" viewBox="0 0 54 53" fill="none" xmlns="http://www.w3.org/2000/svg">
<g id="&#233;&#151;&#168;&#232;&#175;&#138;&#230;&#182;&#136;&#230;&#129;&#175;">
<path id="Vector" d="M26.6592 53C11.9633 53 0 41.1081 0 26.5C0 11.8919 11.9633 0 26.6592 0C41.355 0 53.3183 11.8919 53.3183 26.5C53.3183 41.1081 41.355 53 26.6592 53Z" fill="#E6F1FF"/>
<g id="Vector_2">
<path d="M35.1374 25.2886C36.0074 25.5363 36.8211 25.9506 37.5331 26.5087C37.5374 26.5109 37.5416 26.5134 37.5456 26.5162C37.6757 26.5998 37.7835 26.7138 37.8597 26.8484C37.9359 26.983 37.9783 27.1341 37.9831 27.2887C37.9831 27.5373 37.8843 27.7758 37.7085 27.9516C37.5327 28.1275 37.2942 28.2262 37.0456 28.2262C36.8712 28.2218 36.7017 28.1674 36.5574 28.0694C36.5574 28.0694 34.9055 26.5068 31.4397 26.5068C30.2492 26.5066 29.0704 26.741 27.9706 27.1965C26.8708 27.652 25.8715 28.3197 25.0297 29.1615C24.188 30.0033 23.5203 31.0026 23.0649 32.1025C22.6095 33.2024 22.3752 34.3812 22.3755 35.5716C22.3755 35.8203 22.2767 36.0587 22.1009 36.2345C21.925 36.4104 21.6866 36.5091 21.4379 36.5091C21.1893 36.5091 20.9508 36.4104 20.775 36.2345C20.5991 36.0587 20.5004 35.8203 20.5004 35.5716C20.5017 33.3209 21.1976 31.1254 22.4933 29.2849C23.7889 27.4445 25.621 26.0489 27.7395 25.2886C26.6776 24.509 25.8892 23.4139 25.4869 22.1596C25.0845 20.9053 25.0887 19.5559 25.4988 18.3041C25.909 17.0523 26.7042 15.9621 27.7709 15.1891C28.8375 14.4162 30.1211 14 31.4384 14C32.7557 14 34.0393 14.4162 35.106 15.1891C36.1726 15.9621 36.9678 17.0523 37.378 18.3041C37.7882 19.5559 37.7924 20.9053 37.39 22.1596C36.9876 23.4139 36.1992 24.509 35.1374 25.2886ZM31.4384 15.8831C30.5731 15.8831 29.7272 16.1397 29.0077 16.6205C28.2882 17.1012 27.7274 17.7846 27.3962 18.584C27.0651 19.3835 26.9784 20.2632 27.1473 21.1119C27.3161 21.9606 27.7328 22.7402 28.3447 23.3521C28.9566 23.964 29.7361 24.3807 30.5849 24.5495C31.4336 24.7183 32.3133 24.6317 33.1127 24.3005C33.9122 23.9694 34.5955 23.4086 35.0763 22.6891C35.557 21.9696 35.8136 21.1237 35.8136 20.2583C35.8136 19.6838 35.7005 19.1148 35.4806 18.584C35.2607 18.0532 34.9384 17.5709 34.5322 17.1646C34.1259 16.7583 33.6436 16.436 33.1127 16.2162C32.5819 15.9963 32.013 15.8831 31.4384 15.8831ZM23.938 24.6336C24.1867 24.6336 24.4252 24.7323 24.601 24.9082C24.7768 25.084 24.8756 25.3225 24.8756 25.5711C24.8756 25.8198 24.7768 26.0582 24.601 26.2341C24.4252 26.4099 24.1867 26.5087 23.938 26.5087C22.7479 26.5087 21.5694 26.7431 20.4698 27.1985C19.3702 27.654 18.3711 28.3216 17.5296 29.1631C16.688 30.0047 16.0204 31.0038 15.565 32.1034C15.1095 33.2029 14.8751 34.3814 14.8751 35.5716C14.8751 35.8203 14.7763 36.0587 14.6005 36.2345C14.4247 36.4104 14.1862 36.5091 13.9375 36.5091C13.6889 36.5091 13.4504 36.4104 13.2746 36.2345C13.0988 36.0587 13 35.8203 13 35.5716C13.0013 33.3209 13.6973 31.1254 14.9929 29.2849C16.2885 27.4445 18.1207 26.0489 20.2391 25.2886C19.1771 24.5098 18.3885 23.4153 17.986 22.1614C17.5834 20.9074 17.5877 19.5584 17.998 18.307C18.4083 17.0556 19.2038 15.966 20.2706 15.1939C21.3375 14.4218 22.6211 14.0067 23.938 14.008C24.1867 14.008 24.4252 14.1068 24.601 14.2826C24.7768 14.4585 24.8756 14.6969 24.8756 14.9456C24.8756 15.1942 24.7768 15.4327 24.601 15.6085C24.4252 15.7843 24.1867 15.8831 23.938 15.8831C22.7777 15.8831 21.6648 16.3441 20.8443 17.1646C20.0238 17.9851 19.5628 19.098 19.5628 20.2583C19.5628 21.4187 20.0238 22.5316 20.8443 23.3521C21.6648 24.1726 22.7777 24.6336 23.938 24.6336Z" fill="#4298FF"/>
<path d="M37.7612 36.2023L35.1924 38.7711C35.0458 38.9177 34.8471 39 34.6398 39C34.4326 39 34.2338 38.9177 34.0873 38.7711C33.9408 38.6246 33.8584 38.4258 33.8584 38.2186C33.8584 38.0114 33.9408 37.8126 34.0873 37.6661L35.2442 36.5091H27.6882C27.4396 36.5091 27.2011 36.4104 27.0253 36.2345C26.8495 36.0587 26.7507 35.8203 26.7507 35.5716C26.7507 35.3229 26.8495 35.0845 27.0253 34.9087C27.2011 34.7328 27.4396 34.6341 27.6882 34.6341H35.2555L34.0942 33.4721C33.9548 33.3243 33.8785 33.1279 33.8815 32.9247C33.8845 32.7215 33.9665 32.5274 34.1102 32.3837C34.2539 32.24 34.4479 32.158 34.6512 32.155C34.8544 32.152 35.0507 32.2283 35.1986 32.3677L37.7675 34.9366C37.8717 35.1376 37.9502 35.351 38.0012 35.5716C37.9599 35.7946 37.8786 36.0082 37.7612 36.2023Z" fill="#F2A355"/>
</g>
</g>
</svg>
