<svg width="54" height="53" viewBox="0 0 54 53" fill="none" xmlns="http://www.w3.org/2000/svg">
<g id="&#228;&#189;&#143;&#233;&#153;&#162;&#230;&#182;&#136;&#230;&#129;&#175;">
<path id="Vector" d="M26.6592 53C11.9633 53 0 41.1081 0 26.5C0 11.8919 11.9633 0 26.6592 0C41.355 0 53.3183 11.8919 53.3183 26.5C53.3183 41.1081 41.355 53 26.6592 53Z" fill="#E6F1FF"/>
<g id="Vector_2">
<path d="M38.6885 31.334H36.522V39.0715C36.522 39.3178 36.4242 39.5539 36.25 39.7281C36.0759 39.9022 35.8397 40 35.5935 40C35.3472 40 35.1111 39.9022 34.9369 39.7281C34.7628 39.5539 34.665 39.3178 34.665 39.0715V31.334H14.857V33.191H20.1185C20.3647 33.191 20.6009 33.2888 20.775 33.463C20.9492 33.6371 21.047 33.8733 21.047 34.1195C21.047 34.3658 20.9492 34.6019 20.775 34.7761C20.6009 34.9502 20.3647 35.048 20.1185 35.048H14.857V39.0715C14.857 39.3178 14.7592 39.5539 14.585 39.7281C14.4109 39.9022 14.1748 40 13.9285 40C13.6822 40 13.4461 39.9022 13.272 39.7281C13.0978 39.5539 13 39.3178 13 39.0715V17.4065C13 17.1603 13.0978 16.9241 13.272 16.75C13.4461 16.5758 13.6822 16.478 13.9285 16.478C14.1748 16.478 14.4109 16.5758 14.585 16.75C14.7592 16.9241 14.857 17.1603 14.857 17.4065V24.2502C16.2873 24.5344 17.6286 25.1573 18.7685 26.0667C19.9084 26.9762 20.8137 28.1456 21.4085 29.477H38.6885C38.9347 29.477 39.1709 29.5748 39.345 29.749C39.5192 29.9231 39.617 30.1593 39.617 30.4055C39.617 30.6518 39.5192 30.8879 39.345 31.0621C39.1709 31.2362 38.9347 31.334 38.6885 31.334ZM14.857 26.4687V29.477H19.0662C17.9827 28.0892 16.5209 27.0445 14.857 26.4687Z" fill="#4298FF"/>
<path d="M30.951 31.2467V34.7385C30.951 34.9848 30.8532 35.2209 30.679 35.3951C30.5049 35.5692 30.2687 35.667 30.0225 35.667C29.7762 35.667 29.5401 35.5692 29.3659 35.3951C29.1918 35.2209 29.094 34.9848 29.094 34.7385V31.334H25.999V34.7385C25.999 34.9848 25.9012 35.2209 25.727 35.3951C25.5529 35.5692 25.3167 35.667 25.0705 35.667C24.8242 35.667 24.5881 35.5692 24.4139 35.3951C24.2398 35.2209 24.142 34.9848 24.142 34.7385V30.9905C23.7666 30.775 23.4545 30.4645 23.2372 30.0902C23.0199 29.7158 22.9049 29.2909 22.904 28.858V24.525C22.9041 23.6874 23.1171 22.8635 23.5229 22.1307C23.9287 21.3979 24.5141 20.7802 25.224 20.3356C24.7059 19.8157 24.3534 19.1539 24.2112 18.4338C24.0689 17.7137 24.1432 16.9676 24.4247 16.2897C24.7062 15.6118 25.1822 15.0326 25.7927 14.625C26.4032 14.2175 27.1207 14 27.8548 14C28.5888 14 29.3063 14.2175 29.9168 14.625C30.5273 15.0326 31.0033 15.6118 31.2848 16.2897C31.5663 16.9676 31.6406 17.7137 31.4983 18.4338C31.3561 19.1539 31.0036 19.8157 30.4855 20.3356C31.1959 20.7799 31.7817 21.3974 32.188 22.1303C32.5942 22.8631 32.8076 23.6871 32.808 24.525V28.858C32.8069 29.4057 32.6239 29.9374 32.2878 30.3698C31.9517 30.8022 31.4815 31.1106 30.951 31.2467ZM27.856 15.859C27.4887 15.859 27.1297 15.9679 26.8243 16.172C26.5189 16.376 26.2809 16.6661 26.1403 17.0054C25.9998 17.3447 25.963 17.7181 26.0347 18.0783C26.1063 18.4385 26.2832 18.7694 26.5429 19.0291C26.8026 19.2888 27.1335 19.4657 27.4937 19.5373C27.8539 19.609 28.2273 19.5722 28.5666 19.4317C28.906 19.2911 29.196 19.0531 29.4 18.7477C29.6041 18.4423 29.713 18.0833 29.713 17.716C29.713 17.2235 29.5173 16.7512 29.1691 16.4029C28.8208 16.0547 28.3485 15.859 27.856 15.859ZM30.951 25.144C30.951 24.3232 30.6249 23.5359 30.0445 22.9555C29.4641 22.3751 28.6768 22.049 27.856 22.049C27.0351 22.049 26.2479 22.3751 25.6675 22.9555C25.0871 23.5359 24.761 24.3232 24.761 25.144V28.296C24.8601 28.2593 24.9648 28.24 25.0705 28.239C25.3167 28.239 25.5529 28.3368 25.727 28.511C25.9012 28.6851 25.999 28.9213 25.999 29.1675V29.477H29.094V29.1675C29.0948 28.9817 29.1513 28.8003 29.2562 28.647C29.3612 28.4936 29.5098 28.3753 29.6827 28.3073C29.8557 28.2393 30.045 28.2247 30.2263 28.2655C30.4076 28.3063 30.5725 28.4006 30.6997 28.5361C30.8624 28.2581 30.9491 27.9421 30.951 27.62V25.144Z" fill="#F2A355"/>
</g>
</g>
</svg>
